<?xml version="1.0" encoding="utf-8"?>
<svg xmlns="http://www.w3.org/2000/svg" xmlns:xlink="http://www.w3.org/1999/xlink" width="760" height="420" viewBox="0 0 3040 1680">
<defs>
  <clipPath id="clip410">
    <rect x="0" y="0" width="3040" height="1680"/>
  </clipPath>
</defs>
<path clip-path="url(#clip410)" d="M0 1680 L3040 1680 L3040 9.14356e-14 L0 9.14356e-14  Z" fill="#ffffff" fill-rule="evenodd" fill-opacity="1"/>
<defs>
  <clipPath id="clip411">
    <rect x="608" y="0" width="2129" height="1680"/>
  </clipPath>
</defs>
<path clip-path="url(#clip410)" d="M312.295 1453.43 L2992.76 1453.43 L2992.76 113.127 L312.295 113.127  Z" fill="#ffffff" fill-rule="evenodd" fill-opacity="1"/>
<defs>
  <clipPath id="clip412">
    <rect x="312" y="113" width="2681" height="1341"/>
  </clipPath>
</defs>
<polyline clip-path="url(#clip412)" style="stroke:#000000; stroke-linecap:round; stroke-linejoin:round; stroke-width:2; stroke-opacity:0.1; fill:none" points="312.295,1453.43 2992.76,1453.43 "/>
<polyline clip-path="url(#clip412)" style="stroke:#000000; stroke-linecap:round; stroke-linejoin:round; stroke-width:2; stroke-opacity:0.1; fill:none" points="312.295,1195.68 2992.76,1195.68 "/>
<polyline clip-path="url(#clip412)" style="stroke:#000000; stroke-linecap:round; stroke-linejoin:round; stroke-width:2; stroke-opacity:0.1; fill:none" points="312.295,937.927 2992.76,937.927 "/>
<polyline clip-path="url(#clip412)" style="stroke:#000000; stroke-linecap:round; stroke-linejoin:round; stroke-width:2; stroke-opacity:0.1; fill:none" points="312.295,680.177 2992.76,680.177 "/>
<polyline clip-path="url(#clip412)" style="stroke:#000000; stroke-linecap:round; stroke-linejoin:round; stroke-width:2; stroke-opacity:0.1; fill:none" points="312.295,422.427 2992.76,422.427 "/>
<polyline clip-path="url(#clip412)" style="stroke:#000000; stroke-linecap:round; stroke-linejoin:round; stroke-width:2; stroke-opacity:0.1; fill:none" points="312.295,164.677 2992.76,164.677 "/>
<polyline clip-path="url(#clip412)" style="stroke:#000000; stroke-linecap:round; stroke-linejoin:round; stroke-width:2; stroke-opacity:0.1; fill:none" points="312.295,1453.43 2992.76,1453.43 "/>
<polyline clip-path="url(#clip412)" style="stroke:#000000; stroke-linecap:round; stroke-linejoin:round; stroke-width:2; stroke-opacity:0.1; fill:none" points="312.295,1195.68 2992.76,1195.68 "/>
<polyline clip-path="url(#clip412)" style="stroke:#000000; stroke-linecap:round; stroke-linejoin:round; stroke-width:2; stroke-opacity:0.1; fill:none" points="312.295,937.927 2992.76,937.927 "/>
<polyline clip-path="url(#clip412)" style="stroke:#000000; stroke-linecap:round; stroke-linejoin:round; stroke-width:2; stroke-opacity:0.1; fill:none" points="312.295,680.177 2992.76,680.177 "/>
<polyline clip-path="url(#clip412)" style="stroke:#000000; stroke-linecap:round; stroke-linejoin:round; stroke-width:2; stroke-opacity:0.1; fill:none" points="312.295,422.427 2992.76,422.427 "/>
<polyline clip-path="url(#clip412)" style="stroke:#000000; stroke-linecap:round; stroke-linejoin:round; stroke-width:2; stroke-opacity:0.1; fill:none" points="312.295,164.677 2992.76,164.677 "/>
<polyline clip-path="url(#clip410)" style="stroke:#000000; stroke-linecap:round; stroke-linejoin:round; stroke-width:4; stroke-opacity:1; fill:none" points="312.295,1453.43 2992.76,1453.43 "/>
<polyline clip-path="url(#clip410)" style="stroke:#000000; stroke-linecap:round; stroke-linejoin:round; stroke-width:4; stroke-opacity:1; fill:none" points="312.295,113.127 2992.76,113.127 "/>
<polyline clip-path="url(#clip410)" style="stroke:#000000; stroke-linecap:round; stroke-linejoin:round; stroke-width:4; stroke-opacity:1; fill:none" points="459.725,1453.43 459.725,1434.53 "/>
<polyline clip-path="url(#clip410)" style="stroke:#000000; stroke-linecap:round; stroke-linejoin:round; stroke-width:4; stroke-opacity:1; fill:none" points="857.325,1453.43 857.325,1434.53 "/>
<polyline clip-path="url(#clip410)" style="stroke:#000000; stroke-linecap:round; stroke-linejoin:round; stroke-width:4; stroke-opacity:1; fill:none" points="1254.93,1453.43 1254.93,1434.53 "/>
<polyline clip-path="url(#clip410)" style="stroke:#000000; stroke-linecap:round; stroke-linejoin:round; stroke-width:4; stroke-opacity:1; fill:none" points="1652.53,1453.43 1652.53,1434.53 "/>
<polyline clip-path="url(#clip410)" style="stroke:#000000; stroke-linecap:round; stroke-linejoin:round; stroke-width:4; stroke-opacity:1; fill:none" points="2050.13,1453.43 2050.13,1434.53 "/>
<polyline clip-path="url(#clip410)" style="stroke:#000000; stroke-linecap:round; stroke-linejoin:round; stroke-width:4; stroke-opacity:1; fill:none" points="2447.73,1453.43 2447.73,1434.53 "/>
<polyline clip-path="url(#clip410)" style="stroke:#000000; stroke-linecap:round; stroke-linejoin:round; stroke-width:4; stroke-opacity:1; fill:none" points="2845.33,1453.43 2845.33,1434.53 "/>
<polyline clip-path="url(#clip410)" style="stroke:#000000; stroke-linecap:round; stroke-linejoin:round; stroke-width:4; stroke-opacity:1; fill:none" points="459.725,113.127 459.725,132.025 "/>
<polyline clip-path="url(#clip410)" style="stroke:#000000; stroke-linecap:round; stroke-linejoin:round; stroke-width:4; stroke-opacity:1; fill:none" points="857.325,113.127 857.325,132.025 "/>
<polyline clip-path="url(#clip410)" style="stroke:#000000; stroke-linecap:round; stroke-linejoin:round; stroke-width:4; stroke-opacity:1; fill:none" points="1254.93,113.127 1254.93,132.025 "/>
<polyline clip-path="url(#clip410)" style="stroke:#000000; stroke-linecap:round; stroke-linejoin:round; stroke-width:4; stroke-opacity:1; fill:none" points="1652.53,113.127 1652.53,132.025 "/>
<polyline clip-path="url(#clip410)" style="stroke:#000000; stroke-linecap:round; stroke-linejoin:round; stroke-width:4; stroke-opacity:1; fill:none" points="2050.13,113.127 2050.13,132.025 "/>
<polyline clip-path="url(#clip410)" style="stroke:#000000; stroke-linecap:round; stroke-linejoin:round; stroke-width:4; stroke-opacity:1; fill:none" points="2447.73,113.127 2447.73,132.025 "/>
<polyline clip-path="url(#clip410)" style="stroke:#000000; stroke-linecap:round; stroke-linejoin:round; stroke-width:4; stroke-opacity:1; fill:none" points="2845.33,113.127 2845.33,132.025 "/>
<path clip-path="url(#clip410)" d="M422.028 1489.47 Q418.417 1489.47 416.588 1493.03 Q414.783 1496.57 414.783 1503.7 Q414.783 1510.81 416.588 1514.37 Q418.417 1517.92 422.028 1517.92 Q425.662 1517.92 427.468 1514.37 Q429.297 1510.81 429.297 1503.7 Q429.297 1496.57 427.468 1493.03 Q425.662 1489.47 422.028 1489.47 M422.028 1485.76 Q427.838 1485.76 430.894 1490.37 Q433.973 1494.95 433.973 1503.7 Q433.973 1512.43 430.894 1517.04 Q427.838 1521.62 422.028 1521.62 Q416.218 1521.62 413.139 1517.04 Q410.084 1512.43 410.084 1503.7 Q410.084 1494.95 413.139 1490.37 Q416.218 1485.76 422.028 1485.76 Z" fill="#000000" fill-rule="nonzero" fill-opacity="1" /><path clip-path="url(#clip410)" d="M442.19 1515.07 L447.074 1515.07 L447.074 1520.95 L442.19 1520.95 L442.19 1515.07 Z" fill="#000000" fill-rule="nonzero" fill-opacity="1" /><path clip-path="url(#clip410)" d="M467.259 1489.47 Q463.648 1489.47 461.82 1493.03 Q460.014 1496.57 460.014 1503.7 Q460.014 1510.81 461.82 1514.37 Q463.648 1517.92 467.259 1517.92 Q470.894 1517.92 472.699 1514.37 Q474.528 1510.81 474.528 1503.7 Q474.528 1496.57 472.699 1493.03 Q470.894 1489.47 467.259 1489.47 M467.259 1485.76 Q473.07 1485.76 476.125 1490.37 Q479.204 1494.95 479.204 1503.7 Q479.204 1512.43 476.125 1517.04 Q473.07 1521.62 467.259 1521.62 Q461.449 1521.62 458.371 1517.04 Q455.315 1512.43 455.315 1503.7 Q455.315 1494.95 458.371 1490.37 Q461.449 1485.76 467.259 1485.76 Z" fill="#000000" fill-rule="nonzero" fill-opacity="1" /><path clip-path="url(#clip410)" d="M497.421 1489.47 Q493.81 1489.47 491.982 1493.03 Q490.176 1496.57 490.176 1503.7 Q490.176 1510.81 491.982 1514.37 Q493.81 1517.92 497.421 1517.92 Q501.056 1517.92 502.861 1514.37 Q504.69 1510.81 504.69 1503.7 Q504.69 1496.57 502.861 1493.03 Q501.056 1489.47 497.421 1489.47 M497.421 1485.76 Q503.231 1485.76 506.287 1490.37 Q509.366 1494.95 509.366 1503.7 Q509.366 1512.43 506.287 1517.04 Q503.231 1521.62 497.421 1521.62 Q491.611 1521.62 488.532 1517.04 Q485.477 1512.43 485.477 1503.7 Q485.477 1494.95 488.532 1490.37 Q491.611 1485.76 497.421 1485.76 Z" fill="#000000" fill-rule="nonzero" fill-opacity="1" /><path clip-path="url(#clip410)" d="M820.427 1489.47 Q816.816 1489.47 814.987 1493.03 Q813.182 1496.57 813.182 1503.7 Q813.182 1510.81 814.987 1514.37 Q816.816 1517.92 820.427 1517.92 Q824.061 1517.92 825.867 1514.37 Q827.695 1510.81 827.695 1503.7 Q827.695 1496.57 825.867 1493.03 Q824.061 1489.47 820.427 1489.47 M820.427 1485.76 Q826.237 1485.76 829.293 1490.37 Q832.371 1494.95 832.371 1503.7 Q832.371 1512.43 829.293 1517.04 Q826.237 1521.62 820.427 1521.62 Q814.617 1521.62 811.538 1517.04 Q808.483 1512.43 808.483 1503.7 Q808.483 1494.95 811.538 1490.37 Q814.617 1485.76 820.427 1485.76 Z" fill="#000000" fill-rule="nonzero" fill-opacity="1" /><path clip-path="url(#clip410)" d="M840.589 1515.07 L845.473 1515.07 L845.473 1520.95 L840.589 1520.95 L840.589 1515.07 Z" fill="#000000" fill-rule="nonzero" fill-opacity="1" /><path clip-path="url(#clip410)" d="M865.658 1489.47 Q862.047 1489.47 860.218 1493.03 Q858.413 1496.57 858.413 1503.7 Q858.413 1510.81 860.218 1514.37 Q862.047 1517.92 865.658 1517.92 Q869.292 1517.92 871.098 1514.37 Q872.927 1510.81 872.927 1503.7 Q872.927 1496.57 871.098 1493.03 Q869.292 1489.47 865.658 1489.47 M865.658 1485.76 Q871.468 1485.76 874.524 1490.37 Q877.603 1494.95 877.603 1503.7 Q877.603 1512.43 874.524 1517.04 Q871.468 1521.62 865.658 1521.62 Q859.848 1521.62 856.769 1517.04 Q853.714 1512.43 853.714 1503.7 Q853.714 1494.95 856.769 1490.37 Q859.848 1485.76 865.658 1485.76 Z" fill="#000000" fill-rule="nonzero" fill-opacity="1" /><path clip-path="url(#clip410)" d="M889.848 1517.01 L906.167 1517.01 L906.167 1520.95 L884.223 1520.95 L884.223 1517.01 Q886.885 1514.26 891.468 1509.63 Q896.075 1504.98 897.255 1503.63 Q899.501 1501.11 900.38 1499.37 Q901.283 1497.61 901.283 1495.92 Q901.283 1493.17 899.339 1491.43 Q897.417 1489.7 894.315 1489.7 Q892.116 1489.7 889.663 1490.46 Q887.232 1491.23 884.454 1492.78 L884.454 1488.05 Q887.278 1486.92 889.732 1486.34 Q892.186 1485.76 894.223 1485.76 Q899.593 1485.76 902.788 1488.45 Q905.982 1491.13 905.982 1495.62 Q905.982 1497.75 905.172 1499.67 Q904.385 1501.57 902.278 1504.17 Q901.7 1504.84 898.598 1508.05 Q895.496 1511.25 889.848 1517.01 Z" fill="#000000" fill-rule="nonzero" fill-opacity="1" /><path clip-path="url(#clip410)" d="M1216.99 1489.47 Q1213.37 1489.47 1211.55 1493.03 Q1209.74 1496.57 1209.74 1503.7 Q1209.74 1510.81 1211.55 1514.37 Q1213.37 1517.92 1216.99 1517.92 Q1220.62 1517.92 1222.43 1514.37 Q1224.25 1510.81 1224.25 1503.7 Q1224.25 1496.57 1222.43 1493.03 Q1220.62 1489.47 1216.99 1489.47 M1216.99 1485.76 Q1222.8 1485.76 1225.85 1490.37 Q1228.93 1494.95 1228.93 1503.7 Q1228.93 1512.43 1225.85 1517.04 Q1222.8 1521.62 1216.99 1521.62 Q1211.18 1521.62 1208.1 1517.04 Q1205.04 1512.43 1205.04 1503.7 Q1205.04 1494.95 1208.1 1490.37 Q1211.18 1485.76 1216.99 1485.76 Z" fill="#000000" fill-rule="nonzero" fill-opacity="1" /><path clip-path="url(#clip410)" d="M1237.15 1515.07 L1242.03 1515.07 L1242.03 1520.95 L1237.15 1520.95 L1237.15 1515.07 Z" fill="#000000" fill-rule="nonzero" fill-opacity="1" /><path clip-path="url(#clip410)" d="M1262.22 1489.47 Q1258.61 1489.47 1256.78 1493.03 Q1254.97 1496.57 1254.97 1503.7 Q1254.97 1510.81 1256.78 1514.37 Q1258.61 1517.92 1262.22 1517.92 Q1265.85 1517.92 1267.66 1514.37 Q1269.49 1510.81 1269.49 1503.7 Q1269.49 1496.57 1267.66 1493.03 Q1265.85 1489.47 1262.22 1489.47 M1262.22 1485.76 Q1268.03 1485.76 1271.08 1490.37 Q1274.16 1494.95 1274.16 1503.7 Q1274.16 1512.43 1271.08 1517.04 Q1268.03 1521.62 1262.22 1521.62 Q1256.41 1521.62 1253.33 1517.04 Q1250.27 1512.43 1250.27 1503.7 Q1250.27 1494.95 1253.33 1490.37 Q1256.41 1485.76 1262.22 1485.76 Z" fill="#000000" fill-rule="nonzero" fill-opacity="1" /><path clip-path="url(#clip410)" d="M1295.23 1490.46 L1283.42 1508.91 L1295.23 1508.91 L1295.23 1490.46 M1294 1486.39 L1299.88 1486.39 L1299.88 1508.91 L1304.81 1508.91 L1304.81 1512.8 L1299.88 1512.8 L1299.88 1520.95 L1295.23 1520.95 L1295.23 1512.8 L1279.62 1512.8 L1279.62 1508.29 L1294 1486.39 Z" fill="#000000" fill-rule="nonzero" fill-opacity="1" /><path clip-path="url(#clip410)" d="M1614.75 1489.47 Q1611.14 1489.47 1609.31 1493.03 Q1607.5 1496.57 1607.5 1503.7 Q1607.5 1510.81 1609.31 1514.37 Q1611.14 1517.92 1614.75 1517.92 Q1618.38 1517.92 1620.19 1514.37 Q1622.02 1510.81 1622.02 1503.7 Q1622.02 1496.57 1620.19 1493.03 Q1618.38 1489.47 1614.75 1489.47 M1614.75 1485.76 Q1620.56 1485.76 1623.61 1490.37 Q1626.69 1494.95 1626.69 1503.7 Q1626.69 1512.43 1623.61 1517.04 Q1620.56 1521.62 1614.75 1521.62 Q1608.94 1521.62 1605.86 1517.04 Q1602.8 1512.43 1602.8 1503.7 Q1602.8 1494.95 1605.86 1490.37 Q1608.94 1485.76 1614.75 1485.76 Z" fill="#000000" fill-rule="nonzero" fill-opacity="1" /><path clip-path="url(#clip410)" d="M1634.91 1515.07 L1639.79 1515.07 L1639.79 1520.95 L1634.91 1520.95 L1634.91 1515.07 Z" fill="#000000" fill-rule="nonzero" fill-opacity="1" /><path clip-path="url(#clip410)" d="M1659.98 1489.47 Q1656.37 1489.47 1654.54 1493.03 Q1652.73 1496.57 1652.73 1503.7 Q1652.73 1510.81 1654.54 1514.37 Q1656.37 1517.92 1659.98 1517.92 Q1663.61 1517.92 1665.42 1514.37 Q1667.25 1510.81 1667.25 1503.7 Q1667.25 1496.57 1665.42 1493.03 Q1663.61 1489.47 1659.98 1489.47 M1659.98 1485.76 Q1665.79 1485.76 1668.84 1490.37 Q1671.92 1494.95 1671.92 1503.7 Q1671.92 1512.43 1668.84 1517.04 Q1665.79 1521.62 1659.98 1521.62 Q1654.17 1521.62 1651.09 1517.04 Q1648.03 1512.43 1648.03 1503.7 Q1648.03 1494.95 1651.09 1490.37 Q1654.17 1485.76 1659.98 1485.76 Z" fill="#000000" fill-rule="nonzero" fill-opacity="1" /><path clip-path="url(#clip410)" d="M1690.72 1501.8 Q1687.57 1501.8 1685.72 1503.96 Q1683.89 1506.11 1683.89 1509.86 Q1683.89 1513.59 1685.72 1515.76 Q1687.57 1517.92 1690.72 1517.92 Q1693.87 1517.92 1695.7 1515.76 Q1697.55 1513.59 1697.55 1509.86 Q1697.55 1506.11 1695.7 1503.96 Q1693.87 1501.8 1690.72 1501.8 M1700 1487.15 L1700 1491.41 Q1698.24 1490.58 1696.44 1490.14 Q1694.65 1489.7 1692.9 1489.7 Q1688.27 1489.7 1685.81 1492.82 Q1683.38 1495.95 1683.03 1502.27 Q1684.4 1500.25 1686.46 1499.19 Q1688.52 1498.1 1691 1498.1 Q1696.21 1498.1 1699.21 1501.27 Q1702.25 1504.42 1702.25 1509.86 Q1702.25 1515.18 1699.1 1518.4 Q1695.95 1521.62 1690.72 1521.62 Q1684.72 1521.62 1681.55 1517.04 Q1678.38 1512.43 1678.38 1503.7 Q1678.38 1495.51 1682.27 1490.65 Q1686.16 1485.76 1692.71 1485.76 Q1694.47 1485.76 1696.25 1486.11 Q1698.06 1486.46 1700 1487.15 Z" fill="#000000" fill-rule="nonzero" fill-opacity="1" /><path clip-path="url(#clip410)" d="M2012.48 1489.47 Q2008.86 1489.47 2007.04 1493.03 Q2005.23 1496.57 2005.23 1503.7 Q2005.23 1510.81 2007.04 1514.37 Q2008.86 1517.92 2012.48 1517.92 Q2016.11 1517.92 2017.91 1514.37 Q2019.74 1510.81 2019.74 1503.7 Q2019.74 1496.57 2017.91 1493.03 Q2016.11 1489.47 2012.48 1489.47 M2012.48 1485.76 Q2018.29 1485.76 2021.34 1490.37 Q2024.42 1494.95 2024.42 1503.7 Q2024.42 1512.43 2021.34 1517.04 Q2018.29 1521.62 2012.48 1521.62 Q2006.67 1521.62 2003.59 1517.04 Q2000.53 1512.43 2000.53 1503.7 Q2000.53 1494.95 2003.59 1490.37 Q2006.67 1485.76 2012.48 1485.76 Z" fill="#000000" fill-rule="nonzero" fill-opacity="1" /><path clip-path="url(#clip410)" d="M2032.64 1515.07 L2037.52 1515.07 L2037.52 1520.95 L2032.64 1520.95 L2032.64 1515.07 Z" fill="#000000" fill-rule="nonzero" fill-opacity="1" /><path clip-path="url(#clip410)" d="M2057.71 1489.47 Q2054.1 1489.47 2052.27 1493.03 Q2050.46 1496.57 2050.46 1503.7 Q2050.46 1510.81 2052.27 1514.37 Q2054.1 1517.92 2057.71 1517.92 Q2061.34 1517.92 2063.15 1514.37 Q2064.97 1510.81 2064.97 1503.7 Q2064.97 1496.57 2063.15 1493.03 Q2061.34 1489.47 2057.71 1489.47 M2057.71 1485.76 Q2063.52 1485.76 2066.57 1490.37 Q2069.65 1494.95 2069.65 1503.7 Q2069.65 1512.43 2066.57 1517.04 Q2063.52 1521.62 2057.71 1521.62 Q2051.9 1521.62 2048.82 1517.04 Q2045.76 1512.43 2045.76 1503.7 Q2045.76 1494.95 2048.82 1490.37 Q2051.9 1485.76 2057.71 1485.76 Z" fill="#000000" fill-rule="nonzero" fill-opacity="1" /><path clip-path="url(#clip410)" d="M2087.87 1504.54 Q2084.53 1504.54 2082.61 1506.32 Q2080.72 1508.1 2080.72 1511.23 Q2080.72 1514.35 2082.61 1516.13 Q2084.53 1517.92 2087.87 1517.92 Q2091.2 1517.92 2093.12 1516.13 Q2095.04 1514.33 2095.04 1511.23 Q2095.04 1508.1 2093.12 1506.32 Q2091.22 1504.54 2087.87 1504.54 M2083.19 1502.55 Q2080.18 1501.8 2078.49 1499.74 Q2076.83 1497.68 2076.83 1494.72 Q2076.83 1490.58 2079.77 1488.17 Q2082.73 1485.76 2087.87 1485.76 Q2093.03 1485.76 2095.97 1488.17 Q2098.91 1490.58 2098.91 1494.72 Q2098.91 1497.68 2097.22 1499.74 Q2095.55 1501.8 2092.57 1502.55 Q2095.95 1503.33 2097.82 1505.62 Q2099.72 1507.92 2099.72 1511.23 Q2099.72 1516.25 2096.64 1518.93 Q2093.59 1521.62 2087.87 1521.62 Q2082.15 1521.62 2079.07 1518.93 Q2076.02 1516.25 2076.02 1511.23 Q2076.02 1507.92 2077.91 1505.62 Q2079.81 1503.33 2083.19 1502.55 M2081.48 1495.16 Q2081.48 1497.85 2083.15 1499.35 Q2084.84 1500.86 2087.87 1500.86 Q2090.88 1500.86 2092.57 1499.35 Q2094.28 1497.85 2094.28 1495.16 Q2094.28 1492.48 2092.57 1490.97 Q2090.88 1489.47 2087.87 1489.47 Q2084.84 1489.47 2083.15 1490.97 Q2081.48 1492.48 2081.48 1495.16 Z" fill="#000000" fill-rule="nonzero" fill-opacity="1" /><path clip-path="url(#clip410)" d="M2410.03 1489.47 Q2406.42 1489.47 2404.59 1493.03 Q2402.78 1496.57 2402.78 1503.7 Q2402.78 1510.81 2404.59 1514.37 Q2406.42 1517.92 2410.03 1517.92 Q2413.66 1517.92 2415.47 1514.37 Q2417.3 1510.81 2417.3 1503.7 Q2417.3 1496.57 2415.47 1493.03 Q2413.66 1489.47 2410.03 1489.47 M2410.03 1485.76 Q2415.84 1485.76 2418.89 1490.37 Q2421.97 1494.95 2421.97 1503.7 Q2421.97 1512.43 2418.89 1517.04 Q2415.84 1521.62 2410.03 1521.62 Q2404.22 1521.62 2401.14 1517.04 Q2398.08 1512.43 2398.08 1503.7 Q2398.08 1494.95 2401.14 1490.37 Q2404.22 1485.76 2410.03 1485.76 Z" fill="#000000" fill-rule="nonzero" fill-opacity="1" /><path clip-path="url(#clip410)" d="M2430.19 1515.07 L2435.08 1515.07 L2435.08 1520.95 L2430.19 1520.95 L2430.19 1515.07 Z" fill="#000000" fill-rule="nonzero" fill-opacity="1" /><path clip-path="url(#clip410)" d="M2446.07 1517.01 L2453.71 1517.01 L2453.71 1490.65 L2445.4 1492.31 L2445.4 1488.05 L2453.66 1486.39 L2458.34 1486.39 L2458.34 1517.01 L2465.98 1517.01 L2465.98 1520.95 L2446.07 1520.95 L2446.07 1517.01 Z" fill="#000000" fill-rule="nonzero" fill-opacity="1" /><path clip-path="url(#clip410)" d="M2485.42 1489.47 Q2481.81 1489.47 2479.98 1493.03 Q2478.18 1496.57 2478.18 1503.7 Q2478.18 1510.81 2479.98 1514.37 Q2481.81 1517.92 2485.42 1517.92 Q2489.06 1517.92 2490.86 1514.37 Q2492.69 1510.81 2492.69 1503.7 Q2492.69 1496.57 2490.86 1493.03 Q2489.06 1489.47 2485.42 1489.47 M2485.42 1485.76 Q2491.23 1485.76 2494.29 1490.37 Q2497.37 1494.95 2497.37 1503.7 Q2497.37 1512.43 2494.29 1517.04 Q2491.23 1521.62 2485.42 1521.62 Q2479.61 1521.62 2476.53 1517.04 Q2473.48 1512.43 2473.48 1503.7 Q2473.48 1494.95 2476.53 1490.37 Q2479.61 1485.76 2485.42 1485.76 Z" fill="#000000" fill-rule="nonzero" fill-opacity="1" /><path clip-path="url(#clip410)" d="M2808.43 1489.47 Q2804.82 1489.47 2802.99 1493.03 Q2801.18 1496.57 2801.18 1503.7 Q2801.18 1510.81 2802.99 1514.37 Q2804.82 1517.92 2808.43 1517.92 Q2812.06 1517.92 2813.87 1514.37 Q2815.7 1510.81 2815.7 1503.7 Q2815.7 1496.57 2813.87 1493.03 Q2812.06 1489.47 2808.43 1489.47 M2808.43 1485.76 Q2814.24 1485.76 2817.29 1490.37 Q2820.37 1494.95 2820.37 1503.7 Q2820.37 1512.43 2817.29 1517.04 Q2814.24 1521.62 2808.43 1521.62 Q2802.62 1521.62 2799.54 1517.04 Q2796.48 1512.43 2796.48 1503.7 Q2796.48 1494.95 2799.54 1490.37 Q2802.62 1485.76 2808.43 1485.76 Z" fill="#000000" fill-rule="nonzero" fill-opacity="1" /><path clip-path="url(#clip410)" d="M2828.59 1515.07 L2833.47 1515.07 L2833.47 1520.95 L2828.59 1520.95 L2828.59 1515.07 Z" fill="#000000" fill-rule="nonzero" fill-opacity="1" /><path clip-path="url(#clip410)" d="M2844.47 1517.01 L2852.11 1517.01 L2852.11 1490.65 L2843.8 1492.31 L2843.8 1488.05 L2852.06 1486.39 L2856.74 1486.39 L2856.74 1517.01 L2864.38 1517.01 L2864.38 1520.95 L2844.47 1520.95 L2844.47 1517.01 Z" fill="#000000" fill-rule="nonzero" fill-opacity="1" /><path clip-path="url(#clip410)" d="M2877.85 1517.01 L2894.17 1517.01 L2894.17 1520.95 L2872.22 1520.95 L2872.22 1517.01 Q2874.89 1514.26 2879.47 1509.63 Q2884.08 1504.98 2885.26 1503.63 Q2887.5 1501.11 2888.38 1499.37 Q2889.28 1497.61 2889.28 1495.92 Q2889.28 1493.17 2887.34 1491.43 Q2885.42 1489.7 2882.32 1489.7 Q2880.12 1489.7 2877.66 1490.46 Q2875.23 1491.23 2872.46 1492.78 L2872.46 1488.05 Q2875.28 1486.92 2877.73 1486.34 Q2880.19 1485.76 2882.22 1485.76 Q2887.59 1485.76 2890.79 1488.45 Q2893.98 1491.13 2893.98 1495.62 Q2893.98 1497.75 2893.17 1499.67 Q2892.39 1501.57 2890.28 1504.17 Q2889.7 1504.84 2886.6 1508.05 Q2883.5 1511.25 2877.85 1517.01 Z" fill="#000000" fill-rule="nonzero" fill-opacity="1" /><path clip-path="url(#clip410)" d="M1485.98 1560.37 L1516.03 1560.37 L1516.03 1565.78 L1492.41 1565.78 L1492.41 1579.85 L1515.04 1579.85 L1515.04 1585.26 L1492.41 1585.26 L1492.41 1602.48 L1516.6 1602.48 L1516.6 1607.89 L1485.98 1607.89 L1485.98 1560.37 Z" fill="#000000" fill-rule="nonzero" fill-opacity="1" /><path clip-path="url(#clip410)" d="M1555.66 1561.93 L1555.66 1568.2 Q1551.99 1566.45 1548.75 1565.59 Q1545.5 1564.73 1542.48 1564.73 Q1537.23 1564.73 1534.36 1566.77 Q1531.53 1568.81 1531.53 1572.56 Q1531.53 1575.71 1533.41 1577.34 Q1535.32 1578.93 1540.6 1579.91 L1544.48 1580.71 Q1551.68 1582.08 1555.08 1585.55 Q1558.52 1588.99 1558.52 1594.78 Q1558.52 1601.69 1553.87 1605.25 Q1549.26 1608.81 1540.31 1608.81 Q1536.94 1608.81 1533.12 1608.05 Q1529.33 1607.29 1525.26 1605.79 L1525.26 1599.17 Q1529.17 1601.37 1532.93 1602.48 Q1536.69 1603.59 1540.31 1603.59 Q1545.82 1603.59 1548.81 1601.43 Q1551.8 1599.27 1551.8 1595.26 Q1551.8 1591.75 1549.64 1589.78 Q1547.51 1587.81 1542.61 1586.82 L1538.69 1586.06 Q1531.5 1584.63 1528.28 1581.57 Q1525.07 1578.51 1525.07 1573.07 Q1525.07 1566.77 1529.49 1563.14 Q1533.95 1559.51 1541.75 1559.51 Q1545.09 1559.51 1548.56 1560.12 Q1552.03 1560.72 1555.66 1561.93 Z" fill="#000000" fill-rule="nonzero" fill-opacity="1" /><path clip-path="url(#clip410)" d="M1591.08 1585.61 Q1593.15 1586.31 1595.09 1588.6 Q1597.06 1590.9 1599.04 1594.91 L1605.56 1607.89 L1598.66 1607.89 L1592.58 1595.7 Q1590.22 1590.93 1587.99 1589.37 Q1585.8 1587.81 1581.98 1587.81 L1574.98 1587.81 L1574.98 1607.89 L1568.55 1607.89 L1568.55 1560.37 L1583.06 1560.37 Q1591.21 1560.37 1595.22 1563.78 Q1599.23 1567.18 1599.23 1574.06 Q1599.23 1578.55 1597.13 1581.51 Q1595.06 1584.47 1591.08 1585.61 M1574.98 1565.66 L1574.98 1582.52 L1583.06 1582.52 Q1587.71 1582.52 1590.06 1580.39 Q1592.45 1578.23 1592.45 1574.06 Q1592.45 1569.89 1590.06 1567.79 Q1587.71 1565.66 1583.06 1565.66 L1574.98 1565.66 Z" fill="#000000" fill-rule="nonzero" fill-opacity="1" /><path clip-path="url(#clip410)" d="M1613.84 1560.37 L1620.27 1560.37 L1620.27 1607.89 L1613.84 1607.89 L1613.84 1560.37 Z" fill="#000000" fill-rule="nonzero" fill-opacity="1" /><path clip-path="url(#clip410)" d="M1676.25 1573.29 L1676.25 1578.83 Q1673.77 1577.56 1671.1 1576.92 Q1668.42 1576.29 1665.56 1576.29 Q1661.2 1576.29 1659 1577.62 Q1656.84 1578.96 1656.84 1581.63 Q1656.84 1583.67 1658.4 1584.85 Q1659.96 1585.99 1664.67 1587.04 L1666.67 1587.49 Q1672.91 1588.83 1675.52 1591.28 Q1678.16 1593.7 1678.16 1598.06 Q1678.16 1603.02 1674.22 1605.92 Q1670.3 1608.81 1663.43 1608.81 Q1660.56 1608.81 1657.44 1608.24 Q1654.36 1607.7 1650.92 1606.59 L1650.92 1600.54 Q1654.16 1602.23 1657.32 1603.09 Q1660.47 1603.91 1663.55 1603.91 Q1667.69 1603.91 1669.92 1602.51 Q1672.15 1601.08 1672.15 1598.5 Q1672.15 1596.12 1670.52 1594.84 Q1668.93 1593.57 1663.49 1592.39 L1661.45 1591.91 Q1656.01 1590.77 1653.59 1588.41 Q1651.17 1586.03 1651.17 1581.89 Q1651.17 1576.86 1654.74 1574.12 Q1658.3 1571.38 1664.86 1571.38 Q1668.11 1571.38 1670.97 1571.86 Q1673.83 1572.34 1676.25 1573.29 Z" fill="#000000" fill-rule="nonzero" fill-opacity="1" /><path clip-path="url(#clip410)" d="M1713.14 1573.61 L1713.14 1579.09 Q1710.66 1577.72 1708.15 1577.05 Q1705.66 1576.35 1703.12 1576.35 Q1697.42 1576.35 1694.27 1579.98 Q1691.12 1583.57 1691.12 1590.1 Q1691.12 1596.62 1694.27 1600.25 Q1697.42 1603.85 1703.12 1603.85 Q1705.66 1603.85 1708.15 1603.18 Q1710.66 1602.48 1713.14 1601.11 L1713.14 1606.52 Q1710.69 1607.67 1708.05 1608.24 Q1705.44 1608.81 1702.48 1608.81 Q1694.43 1608.81 1689.69 1603.75 Q1684.94 1598.69 1684.94 1590.1 Q1684.94 1581.38 1689.72 1576.38 Q1694.52 1571.38 1702.86 1571.38 Q1705.57 1571.38 1708.15 1571.96 Q1710.72 1572.5 1713.14 1573.61 Z" fill="#000000" fill-rule="nonzero" fill-opacity="1" /><path clip-path="url(#clip410)" d="M1737.14 1576.35 Q1732.43 1576.35 1729.69 1580.04 Q1726.96 1583.7 1726.96 1590.1 Q1726.96 1596.5 1729.66 1600.19 Q1732.4 1603.85 1737.14 1603.85 Q1741.82 1603.85 1744.56 1600.16 Q1747.29 1596.47 1747.29 1590.1 Q1747.29 1583.77 1744.56 1580.07 Q1741.82 1576.35 1737.14 1576.35 M1737.14 1571.38 Q1744.78 1571.38 1749.14 1576.35 Q1753.5 1581.31 1753.5 1590.1 Q1753.5 1598.85 1749.14 1603.85 Q1744.78 1608.81 1737.14 1608.81 Q1729.47 1608.81 1725.11 1603.85 Q1720.78 1598.85 1720.78 1590.1 Q1720.78 1581.31 1725.11 1576.35 Q1729.47 1571.38 1737.14 1571.38 Z" fill="#000000" fill-rule="nonzero" fill-opacity="1" /><path clip-path="url(#clip410)" d="M1783.87 1577.72 Q1782.88 1577.15 1781.7 1576.89 Q1780.56 1576.6 1779.16 1576.6 Q1774.19 1576.6 1771.52 1579.85 Q1768.87 1583.07 1768.87 1589.11 L1768.87 1607.89 L1762.99 1607.89 L1762.99 1572.24 L1768.87 1572.24 L1768.87 1577.78 Q1770.72 1574.54 1773.68 1572.98 Q1776.64 1571.38 1780.87 1571.38 Q1781.48 1571.38 1782.21 1571.48 Q1782.94 1571.54 1783.83 1571.7 L1783.87 1577.72 Z" fill="#000000" fill-rule="nonzero" fill-opacity="1" /><path clip-path="url(#clip410)" d="M1819.07 1588.6 L1819.07 1591.47 L1792.14 1591.47 Q1792.52 1597.52 1795.77 1600.7 Q1799.05 1603.85 1804.87 1603.85 Q1808.25 1603.85 1811.4 1603.02 Q1814.58 1602.19 1817.7 1600.54 L1817.7 1606.08 Q1814.55 1607.41 1811.24 1608.11 Q1807.93 1608.81 1804.52 1608.81 Q1795.99 1608.81 1791 1603.85 Q1786.03 1598.88 1786.03 1590.42 Q1786.03 1581.67 1790.74 1576.54 Q1795.48 1571.38 1803.5 1571.38 Q1810.7 1571.38 1814.87 1576.03 Q1819.07 1580.65 1819.07 1588.6 M1813.21 1586.88 Q1813.15 1582.08 1810.51 1579.21 Q1807.9 1576.35 1803.57 1576.35 Q1798.67 1576.35 1795.71 1579.12 Q1792.78 1581.89 1792.33 1586.92 L1813.21 1586.88 Z" fill="#000000" fill-rule="nonzero" fill-opacity="1" /><polyline clip-path="url(#clip410)" style="stroke:#000000; stroke-linecap:round; stroke-linejoin:round; stroke-width:4; stroke-opacity:1; fill:none" points="312.295,1453.43 312.295,113.127 "/>
<polyline clip-path="url(#clip410)" style="stroke:#000000; stroke-linecap:round; stroke-linejoin:round; stroke-width:4; stroke-opacity:1; fill:none" points="2992.76,1453.43 2992.76,113.127 "/>
<polyline clip-path="url(#clip410)" style="stroke:#000000; stroke-linecap:round; stroke-linejoin:round; stroke-width:4; stroke-opacity:1; fill:none" points="312.295,1453.43 331.192,1453.43 "/>
<polyline clip-path="url(#clip410)" style="stroke:#000000; stroke-linecap:round; stroke-linejoin:round; stroke-width:4; stroke-opacity:1; fill:none" points="312.295,1195.68 331.192,1195.68 "/>
<polyline clip-path="url(#clip410)" style="stroke:#000000; stroke-linecap:round; stroke-linejoin:round; stroke-width:4; stroke-opacity:1; fill:none" points="312.295,937.927 331.192,937.927 "/>
<polyline clip-path="url(#clip410)" style="stroke:#000000; stroke-linecap:round; stroke-linejoin:round; stroke-width:4; stroke-opacity:1; fill:none" points="312.295,680.177 331.192,680.177 "/>
<polyline clip-path="url(#clip410)" style="stroke:#000000; stroke-linecap:round; stroke-linejoin:round; stroke-width:4; stroke-opacity:1; fill:none" points="312.295,422.427 331.192,422.427 "/>
<polyline clip-path="url(#clip410)" style="stroke:#000000; stroke-linecap:round; stroke-linejoin:round; stroke-width:4; stroke-opacity:1; fill:none" points="312.295,164.677 331.192,164.677 "/>
<polyline clip-path="url(#clip410)" style="stroke:#000000; stroke-linecap:round; stroke-linejoin:round; stroke-width:4; stroke-opacity:1; fill:none" points="2992.76,1453.43 2973.86,1453.43 "/>
<polyline clip-path="url(#clip410)" style="stroke:#000000; stroke-linecap:round; stroke-linejoin:round; stroke-width:4; stroke-opacity:1; fill:none" points="2992.76,1195.68 2973.86,1195.68 "/>
<polyline clip-path="url(#clip410)" style="stroke:#000000; stroke-linecap:round; stroke-linejoin:round; stroke-width:4; stroke-opacity:1; fill:none" points="2992.76,937.927 2973.86,937.927 "/>
<polyline clip-path="url(#clip410)" style="stroke:#000000; stroke-linecap:round; stroke-linejoin:round; stroke-width:4; stroke-opacity:1; fill:none" points="2992.76,680.177 2973.86,680.177 "/>
<polyline clip-path="url(#clip410)" style="stroke:#000000; stroke-linecap:round; stroke-linejoin:round; stroke-width:4; stroke-opacity:1; fill:none" points="2992.76,422.427 2973.86,422.427 "/>
<polyline clip-path="url(#clip410)" style="stroke:#000000; stroke-linecap:round; stroke-linejoin:round; stroke-width:4; stroke-opacity:1; fill:none" points="2992.76,164.677 2973.86,164.677 "/>
<path clip-path="url(#clip410)" d="M254.75 1439.23 Q251.139 1439.23 249.31 1442.79 Q247.505 1446.33 247.505 1453.46 Q247.505 1460.57 249.31 1464.13 Q251.139 1467.68 254.75 1467.68 Q258.384 1467.68 260.19 1464.13 Q262.019 1460.57 262.019 1453.46 Q262.019 1446.33 260.19 1442.79 Q258.384 1439.23 254.75 1439.23 M254.75 1435.52 Q260.56 1435.52 263.616 1440.13 Q266.695 1444.71 266.695 1453.46 Q266.695 1462.19 263.616 1466.8 Q260.56 1471.38 254.75 1471.38 Q248.94 1471.38 245.861 1466.8 Q242.806 1462.19 242.806 1453.46 Q242.806 1444.71 245.861 1440.13 Q248.94 1435.52 254.75 1435.52 Z" fill="#000000" fill-rule="nonzero" fill-opacity="1" /><path clip-path="url(#clip410)" d="M185.237 1209.02 L192.876 1209.02 L192.876 1182.66 L184.565 1184.32 L184.565 1180.06 L192.829 1178.4 L197.505 1178.4 L197.505 1209.02 L205.144 1209.02 L205.144 1212.96 L185.237 1212.96 L185.237 1209.02 Z" fill="#000000" fill-rule="nonzero" fill-opacity="1" /><path clip-path="url(#clip410)" d="M224.588 1181.48 Q220.977 1181.48 219.149 1185.04 Q217.343 1188.58 217.343 1195.71 Q217.343 1202.82 219.149 1206.38 Q220.977 1209.93 224.588 1209.93 Q228.223 1209.93 230.028 1206.38 Q231.857 1202.82 231.857 1195.71 Q231.857 1188.58 230.028 1185.04 Q228.223 1181.48 224.588 1181.48 M224.588 1177.77 Q230.398 1177.77 233.454 1182.38 Q236.533 1186.96 236.533 1195.71 Q236.533 1204.44 233.454 1209.05 Q230.398 1213.63 224.588 1213.63 Q218.778 1213.63 215.699 1209.05 Q212.644 1204.44 212.644 1195.71 Q212.644 1186.96 215.699 1182.38 Q218.778 1177.77 224.588 1177.77 Z" fill="#000000" fill-rule="nonzero" fill-opacity="1" /><path clip-path="url(#clip410)" d="M254.75 1181.48 Q251.139 1181.48 249.31 1185.04 Q247.505 1188.58 247.505 1195.71 Q247.505 1202.82 249.31 1206.38 Q251.139 1209.93 254.75 1209.93 Q258.384 1209.93 260.19 1206.38 Q262.019 1202.82 262.019 1195.71 Q262.019 1188.58 260.19 1185.04 Q258.384 1181.48 254.75 1181.48 M254.75 1177.77 Q260.56 1177.77 263.616 1182.38 Q266.695 1186.96 266.695 1195.71 Q266.695 1204.44 263.616 1209.05 Q260.56 1213.63 254.75 1213.63 Q248.94 1213.63 245.861 1209.05 Q242.806 1204.44 242.806 1195.71 Q242.806 1186.96 245.861 1182.38 Q248.94 1177.77 254.75 1177.77 Z" fill="#000000" fill-rule="nonzero" fill-opacity="1" /><path clip-path="url(#clip410)" d="M188.454 951.272 L204.774 951.272 L204.774 955.207 L182.829 955.207 L182.829 951.272 Q185.491 948.518 190.075 943.888 Q194.681 939.235 195.862 937.893 Q198.107 935.37 198.987 933.633 Q199.889 931.874 199.889 930.184 Q199.889 927.43 197.945 925.694 Q196.024 923.958 192.922 923.958 Q190.723 923.958 188.269 924.721 Q185.839 925.485 183.061 927.036 L183.061 922.314 Q185.885 921.18 188.339 920.601 Q190.792 920.022 192.829 920.022 Q198.2 920.022 201.394 922.708 Q204.588 925.393 204.588 929.883 Q204.588 932.013 203.778 933.934 Q202.991 935.832 200.885 938.425 Q200.306 939.096 197.204 942.314 Q194.102 945.508 188.454 951.272 Z" fill="#000000" fill-rule="nonzero" fill-opacity="1" /><path clip-path="url(#clip410)" d="M224.588 923.726 Q220.977 923.726 219.149 927.291 Q217.343 930.833 217.343 937.962 Q217.343 945.069 219.149 948.633 Q220.977 952.175 224.588 952.175 Q228.223 952.175 230.028 948.633 Q231.857 945.069 231.857 937.962 Q231.857 930.833 230.028 927.291 Q228.223 923.726 224.588 923.726 M224.588 920.022 Q230.398 920.022 233.454 924.629 Q236.533 929.212 236.533 937.962 Q236.533 946.689 233.454 951.295 Q230.398 955.879 224.588 955.879 Q218.778 955.879 215.699 951.295 Q212.644 946.689 212.644 937.962 Q212.644 929.212 215.699 924.629 Q218.778 920.022 224.588 920.022 Z" fill="#000000" fill-rule="nonzero" fill-opacity="1" /><path clip-path="url(#clip410)" d="M254.75 923.726 Q251.139 923.726 249.31 927.291 Q247.505 930.833 247.505 937.962 Q247.505 945.069 249.31 948.633 Q251.139 952.175 254.75 952.175 Q258.384 952.175 260.19 948.633 Q262.019 945.069 262.019 937.962 Q262.019 930.833 260.19 927.291 Q258.384 923.726 254.75 923.726 M254.75 920.022 Q260.56 920.022 263.616 924.629 Q266.695 929.212 266.695 937.962 Q266.695 946.689 263.616 951.295 Q260.56 955.879 254.75 955.879 Q248.94 955.879 245.861 951.295 Q242.806 946.689 242.806 937.962 Q242.806 929.212 245.861 924.629 Q248.94 920.022 254.75 920.022 Z" fill="#000000" fill-rule="nonzero" fill-opacity="1" /><path clip-path="url(#clip410)" d="M198.593 678.823 Q201.95 679.541 203.825 681.809 Q205.723 684.078 205.723 687.411 Q205.723 692.527 202.204 695.328 Q198.686 698.129 192.204 698.129 Q190.028 698.129 187.714 697.689 Q185.422 697.272 182.968 696.416 L182.968 691.902 Q184.913 693.036 187.227 693.615 Q189.542 694.193 192.065 694.193 Q196.463 694.193 198.755 692.457 Q201.07 690.721 201.07 687.411 Q201.07 684.355 198.917 682.642 Q196.788 680.906 192.968 680.906 L188.94 680.906 L188.94 677.064 L193.153 677.064 Q196.602 677.064 198.431 675.698 Q200.26 674.309 200.26 671.717 Q200.26 669.055 198.362 667.643 Q196.487 666.207 192.968 666.207 Q191.047 666.207 188.848 666.624 Q186.649 667.041 184.01 667.92 L184.01 663.754 Q186.672 663.013 188.987 662.643 Q191.325 662.272 193.385 662.272 Q198.709 662.272 201.811 664.703 Q204.913 667.11 204.913 671.231 Q204.913 674.101 203.269 676.092 Q201.625 678.059 198.593 678.823 Z" fill="#000000" fill-rule="nonzero" fill-opacity="1" /><path clip-path="url(#clip410)" d="M224.588 665.976 Q220.977 665.976 219.149 669.541 Q217.343 673.082 217.343 680.212 Q217.343 687.318 219.149 690.883 Q220.977 694.425 224.588 694.425 Q228.223 694.425 230.028 690.883 Q231.857 687.318 231.857 680.212 Q231.857 673.082 230.028 669.541 Q228.223 665.976 224.588 665.976 M224.588 662.272 Q230.398 662.272 233.454 666.879 Q236.533 671.462 236.533 680.212 Q236.533 688.939 233.454 693.545 Q230.398 698.129 224.588 698.129 Q218.778 698.129 215.699 693.545 Q212.644 688.939 212.644 680.212 Q212.644 671.462 215.699 666.879 Q218.778 662.272 224.588 662.272 Z" fill="#000000" fill-rule="nonzero" fill-opacity="1" /><path clip-path="url(#clip410)" d="M254.75 665.976 Q251.139 665.976 249.31 669.541 Q247.505 673.082 247.505 680.212 Q247.505 687.318 249.31 690.883 Q251.139 694.425 254.75 694.425 Q258.384 694.425 260.19 690.883 Q262.019 687.318 262.019 680.212 Q262.019 673.082 260.19 669.541 Q258.384 665.976 254.75 665.976 M254.75 662.272 Q260.56 662.272 263.616 666.879 Q266.695 671.462 266.695 680.212 Q266.695 688.939 263.616 693.545 Q260.56 698.129 254.75 698.129 Q248.94 698.129 245.861 693.545 Q242.806 688.939 242.806 680.212 Q242.806 671.462 245.861 666.879 Q248.94 662.272 254.75 662.272 Z" fill="#000000" fill-rule="nonzero" fill-opacity="1" /><path clip-path="url(#clip410)" d="M197.274 409.221 L185.468 427.67 L197.274 427.67 L197.274 409.221 M196.047 405.147 L201.926 405.147 L201.926 427.67 L206.857 427.67 L206.857 431.559 L201.926 431.559 L201.926 439.707 L197.274 439.707 L197.274 431.559 L181.672 431.559 L181.672 427.045 L196.047 405.147 Z" fill="#000000" fill-rule="nonzero" fill-opacity="1" /><path clip-path="url(#clip410)" d="M224.588 408.226 Q220.977 408.226 219.149 411.791 Q217.343 415.332 217.343 422.462 Q217.343 429.568 219.149 433.133 Q220.977 436.675 224.588 436.675 Q228.223 436.675 230.028 433.133 Q231.857 429.568 231.857 422.462 Q231.857 415.332 230.028 411.791 Q228.223 408.226 224.588 408.226 M224.588 404.522 Q230.398 404.522 233.454 409.129 Q236.533 413.712 236.533 422.462 Q236.533 431.189 233.454 435.795 Q230.398 440.378 224.588 440.378 Q218.778 440.378 215.699 435.795 Q212.644 431.189 212.644 422.462 Q212.644 413.712 215.699 409.129 Q218.778 404.522 224.588 404.522 Z" fill="#000000" fill-rule="nonzero" fill-opacity="1" /><path clip-path="url(#clip410)" d="M254.75 408.226 Q251.139 408.226 249.31 411.791 Q247.505 415.332 247.505 422.462 Q247.505 429.568 249.31 433.133 Q251.139 436.675 254.75 436.675 Q258.384 436.675 260.19 433.133 Q262.019 429.568 262.019 422.462 Q262.019 415.332 260.19 411.791 Q258.384 408.226 254.75 408.226 M254.75 404.522 Q260.56 404.522 263.616 409.129 Q266.695 413.712 266.695 422.462 Q266.695 431.189 263.616 435.795 Q260.56 440.378 254.75 440.378 Q248.94 440.378 245.861 435.795 Q242.806 431.189 242.806 422.462 Q242.806 413.712 245.861 409.129 Q248.94 404.522 254.75 404.522 Z" fill="#000000" fill-rule="nonzero" fill-opacity="1" /><path clip-path="url(#clip410)" d="M184.473 147.397 L202.829 147.397 L202.829 151.332 L188.755 151.332 L188.755 159.804 Q189.774 159.457 190.792 159.295 Q191.811 159.11 192.829 159.11 Q198.616 159.11 201.996 162.281 Q205.375 165.452 205.375 170.869 Q205.375 176.448 201.903 179.55 Q198.431 182.628 192.112 182.628 Q189.936 182.628 187.667 182.258 Q185.422 181.887 183.014 181.147 L183.014 176.448 Q185.098 177.582 187.32 178.137 Q189.542 178.693 192.019 178.693 Q196.024 178.693 198.362 176.587 Q200.7 174.48 200.7 170.869 Q200.7 167.258 198.362 165.151 Q196.024 163.045 192.019 163.045 Q190.144 163.045 188.269 163.462 Q186.417 163.878 184.473 164.758 L184.473 147.397 Z" fill="#000000" fill-rule="nonzero" fill-opacity="1" /><path clip-path="url(#clip410)" d="M224.588 150.476 Q220.977 150.476 219.149 154.04 Q217.343 157.582 217.343 164.712 Q217.343 171.818 219.149 175.383 Q220.977 178.925 224.588 178.925 Q228.223 178.925 230.028 175.383 Q231.857 171.818 231.857 164.712 Q231.857 157.582 230.028 154.04 Q228.223 150.476 224.588 150.476 M224.588 146.772 Q230.398 146.772 233.454 151.378 Q236.533 155.962 236.533 164.712 Q236.533 173.438 233.454 178.045 Q230.398 182.628 224.588 182.628 Q218.778 182.628 215.699 178.045 Q212.644 173.438 212.644 164.712 Q212.644 155.962 215.699 151.378 Q218.778 146.772 224.588 146.772 Z" fill="#000000" fill-rule="nonzero" fill-opacity="1" /><path clip-path="url(#clip410)" d="M254.75 150.476 Q251.139 150.476 249.31 154.04 Q247.505 157.582 247.505 164.712 Q247.505 171.818 249.31 175.383 Q251.139 178.925 254.75 178.925 Q258.384 178.925 260.19 175.383 Q262.019 171.818 262.019 164.712 Q262.019 157.582 260.19 154.04 Q258.384 150.476 254.75 150.476 M254.75 146.772 Q260.56 146.772 263.616 151.378 Q266.695 155.962 266.695 164.712 Q266.695 173.438 263.616 178.045 Q260.56 182.628 254.75 182.628 Q248.94 182.628 245.861 178.045 Q242.806 173.438 242.806 164.712 Q242.806 155.962 245.861 151.378 Q248.94 146.772 254.75 146.772 Z" fill="#000000" fill-rule="nonzero" fill-opacity="1" /><path clip-path="url(#clip410)" d="M74.2959 1043.63 L74.2959 1034.98 L114.05 1013.91 L74.2959 1013.91 L74.2959 1007.67 L121.816 1007.67 L121.816 1016.33 L82.0621 1037.4 L121.816 1037.4 L121.816 1043.63 L74.2959 1043.63 Z" fill="#000000" fill-rule="nonzero" fill-opacity="1" /><path clip-path="url(#clip410)" d="M107.748 995.733 L86.1679 995.733 L86.1679 989.876 L107.525 989.876 Q112.586 989.876 115.132 987.903 Q117.646 985.93 117.646 981.983 Q117.646 977.24 114.623 974.503 Q111.599 971.734 106.379 971.734 L86.1679 971.734 L86.1679 965.878 L121.816 965.878 L121.816 971.734 L116.341 971.734 Q119.588 973.867 121.179 976.699 Q122.739 979.5 122.739 983.224 Q122.739 989.367 118.919 992.55 Q115.1 995.733 107.748 995.733 M85.3086 980.996 L85.3086 980.996 Z" fill="#000000" fill-rule="nonzero" fill-opacity="1" /><path clip-path="url(#clip410)" d="M93.0111 926.06 Q89.0643 923.864 87.1864 920.808 Q85.3086 917.753 85.3086 913.615 Q85.3086 908.045 89.2235 905.021 Q93.1066 901.998 100.3 901.998 L121.816 901.998 L121.816 907.886 L100.491 907.886 Q95.3664 907.886 92.8838 909.7 Q90.4011 911.514 90.4011 915.238 Q90.4011 919.79 93.4248 922.432 Q96.4486 925.073 101.668 925.073 L121.816 925.073 L121.816 930.962 L100.491 930.962 Q95.3346 930.962 92.8838 932.776 Q90.4011 934.59 90.4011 938.378 Q90.4011 942.866 93.4567 945.507 Q96.4804 948.149 101.668 948.149 L121.816 948.149 L121.816 954.037 L86.1679 954.037 L86.1679 948.149 L91.7061 948.149 Q88.4278 946.144 86.8682 943.343 Q85.3086 940.542 85.3086 936.691 Q85.3086 932.808 87.2819 930.102 Q89.2553 927.365 93.0111 926.06 Z" fill="#000000" fill-rule="nonzero" fill-opacity="1" /><path clip-path="url(#clip410)" d="M104.024 864.727 Q97.5626 864.727 93.9023 867.4 Q90.2102 870.042 90.2102 874.689 Q90.2102 879.336 93.9023 882.009 Q97.5626 884.651 104.024 884.651 Q110.485 884.651 114.177 882.009 Q117.837 879.336 117.837 874.689 Q117.837 870.042 114.177 867.4 Q110.485 864.727 104.024 864.727 M91.5788 884.651 Q88.3959 882.805 86.8682 880.004 Q85.3086 877.171 85.3086 873.257 Q85.3086 866.764 90.4648 862.721 Q95.621 858.647 104.024 858.647 Q112.426 858.647 117.583 862.721 Q122.739 866.764 122.739 873.257 Q122.739 877.171 121.211 880.004 Q119.652 882.805 116.469 884.651 L121.816 884.651 L121.816 890.539 L72.2907 890.539 L72.2907 884.651 L91.5788 884.651 Z" fill="#000000" fill-rule="nonzero" fill-opacity="1" /><path clip-path="url(#clip410)" d="M102.528 818.448 L105.392 818.448 L105.392 845.375 Q111.44 844.993 114.623 841.746 Q117.774 838.468 117.774 832.643 Q117.774 829.27 116.946 826.118 Q116.119 822.936 114.464 819.816 L120.002 819.816 Q121.338 822.967 122.039 826.278 Q122.739 829.588 122.739 832.993 Q122.739 841.524 117.774 846.521 Q112.808 851.486 104.342 851.486 Q95.5892 851.486 90.4648 846.775 Q85.3086 842.033 85.3086 834.012 Q85.3086 826.819 89.9555 822.649 Q94.5707 818.448 102.528 818.448 M100.809 824.304 Q96.003 824.368 93.1384 827.01 Q90.2738 829.62 90.2738 833.948 Q90.2738 838.85 93.0429 841.81 Q95.812 844.738 100.841 845.184 L100.809 824.304 Z" fill="#000000" fill-rule="nonzero" fill-opacity="1" /><path clip-path="url(#clip410)" d="M91.6424 788.179 Q91.0695 789.166 90.8149 790.343 Q90.5284 791.489 90.5284 792.89 Q90.5284 797.855 93.775 800.528 Q96.9896 803.17 103.037 803.17 L121.816 803.17 L121.816 809.058 L86.1679 809.058 L86.1679 803.17 L91.7061 803.17 Q88.4596 801.324 86.9 798.364 Q85.3086 795.404 85.3086 791.171 Q85.3086 790.566 85.4041 789.834 Q85.4677 789.102 85.6269 788.211 L91.6424 788.179 Z" fill="#000000" fill-rule="nonzero" fill-opacity="1" /><path clip-path="url(#clip410)" d="M90.2738 747.502 Q90.2738 752.213 93.9659 754.95 Q97.6262 757.687 104.024 757.687 Q110.421 757.687 114.113 754.982 Q117.774 752.244 117.774 747.502 Q117.774 742.823 114.082 740.086 Q110.389 737.349 104.024 737.349 Q97.6899 737.349 93.9978 740.086 Q90.2738 742.823 90.2738 747.502 M85.3086 747.502 Q85.3086 739.863 90.2738 735.503 Q95.2391 731.142 104.024 731.142 Q112.777 731.142 117.774 735.503 Q122.739 739.863 122.739 747.502 Q122.739 755.173 117.774 759.533 Q112.777 763.862 104.024 763.862 Q95.2391 763.862 90.2738 759.533 Q85.3086 755.173 85.3086 747.502 Z" fill="#000000" fill-rule="nonzero" fill-opacity="1" /><path clip-path="url(#clip410)" d="M72.2907 703.388 L77.1605 703.388 L77.1605 708.989 Q77.1605 712.141 78.4336 713.382 Q79.7067 714.591 83.0169 714.591 L86.1679 714.591 L86.1679 704.947 L90.7194 704.947 L90.7194 714.591 L121.816 714.591 L121.816 720.48 L90.7194 720.48 L90.7194 726.081 L86.1679 726.081 L86.1679 720.48 L83.6853 720.48 Q77.7334 720.48 75.028 717.711 Q72.2907 714.941 72.2907 708.926 L72.2907 703.388 Z" fill="#000000" fill-rule="nonzero" fill-opacity="1" /><path clip-path="url(#clip410)" d="M72.2907 659.719 L77.1605 659.719 L77.1605 665.321 Q77.1605 668.472 78.4336 669.713 Q79.7067 670.923 83.0169 670.923 L86.1679 670.923 L86.1679 661.279 L90.7194 661.279 L90.7194 670.923 L121.816 670.923 L121.816 676.811 L90.7194 676.811 L90.7194 682.413 L86.1679 682.413 L86.1679 676.811 L83.6853 676.811 Q77.7334 676.811 75.028 674.042 Q72.2907 671.273 72.2907 665.257 L72.2907 659.719 Z" fill="#000000" fill-rule="nonzero" fill-opacity="1" /><path clip-path="url(#clip410)" d="M86.1679 654.817 L86.1679 648.961 L121.816 648.961 L121.816 654.817 L86.1679 654.817 M72.2907 654.817 L72.2907 648.961 L79.7067 648.961 L79.7067 654.817 L72.2907 654.817 Z" fill="#000000" fill-rule="nonzero" fill-opacity="1" /><path clip-path="url(#clip410)" d="M91.6424 616.05 Q91.0695 617.037 90.8149 618.215 Q90.5284 619.36 90.5284 620.761 Q90.5284 625.726 93.775 628.4 Q96.9896 631.041 103.037 631.041 L121.816 631.041 L121.816 636.93 L86.1679 636.93 L86.1679 631.041 L91.7061 631.041 Q88.4596 629.195 86.9 626.235 Q85.3086 623.275 85.3086 619.042 Q85.3086 618.437 85.4041 617.705 Q85.4677 616.973 85.6269 616.082 L91.6424 616.05 Z" fill="#000000" fill-rule="nonzero" fill-opacity="1" /><path clip-path="url(#clip410)" d="M93.0111 583.299 Q89.0643 581.102 87.1864 578.047 Q85.3086 574.991 85.3086 570.854 Q85.3086 565.284 89.2235 562.26 Q93.1066 559.236 100.3 559.236 L121.816 559.236 L121.816 565.125 L100.491 565.125 Q95.3664 565.125 92.8838 566.939 Q90.4011 568.753 90.4011 572.477 Q90.4011 577.028 93.4248 579.67 Q96.4486 582.312 101.668 582.312 L121.816 582.312 L121.816 588.2 L100.491 588.2 Q95.3346 588.2 92.8838 590.014 Q90.4011 591.829 90.4011 595.616 Q90.4011 600.104 93.4567 602.746 Q96.4804 605.388 101.668 605.388 L121.816 605.388 L121.816 611.276 L86.1679 611.276 L86.1679 605.388 L91.7061 605.388 Q88.4278 603.382 86.8682 600.582 Q85.3086 597.781 85.3086 593.929 Q85.3086 590.046 87.2819 587.341 Q89.2553 584.604 93.0111 583.299 Z" fill="#000000" fill-rule="nonzero" fill-opacity="1" /><path clip-path="url(#clip410)" d="M87.2183 524.83 L92.7564 524.83 Q91.4833 527.312 90.8467 529.986 Q90.2102 532.659 90.2102 535.524 Q90.2102 539.884 91.547 542.081 Q92.8838 544.245 95.5574 544.245 Q97.5944 544.245 98.772 542.685 Q99.9179 541.126 100.968 536.415 L101.414 534.41 Q102.751 528.172 105.201 525.562 Q107.62 522.92 111.981 522.92 Q116.946 522.92 119.843 526.867 Q122.739 530.782 122.739 537.656 Q122.739 540.521 122.166 543.64 Q121.625 546.728 120.511 550.165 L114.464 550.165 Q116.15 546.919 117.01 543.768 Q117.837 540.617 117.837 537.529 Q117.837 533.391 116.437 531.163 Q115.005 528.935 112.426 528.935 Q110.039 528.935 108.766 530.559 Q107.493 532.15 106.315 537.593 L105.838 539.63 Q104.692 545.073 102.337 547.492 Q99.9497 549.91 95.812 549.91 Q90.7831 549.91 88.0458 546.346 Q85.3086 542.781 85.3086 536.224 Q85.3086 532.978 85.786 530.113 Q86.2634 527.249 87.2183 524.83 Z" fill="#000000" fill-rule="nonzero" fill-opacity="1" /><path clip-path="url(#clip410)" d="M728.332 18.8205 L728.332 65.8515 L738.216 65.8515 Q750.733 65.8515 756.526 60.1802 Q762.359 54.509 762.359 42.2752 Q762.359 30.1225 756.526 24.4918 Q750.733 18.8205 738.216 18.8205 L728.332 18.8205 M720.149 12.096 L736.96 12.096 Q754.541 12.096 762.764 19.4281 Q770.988 26.7198 770.988 42.2752 Q770.988 57.9117 762.724 65.2439 Q754.46 72.576 736.96 72.576 L720.149 72.576 L720.149 12.096 Z" fill="#000000" fill-rule="nonzero" fill-opacity="1" /><path clip-path="url(#clip410)" d="M783.708 27.2059 L791.161 27.2059 L791.161 72.576 L783.708 72.576 L783.708 27.2059 M783.708 9.54393 L791.161 9.54393 L791.161 18.9825 L783.708 18.9825 L783.708 9.54393 Z" fill="#000000" fill-rule="nonzero" fill-opacity="1" /><path clip-path="url(#clip410)" d="M835.681 28.5427 L835.681 35.5912 Q832.521 33.9709 829.118 33.1607 Q825.715 32.3505 822.07 32.3505 Q816.52 32.3505 813.725 34.0519 Q810.97 35.7533 810.97 39.156 Q810.97 41.7486 812.955 43.2475 Q814.94 44.7058 820.935 46.0426 L823.487 46.6097 Q831.427 48.3111 834.749 51.4303 Q838.111 54.509 838.111 60.0587 Q838.111 66.3781 833.088 70.0644 Q828.105 73.7508 819.356 73.7508 Q815.71 73.7508 811.74 73.0216 Q807.81 72.3329 803.435 70.9151 L803.435 63.2184 Q807.567 65.3654 811.578 66.4591 Q815.588 67.5124 819.518 67.5124 Q824.784 67.5124 827.619 65.73 Q830.455 63.9071 830.455 60.6258 Q830.455 57.5877 828.389 55.9673 Q826.364 54.3469 819.437 52.8481 L816.844 52.2405 Q809.917 50.7821 806.838 47.7845 Q803.76 44.7463 803.76 39.4801 Q803.76 33.0797 808.297 29.5959 Q812.834 26.1121 821.178 26.1121 Q825.31 26.1121 828.956 26.7198 Q832.602 27.3274 835.681 28.5427 Z" fill="#000000" fill-rule="nonzero" fill-opacity="1" /><path clip-path="url(#clip410)" d="M857.353 14.324 L857.353 27.2059 L872.706 27.2059 L872.706 32.9987 L857.353 32.9987 L857.353 57.6282 Q857.353 63.1779 858.852 64.7578 Q860.391 66.3376 865.05 66.3376 L872.706 66.3376 L872.706 72.576 L865.05 72.576 Q856.421 72.576 853.14 69.3758 Q849.859 66.1351 849.859 57.6282 L849.859 32.9987 L844.39 32.9987 L844.39 27.2059 L849.859 27.2059 L849.859 14.324 L857.353 14.324 Z" fill="#000000" fill-rule="nonzero" fill-opacity="1" /><path clip-path="url(#clip410)" d="M908.799 34.1734 Q907.544 33.4443 906.045 33.1202 Q904.587 32.7556 902.804 32.7556 Q896.485 32.7556 893.082 36.8875 Q889.72 40.9789 889.72 48.6757 L889.72 72.576 L882.226 72.576 L882.226 27.2059 L889.72 27.2059 L889.72 34.2544 Q892.069 30.1225 895.837 28.1376 Q899.604 26.1121 904.992 26.1121 Q905.761 26.1121 906.693 26.2337 Q907.625 26.3147 908.759 26.5172 L908.799 34.1734 Z" fill="#000000" fill-rule="nonzero" fill-opacity="1" /><path clip-path="url(#clip410)" d="M916.618 27.2059 L924.071 27.2059 L924.071 72.576 L916.618 72.576 L916.618 27.2059 M916.618 9.54393 L924.071 9.54393 L924.071 18.9825 L916.618 18.9825 L916.618 9.54393 Z" fill="#000000" fill-rule="nonzero" fill-opacity="1" /><path clip-path="url(#clip410)" d="M972.237 49.9314 Q972.237 41.7081 968.834 37.0496 Q965.472 32.3505 959.557 32.3505 Q953.643 32.3505 950.24 37.0496 Q946.878 41.7081 946.878 49.9314 Q946.878 58.1548 950.24 62.8538 Q953.643 67.5124 959.557 67.5124 Q965.472 67.5124 968.834 62.8538 Q972.237 58.1548 972.237 49.9314 M946.878 34.0924 Q949.228 30.0415 952.792 28.0971 Q956.398 26.1121 961.38 26.1121 Q969.644 26.1121 974.789 32.6746 Q979.974 39.2371 979.974 49.9314 Q979.974 60.6258 974.789 67.1883 Q969.644 73.7508 961.38 73.7508 Q956.398 73.7508 952.792 71.8063 Q949.228 69.8214 946.878 65.7705 L946.878 72.576 L939.384 72.576 L939.384 9.54393 L946.878 9.54393 L946.878 34.0924 Z" fill="#000000" fill-rule="nonzero" fill-opacity="1" /><path clip-path="url(#clip410)" d="M991.559 54.671 L991.559 27.2059 L999.013 27.2059 L999.013 54.3874 Q999.013 60.8284 1001.52 64.0691 Q1004.04 67.2693 1009.06 67.2693 Q1015.1 67.2693 1018.58 63.421 Q1022.1 59.5726 1022.1 52.9291 L1022.1 27.2059 L1029.56 27.2059 L1029.56 72.576 L1022.1 72.576 L1022.1 65.6084 Q1019.39 69.7404 1015.78 71.7658 Q1012.22 73.7508 1007.48 73.7508 Q999.661 73.7508 995.61 68.8897 Q991.559 64.0286 991.559 54.671 M1010.32 26.1121 L1010.32 26.1121 Z" fill="#000000" fill-rule="nonzero" fill-opacity="1" /><path clip-path="url(#clip410)" d="M1052.28 14.324 L1052.28 27.2059 L1067.64 27.2059 L1067.64 32.9987 L1052.28 32.9987 L1052.28 57.6282 Q1052.28 63.1779 1053.78 64.7578 Q1055.32 66.3376 1059.98 66.3376 L1067.64 66.3376 L1067.64 72.576 L1059.98 72.576 Q1051.35 72.576 1048.07 69.3758 Q1044.79 66.1351 1044.79 57.6282 L1044.79 32.9987 L1039.32 32.9987 L1039.32 27.2059 L1044.79 27.2059 L1044.79 14.324 L1052.28 14.324 Z" fill="#000000" fill-rule="nonzero" fill-opacity="1" /><path clip-path="url(#clip410)" d="M1077.44 27.2059 L1084.89 27.2059 L1084.89 72.576 L1077.44 72.576 L1077.44 27.2059 M1077.44 9.54393 L1084.89 9.54393 L1084.89 18.9825 L1077.44 18.9825 L1077.44 9.54393 Z" fill="#000000" fill-rule="nonzero" fill-opacity="1" /><path clip-path="url(#clip410)" d="M1118.07 32.4315 Q1112.07 32.4315 1108.59 37.1306 Q1105.11 41.7891 1105.11 49.9314 Q1105.11 58.0738 1108.55 62.7728 Q1112.03 67.4314 1118.07 67.4314 Q1124.02 67.4314 1127.51 62.7323 Q1130.99 58.0333 1130.99 49.9314 Q1130.99 41.8701 1127.51 37.1711 Q1124.02 32.4315 1118.07 32.4315 M1118.07 26.1121 Q1127.79 26.1121 1133.34 32.4315 Q1138.89 38.7509 1138.89 49.9314 Q1138.89 61.0714 1133.34 67.4314 Q1127.79 73.7508 1118.07 73.7508 Q1108.31 73.7508 1102.76 67.4314 Q1097.25 61.0714 1097.25 49.9314 Q1097.25 38.7509 1102.76 32.4315 Q1108.31 26.1121 1118.07 26.1121 Z" fill="#000000" fill-rule="nonzero" fill-opacity="1" /><path clip-path="url(#clip410)" d="M1188.96 45.1919 L1188.96 72.576 L1181.51 72.576 L1181.51 45.4349 Q1181.51 38.994 1178.99 35.7938 Q1176.48 32.5936 1171.46 32.5936 Q1165.42 32.5936 1161.94 36.4419 Q1158.46 40.2903 1158.46 46.9338 L1158.46 72.576 L1150.96 72.576 L1150.96 27.2059 L1158.46 27.2059 L1158.46 34.2544 Q1161.13 30.163 1164.74 28.1376 Q1168.38 26.1121 1173.12 26.1121 Q1180.94 26.1121 1184.95 30.9732 Q1188.96 35.7938 1188.96 45.1919 Z" fill="#000000" fill-rule="nonzero" fill-opacity="1" /><path clip-path="url(#clip410)" d="M1247.78 32.4315 Q1241.78 32.4315 1238.3 37.1306 Q1234.82 41.7891 1234.82 49.9314 Q1234.82 58.0738 1238.26 62.7728 Q1241.74 67.4314 1247.78 67.4314 Q1253.73 67.4314 1257.22 62.7323 Q1260.7 58.0333 1260.7 49.9314 Q1260.7 41.8701 1257.22 37.1711 Q1253.73 32.4315 1247.78 32.4315 M1247.78 26.1121 Q1257.5 26.1121 1263.05 32.4315 Q1268.6 38.7509 1268.6 49.9314 Q1268.6 61.0714 1263.05 67.4314 Q1257.5 73.7508 1247.78 73.7508 Q1238.02 73.7508 1232.47 67.4314 Q1226.96 61.0714 1226.96 49.9314 Q1226.96 38.7509 1232.47 32.4315 Q1238.02 26.1121 1247.78 26.1121 Z" fill="#000000" fill-rule="nonzero" fill-opacity="1" /><path clip-path="url(#clip410)" d="M1303.92 9.54393 L1303.92 15.7418 L1296.8 15.7418 Q1292.78 15.7418 1291.2 17.3622 Q1289.67 18.9825 1289.67 23.1955 L1289.67 27.2059 L1301.94 27.2059 L1301.94 32.9987 L1289.67 32.9987 L1289.67 72.576 L1282.17 72.576 L1282.17 32.9987 L1275.04 32.9987 L1275.04 27.2059 L1282.17 27.2059 L1282.17 24.0462 Q1282.17 16.471 1285.7 13.0277 Q1289.22 9.54393 1296.88 9.54393 L1303.92 9.54393 Z" fill="#000000" fill-rule="nonzero" fill-opacity="1" /><path clip-path="url(#clip410)" d="M1366.39 34.0924 L1366.39 9.54393 L1373.84 9.54393 L1373.84 72.576 L1366.39 72.576 L1366.39 65.7705 Q1364.04 69.8214 1360.43 71.8063 Q1356.87 73.7508 1351.85 73.7508 Q1343.62 73.7508 1338.44 67.1883 Q1333.29 60.6258 1333.29 49.9314 Q1333.29 39.2371 1338.44 32.6746 Q1343.62 26.1121 1351.85 26.1121 Q1356.87 26.1121 1360.43 28.0971 Q1364.04 30.0415 1366.39 34.0924 M1340.99 49.9314 Q1340.99 58.1548 1344.35 62.8538 Q1347.76 67.5124 1353.67 67.5124 Q1359.58 67.5124 1362.99 62.8538 Q1366.39 58.1548 1366.39 49.9314 Q1366.39 41.7081 1362.99 37.0496 Q1359.58 32.3505 1353.67 32.3505 Q1347.76 32.3505 1344.35 37.0496 Q1340.99 41.7081 1340.99 49.9314 Z" fill="#000000" fill-rule="nonzero" fill-opacity="1" /><path clip-path="url(#clip410)" d="M1428 48.0275 L1428 51.6733 L1393.73 51.6733 Q1394.22 59.3701 1398.35 63.421 Q1402.52 67.4314 1409.94 67.4314 Q1414.23 67.4314 1418.24 66.3781 Q1422.29 65.3249 1426.26 63.2184 L1426.26 70.267 Q1422.25 71.9684 1418.04 72.8596 Q1413.83 73.7508 1409.49 73.7508 Q1398.63 73.7508 1392.27 67.4314 Q1385.96 61.1119 1385.96 50.3365 Q1385.96 39.1965 1391.95 32.6746 Q1397.99 26.1121 1408.19 26.1121 Q1417.35 26.1121 1422.66 32.0264 Q1428 37.9003 1428 48.0275 M1420.55 45.84 Q1420.47 39.7232 1417.11 36.0774 Q1413.79 32.4315 1408.28 32.4315 Q1402.04 32.4315 1398.27 35.9558 Q1394.54 39.4801 1393.98 45.8805 L1420.55 45.84 Z" fill="#000000" fill-rule="nonzero" fill-opacity="1" /><path clip-path="url(#clip410)" d="M1463.21 9.54393 L1463.21 15.7418 L1456.08 15.7418 Q1452.07 15.7418 1450.49 17.3622 Q1448.95 18.9825 1448.95 23.1955 L1448.95 27.2059 L1461.22 27.2059 L1461.22 32.9987 L1448.95 32.9987 L1448.95 72.576 L1441.45 72.576 L1441.45 32.9987 L1434.32 32.9987 L1434.32 27.2059 L1441.45 27.2059 L1441.45 24.0462 Q1441.45 16.471 1444.98 13.0277 Q1448.5 9.54393 1456.16 9.54393 L1463.21 9.54393 Z" fill="#000000" fill-rule="nonzero" fill-opacity="1" /><path clip-path="url(#clip410)" d="M1490.06 49.7694 Q1481.03 49.7694 1477.55 51.8354 Q1474.06 53.9013 1474.06 58.8839 Q1474.06 62.8538 1476.66 65.2034 Q1479.29 67.5124 1483.78 67.5124 Q1489.98 67.5124 1493.71 63.1374 Q1497.48 58.7219 1497.48 51.4303 L1497.48 49.7694 L1490.06 49.7694 M1504.93 46.6907 L1504.93 72.576 L1497.48 72.576 L1497.48 65.6895 Q1494.92 69.8214 1491.12 71.8063 Q1487.31 73.7508 1481.8 73.7508 Q1474.83 73.7508 1470.7 69.8619 Q1466.61 65.9325 1466.61 59.3701 Q1466.61 51.7138 1471.71 47.825 Q1476.86 43.9361 1487.03 43.9361 L1497.48 43.9361 L1497.48 43.2069 Q1497.48 38.0623 1494.07 35.2672 Q1490.71 32.4315 1484.6 32.4315 Q1480.71 32.4315 1477.02 33.3632 Q1473.33 34.295 1469.93 36.1584 L1469.93 29.2718 Q1474.02 27.692 1477.87 26.9223 Q1481.72 26.1121 1485.36 26.1121 Q1495.21 26.1121 1500.07 31.2163 Q1504.93 36.3204 1504.93 46.6907 Z" fill="#000000" fill-rule="nonzero" fill-opacity="1" /><path clip-path="url(#clip410)" d="M1519.51 54.671 L1519.51 27.2059 L1526.97 27.2059 L1526.97 54.3874 Q1526.97 60.8284 1529.48 64.0691 Q1531.99 67.2693 1537.01 67.2693 Q1543.05 67.2693 1546.53 63.421 Q1550.06 59.5726 1550.06 52.9291 L1550.06 27.2059 L1557.51 27.2059 L1557.51 72.576 L1550.06 72.576 L1550.06 65.6084 Q1547.34 69.7404 1543.74 71.7658 Q1540.17 73.7508 1535.43 73.7508 Q1527.62 73.7508 1523.56 68.8897 Q1519.51 64.0286 1519.51 54.671 M1538.27 26.1121 L1538.27 26.1121 Z" fill="#000000" fill-rule="nonzero" fill-opacity="1" /><path clip-path="url(#clip410)" d="M1572.86 9.54393 L1580.32 9.54393 L1580.32 72.576 L1572.86 72.576 L1572.86 9.54393 Z" fill="#000000" fill-rule="nonzero" fill-opacity="1" /><path clip-path="url(#clip410)" d="M1603.29 14.324 L1603.29 27.2059 L1618.64 27.2059 L1618.64 32.9987 L1603.29 32.9987 L1603.29 57.6282 Q1603.29 63.1779 1604.79 64.7578 Q1606.32 66.3376 1610.98 66.3376 L1618.64 66.3376 L1618.64 72.576 L1610.98 72.576 Q1602.35 72.576 1599.07 69.3758 Q1595.79 66.1351 1595.79 57.6282 L1595.79 32.9987 L1590.32 32.9987 L1590.32 27.2059 L1595.79 27.2059 L1595.79 14.324 L1603.29 14.324 Z" fill="#000000" fill-rule="nonzero" fill-opacity="1" /><path clip-path="url(#clip410)" d="M1677.78 9.54393 L1677.78 15.7418 L1670.65 15.7418 Q1666.64 15.7418 1665.06 17.3622 Q1663.52 18.9825 1663.52 23.1955 L1663.52 27.2059 L1675.8 27.2059 L1675.8 32.9987 L1663.52 32.9987 L1663.52 72.576 L1656.03 72.576 L1656.03 32.9987 L1648.9 32.9987 L1648.9 27.2059 L1656.03 27.2059 L1656.03 24.0462 Q1656.03 16.471 1659.55 13.0277 Q1663.08 9.54393 1670.73 9.54393 L1677.78 9.54393 Z" fill="#000000" fill-rule="nonzero" fill-opacity="1" /><path clip-path="url(#clip410)" d="M1684.02 27.2059 L1691.47 27.2059 L1691.47 72.576 L1684.02 72.576 L1684.02 27.2059 M1684.02 9.54393 L1691.47 9.54393 L1691.47 18.9825 L1684.02 18.9825 L1684.02 9.54393 Z" fill="#000000" fill-rule="nonzero" fill-opacity="1" /><path clip-path="url(#clip410)" d="M1733.36 34.1734 Q1732.11 33.4443 1730.61 33.1202 Q1729.15 32.7556 1727.37 32.7556 Q1721.05 32.7556 1717.64 36.8875 Q1714.28 40.9789 1714.28 48.6757 L1714.28 72.576 L1706.79 72.576 L1706.79 27.2059 L1714.28 27.2059 L1714.28 34.2544 Q1716.63 30.1225 1720.4 28.1376 Q1724.17 26.1121 1729.55 26.1121 Q1730.32 26.1121 1731.25 26.2337 Q1732.19 26.3147 1733.32 26.5172 L1733.36 34.1734 Z" fill="#000000" fill-rule="nonzero" fill-opacity="1" /><path clip-path="url(#clip410)" d="M1775.04 35.9153 Q1777.84 30.8922 1781.73 28.5022 Q1785.62 26.1121 1790.88 26.1121 Q1797.97 26.1121 1801.82 31.0947 Q1805.67 36.0368 1805.67 45.1919 L1805.67 72.576 L1798.18 72.576 L1798.18 45.4349 Q1798.18 38.913 1795.87 35.7533 Q1793.56 32.5936 1788.82 32.5936 Q1783.03 32.5936 1779.66 36.4419 Q1776.3 40.2903 1776.3 46.9338 L1776.3 72.576 L1768.81 72.576 L1768.81 45.4349 Q1768.81 38.8725 1766.5 35.7533 Q1764.19 32.5936 1759.37 32.5936 Q1753.66 32.5936 1750.29 36.4824 Q1746.93 40.3308 1746.93 46.9338 L1746.93 72.576 L1739.44 72.576 L1739.44 27.2059 L1746.93 27.2059 L1746.93 34.2544 Q1749.48 30.082 1753.05 28.0971 Q1756.61 26.1121 1761.51 26.1121 Q1766.46 26.1121 1769.9 28.6237 Q1773.38 31.1352 1775.04 35.9153 Z" fill="#000000" fill-rule="nonzero" fill-opacity="1" /><path clip-path="url(#clip410)" d="M1816.77 46.5287 L1838.6 46.5287 L1838.6 53.1722 L1816.77 53.1722 L1816.77 46.5287 Z" fill="#000000" fill-rule="nonzero" fill-opacity="1" /><path clip-path="url(#clip410)" d="M1879.4 28.5427 L1879.4 35.5912 Q1876.24 33.9709 1872.83 33.1607 Q1869.43 32.3505 1865.79 32.3505 Q1860.24 32.3505 1857.44 34.0519 Q1854.69 35.7533 1854.69 39.156 Q1854.69 41.7486 1856.67 43.2475 Q1858.66 44.7058 1864.65 46.0426 L1867.2 46.6097 Q1875.14 48.3111 1878.46 51.4303 Q1881.83 54.509 1881.83 60.0587 Q1881.83 66.3781 1876.8 70.0644 Q1871.82 73.7508 1863.07 73.7508 Q1859.43 73.7508 1855.46 73.0216 Q1851.53 72.3329 1847.15 70.9151 L1847.15 63.2184 Q1851.28 65.3654 1855.29 66.4591 Q1859.3 67.5124 1863.23 67.5124 Q1868.5 67.5124 1871.33 65.73 Q1874.17 63.9071 1874.17 60.6258 Q1874.17 57.5877 1872.1 55.9673 Q1870.08 54.3469 1863.15 52.8481 L1860.56 52.2405 Q1853.63 50.7821 1850.55 47.7845 Q1847.48 44.7463 1847.48 39.4801 Q1847.48 33.0797 1852.01 29.5959 Q1856.55 26.1121 1864.89 26.1121 Q1869.03 26.1121 1872.67 26.7198 Q1876.32 27.3274 1879.4 28.5427 Z" fill="#000000" fill-rule="nonzero" fill-opacity="1" /><path clip-path="url(#clip410)" d="M1931.41 45.1919 L1931.41 72.576 L1923.96 72.576 L1923.96 45.4349 Q1923.96 38.994 1921.44 35.7938 Q1918.93 32.5936 1913.91 32.5936 Q1907.87 32.5936 1904.39 36.4419 Q1900.91 40.2903 1900.91 46.9338 L1900.91 72.576 L1893.41 72.576 L1893.41 9.54393 L1900.91 9.54393 L1900.91 34.2544 Q1903.58 30.163 1907.19 28.1376 Q1910.83 26.1121 1915.57 26.1121 Q1923.39 26.1121 1927.4 30.9732 Q1931.41 35.7938 1931.41 45.1919 Z" fill="#000000" fill-rule="nonzero" fill-opacity="1" /><path clip-path="url(#clip410)" d="M1963.86 32.4315 Q1957.86 32.4315 1954.38 37.1306 Q1950.89 41.7891 1950.89 49.9314 Q1950.89 58.0738 1954.34 62.7728 Q1957.82 67.4314 1963.86 67.4314 Q1969.81 67.4314 1973.3 62.7323 Q1976.78 58.0333 1976.78 49.9314 Q1976.78 41.8701 1973.3 37.1711 Q1969.81 32.4315 1963.86 32.4315 M1963.86 26.1121 Q1973.58 26.1121 1979.13 32.4315 Q1984.68 38.7509 1984.68 49.9314 Q1984.68 61.0714 1979.13 67.4314 Q1973.58 73.7508 1963.86 73.7508 Q1954.09 73.7508 1948.55 67.4314 Q1943.04 61.0714 1943.04 49.9314 Q1943.04 38.7509 1948.55 32.4315 Q1954.09 26.1121 1963.86 26.1121 Z" fill="#000000" fill-rule="nonzero" fill-opacity="1" /><path clip-path="url(#clip410)" d="M2029.68 28.9478 L2029.68 35.9153 Q2026.52 34.1734 2023.32 33.3227 Q2020.17 32.4315 2016.92 32.4315 Q2009.67 32.4315 2005.66 37.0496 Q2001.65 41.6271 2001.65 49.9314 Q2001.65 58.2358 2005.66 62.8538 Q2009.67 67.4314 2016.92 67.4314 Q2020.17 67.4314 2023.32 66.5807 Q2026.52 65.6895 2029.68 63.9476 L2029.68 70.8341 Q2026.57 72.2924 2023.2 73.0216 Q2019.88 73.7508 2016.11 73.7508 Q2005.87 73.7508 1999.83 67.3098 Q1993.79 60.8689 1993.79 49.9314 Q1993.79 38.832 1999.87 32.472 Q2005.99 26.1121 2016.6 26.1121 Q2020.04 26.1121 2023.32 26.8413 Q2026.61 27.5299 2029.68 28.9478 Z" fill="#000000" fill-rule="nonzero" fill-opacity="1" /><path clip-path="url(#clip410)" d="M2042.36 9.54393 L2049.86 9.54393 L2049.86 46.7717 L2072.1 27.2059 L2081.62 27.2059 L2057.55 48.4326 L2082.63 72.576 L2072.91 72.576 L2049.86 50.4176 L2049.86 72.576 L2042.36 72.576 L2042.36 9.54393 Z" fill="#000000" fill-rule="nonzero" fill-opacity="1" /><path clip-path="url(#clip410)" d="M2117.39 12.096 L2155.63 12.096 L2155.63 18.9825 L2125.57 18.9825 L2125.57 36.8875 L2154.37 36.8875 L2154.37 43.7741 L2125.57 43.7741 L2125.57 65.6895 L2156.36 65.6895 L2156.36 72.576 L2117.39 72.576 L2117.39 12.096 Z" fill="#000000" fill-rule="nonzero" fill-opacity="1" /><path clip-path="url(#clip410)" d="M2206.06 14.0809 L2206.06 22.0612 Q2201.4 19.8332 2197.27 18.7395 Q2193.14 17.6457 2189.29 17.6457 Q2182.61 17.6457 2178.96 20.2383 Q2175.36 22.8309 2175.36 27.611 Q2175.36 31.6214 2177.75 33.6873 Q2180.18 35.7128 2186.9 36.9686 L2191.84 37.9813 Q2201 39.7232 2205.33 44.1387 Q2209.71 48.5136 2209.71 55.8863 Q2209.71 64.6767 2203.79 69.2137 Q2197.92 73.7508 2186.54 73.7508 Q2182.24 73.7508 2177.38 72.7785 Q2172.56 71.8063 2167.37 69.9024 L2167.37 61.4765 Q2172.36 64.2716 2177.14 65.6895 Q2181.92 67.1073 2186.54 67.1073 Q2193.54 67.1073 2197.35 64.3527 Q2201.16 61.598 2201.16 56.4939 Q2201.16 52.0379 2198.4 49.5264 Q2195.69 47.0148 2189.45 45.759 L2184.47 44.7868 Q2175.31 42.9639 2171.22 39.075 Q2167.13 35.1862 2167.13 28.2591 Q2167.13 20.2383 2172.76 15.6203 Q2178.43 11.0023 2188.36 11.0023 Q2192.61 11.0023 2197.03 11.7719 Q2201.44 12.5416 2206.06 14.0809 Z" fill="#000000" fill-rule="nonzero" fill-opacity="1" /><path clip-path="url(#clip410)" d="M2251.15 44.2197 Q2253.78 45.1109 2256.25 48.0275 Q2258.76 50.9442 2261.27 56.0483 L2269.58 72.576 L2260.79 72.576 L2253.05 57.061 Q2250.05 50.9847 2247.22 48.9997 Q2244.42 47.0148 2239.56 47.0148 L2230.65 47.0148 L2230.65 72.576 L2222.47 72.576 L2222.47 12.096 L2240.94 12.096 Q2251.31 12.096 2256.41 16.4305 Q2261.52 20.7649 2261.52 29.5149 Q2261.52 35.2267 2258.84 38.994 Q2256.21 42.7613 2251.15 44.2197 M2230.65 18.8205 L2230.65 40.2903 L2240.94 40.2903 Q2246.85 40.2903 2249.85 37.5762 Q2252.89 34.8216 2252.89 29.5149 Q2252.89 24.2082 2249.85 21.5346 Q2246.85 18.8205 2240.94 18.8205 L2230.65 18.8205 Z" fill="#000000" fill-rule="nonzero" fill-opacity="1" /><path clip-path="url(#clip410)" d="M2280.11 12.096 L2288.29 12.096 L2288.29 72.576 L2280.11 72.576 L2280.11 12.096 Z" fill="#000000" fill-rule="nonzero" fill-opacity="1" /><path clip-path="url(#clip410)" d="M2359.55 28.5427 L2359.55 35.5912 Q2356.39 33.9709 2352.99 33.1607 Q2349.58 32.3505 2345.94 32.3505 Q2340.39 32.3505 2337.59 34.0519 Q2334.84 35.7533 2334.84 39.156 Q2334.84 41.7486 2336.82 43.2475 Q2338.81 44.7058 2344.8 46.0426 L2347.36 46.6097 Q2355.3 48.3111 2358.62 51.4303 Q2361.98 54.509 2361.98 60.0587 Q2361.98 66.3781 2356.96 70.0644 Q2351.97 73.7508 2343.22 73.7508 Q2339.58 73.7508 2335.61 73.0216 Q2331.68 72.3329 2327.3 70.9151 L2327.3 63.2184 Q2331.44 65.3654 2335.45 66.4591 Q2339.46 67.5124 2343.39 67.5124 Q2348.65 67.5124 2351.49 65.73 Q2354.32 63.9071 2354.32 60.6258 Q2354.32 57.5877 2352.26 55.9673 Q2350.23 54.3469 2343.31 52.8481 L2340.71 52.2405 Q2333.79 50.7821 2330.71 47.7845 Q2327.63 44.7463 2327.63 39.4801 Q2327.63 33.0797 2332.17 29.5959 Q2336.7 26.1121 2345.05 26.1121 Q2349.18 26.1121 2352.83 26.7198 Q2356.47 27.3274 2359.55 28.5427 Z" fill="#000000" fill-rule="nonzero" fill-opacity="1" /><path clip-path="url(#clip410)" d="M2406.5 28.9478 L2406.5 35.9153 Q2403.34 34.1734 2400.14 33.3227 Q2396.98 32.4315 2393.74 32.4315 Q2386.49 32.4315 2382.48 37.0496 Q2378.47 41.6271 2378.47 49.9314 Q2378.47 58.2358 2382.48 62.8538 Q2386.49 67.4314 2393.74 67.4314 Q2396.98 67.4314 2400.14 66.5807 Q2403.34 65.6895 2406.5 63.9476 L2406.5 70.8341 Q2403.38 72.2924 2400.02 73.0216 Q2396.7 73.7508 2392.93 73.7508 Q2382.68 73.7508 2376.64 67.3098 Q2370.61 60.8689 2370.61 49.9314 Q2370.61 38.832 2376.69 32.472 Q2382.8 26.1121 2393.42 26.1121 Q2396.86 26.1121 2400.14 26.8413 Q2403.42 27.5299 2406.5 28.9478 Z" fill="#000000" fill-rule="nonzero" fill-opacity="1" /><path clip-path="url(#clip410)" d="M2437.04 32.4315 Q2431.05 32.4315 2427.56 37.1306 Q2424.08 41.7891 2424.08 49.9314 Q2424.08 58.0738 2427.52 62.7728 Q2431.01 67.4314 2437.04 67.4314 Q2443 67.4314 2446.48 62.7323 Q2449.97 58.0333 2449.97 49.9314 Q2449.97 41.8701 2446.48 37.1711 Q2443 32.4315 2437.04 32.4315 M2437.04 26.1121 Q2446.77 26.1121 2452.32 32.4315 Q2457.87 38.7509 2457.87 49.9314 Q2457.87 61.0714 2452.32 67.4314 Q2446.77 73.7508 2437.04 73.7508 Q2427.28 73.7508 2421.73 67.4314 Q2416.22 61.0714 2416.22 49.9314 Q2416.22 38.7509 2421.73 32.4315 Q2427.28 26.1121 2437.04 26.1121 Z" fill="#000000" fill-rule="nonzero" fill-opacity="1" /><path clip-path="url(#clip410)" d="M2496.51 34.1734 Q2495.26 33.4443 2493.76 33.1202 Q2492.3 32.7556 2490.52 32.7556 Q2484.2 32.7556 2480.79 36.8875 Q2477.43 40.9789 2477.43 48.6757 L2477.43 72.576 L2469.94 72.576 L2469.94 27.2059 L2477.43 27.2059 L2477.43 34.2544 Q2479.78 30.1225 2483.55 28.1376 Q2487.32 26.1121 2492.7 26.1121 Q2493.47 26.1121 2494.4 26.2337 Q2495.34 26.3147 2496.47 26.5172 L2496.51 34.1734 Z" fill="#000000" fill-rule="nonzero" fill-opacity="1" /><path clip-path="url(#clip410)" d="M2541.31 48.0275 L2541.31 51.6733 L2507.04 51.6733 Q2507.53 59.3701 2511.66 63.421 Q2515.83 67.4314 2523.25 67.4314 Q2527.54 67.4314 2531.55 66.3781 Q2535.6 65.3249 2539.57 63.2184 L2539.57 70.267 Q2535.56 71.9684 2531.35 72.8596 Q2527.14 73.7508 2522.8 73.7508 Q2511.94 73.7508 2505.58 67.4314 Q2499.27 61.1119 2499.27 50.3365 Q2499.27 39.1965 2505.26 32.6746 Q2511.3 26.1121 2521.5 26.1121 Q2530.66 26.1121 2535.97 32.0264 Q2541.31 37.9003 2541.31 48.0275 M2533.86 45.84 Q2533.78 39.7232 2530.42 36.0774 Q2527.1 32.4315 2521.59 32.4315 Q2515.35 32.4315 2511.58 35.9558 Q2507.85 39.4801 2507.29 45.8805 L2533.86 45.84 Z" fill="#000000" fill-rule="nonzero" fill-opacity="1" /><path clip-path="url(#clip410)" d="M2582.47 28.5427 L2582.47 35.5912 Q2579.31 33.9709 2575.91 33.1607 Q2572.51 32.3505 2568.86 32.3505 Q2563.31 32.3505 2560.52 34.0519 Q2557.76 35.7533 2557.76 39.156 Q2557.76 41.7486 2559.75 43.2475 Q2561.73 44.7058 2567.73 46.0426 L2570.28 46.6097 Q2578.22 48.3111 2581.54 51.4303 Q2584.9 54.509 2584.9 60.0587 Q2584.9 66.3781 2579.88 70.0644 Q2574.9 73.7508 2566.15 73.7508 Q2562.5 73.7508 2558.53 73.0216 Q2554.6 72.3329 2550.23 70.9151 L2550.23 63.2184 Q2554.36 65.3654 2558.37 66.4591 Q2562.38 67.5124 2566.31 67.5124 Q2571.57 67.5124 2574.41 65.73 Q2577.25 63.9071 2577.25 60.6258 Q2577.25 57.5877 2575.18 55.9673 Q2573.15 54.3469 2566.23 52.8481 L2563.63 52.2405 Q2556.71 50.7821 2553.63 47.7845 Q2550.55 44.7463 2550.55 39.4801 Q2550.55 33.0797 2555.09 29.5959 Q2559.62 26.1121 2567.97 26.1121 Q2572.1 26.1121 2575.75 26.7198 Q2579.39 27.3274 2582.47 28.5427 Z" fill="#000000" fill-rule="nonzero" fill-opacity="1" /><path clip-path="url(#clip412)" d="M459.725 113.127 L459.725 1453.43 L658.525 1453.43 L658.525 113.127 L459.725 113.127 L459.725 113.127  Z" fill="#4682b4" fill-rule="evenodd" fill-opacity="0.85"/>
<polyline clip-path="url(#clip412)" style="stroke:#ffffff; stroke-linecap:round; stroke-linejoin:round; stroke-width:0; stroke-opacity:0.85; fill:none" points="459.725,113.127 459.725,1453.43 658.525,1453.43 658.525,113.127 459.725,113.127 "/>
<path clip-path="url(#clip412)" d="M658.525 1383.84 L658.525 1453.43 L857.325 1453.43 L857.325 1383.84 L658.525 1383.84 L658.525 1383.84  Z" fill="#4682b4" fill-rule="evenodd" fill-opacity="0.85"/>
<polyline clip-path="url(#clip412)" style="stroke:#ffffff; stroke-linecap:round; stroke-linejoin:round; stroke-width:0; stroke-opacity:0.85; fill:none" points="658.525,1383.84 658.525,1453.43 857.325,1453.43 857.325,1383.84 658.525,1383.84 "/>
<path clip-path="url(#clip412)" d="M857.325 1417.34 L857.325 1453.43 L1056.12 1453.43 L1056.12 1417.34 L857.325 1417.34 L857.325 1417.34  Z" fill="#4682b4" fill-rule="evenodd" fill-opacity="0.85"/>
<polyline clip-path="url(#clip412)" style="stroke:#ffffff; stroke-linecap:round; stroke-linejoin:round; stroke-width:0; stroke-opacity:0.85; fill:none" points="857.325,1417.34 857.325,1453.43 1056.12,1453.43 1056.12,1417.34 857.325,1417.34 "/>
<path clip-path="url(#clip412)" d="M1056.12 1417.34 L1056.12 1453.43 L1254.93 1453.43 L1254.93 1417.34 L1056.12 1417.34 L1056.12 1417.34  Z" fill="#4682b4" fill-rule="evenodd" fill-opacity="0.85"/>
<polyline clip-path="url(#clip412)" style="stroke:#ffffff; stroke-linecap:round; stroke-linejoin:round; stroke-width:0; stroke-opacity:0.85; fill:none" points="1056.12,1417.34 1056.12,1453.43 1254.93,1453.43 1254.93,1417.34 1056.12,1417.34 "/>
<path clip-path="url(#clip412)" d="M1254.93 925.04 L1254.93 1453.43 L1453.73 1453.43 L1453.73 925.04 L1254.93 925.04 L1254.93 925.04  Z" fill="#4682b4" fill-rule="evenodd" fill-opacity="0.85"/>
<polyline clip-path="url(#clip412)" style="stroke:#ffffff; stroke-linecap:round; stroke-linejoin:round; stroke-width:0; stroke-opacity:0.85; fill:none" points="1254.93,925.04 1254.93,1453.43 1453.73,1453.43 1453.73,925.04 1254.93,925.04 "/>
<path clip-path="url(#clip412)" d="M1453.73 1154.44 L1453.73 1453.43 L1652.53 1453.43 L1652.53 1154.44 L1453.73 1154.44 L1453.73 1154.44  Z" fill="#4682b4" fill-rule="evenodd" fill-opacity="0.85"/>
<polyline clip-path="url(#clip412)" style="stroke:#ffffff; stroke-linecap:round; stroke-linejoin:round; stroke-width:0; stroke-opacity:0.85; fill:none" points="1453.73,1154.44 1453.73,1453.43 1652.53,1453.43 1652.53,1154.44 1453.73,1154.44 "/>
<path clip-path="url(#clip412)" d="M1652.53 1301.36 L1652.53 1453.43 L1851.33 1453.43 L1851.33 1301.36 L1652.53 1301.36 L1652.53 1301.36  Z" fill="#4682b4" fill-rule="evenodd" fill-opacity="0.85"/>
<polyline clip-path="url(#clip412)" style="stroke:#ffffff; stroke-linecap:round; stroke-linejoin:round; stroke-width:0; stroke-opacity:0.85; fill:none" points="1652.53,1301.36 1652.53,1453.43 1851.33,1453.43 1851.33,1301.36 1652.53,1301.36 "/>
<path clip-path="url(#clip412)" d="M1851.33 1368.37 L1851.33 1453.43 L2050.13 1453.43 L2050.13 1368.37 L1851.33 1368.37 L1851.33 1368.37  Z" fill="#4682b4" fill-rule="evenodd" fill-opacity="0.85"/>
<polyline clip-path="url(#clip412)" style="stroke:#ffffff; stroke-linecap:round; stroke-linejoin:round; stroke-width:0; stroke-opacity:0.85; fill:none" points="1851.33,1368.37 1851.33,1453.43 2050.13,1453.43 2050.13,1368.37 1851.33,1368.37 "/>
<path clip-path="url(#clip412)" d="M2050.13 1435.39 L2050.13 1453.43 L2248.93 1453.43 L2248.93 1435.39 L2050.13 1435.39 L2050.13 1435.39  Z" fill="#4682b4" fill-rule="evenodd" fill-opacity="0.85"/>
<polyline clip-path="url(#clip412)" style="stroke:#ffffff; stroke-linecap:round; stroke-linejoin:round; stroke-width:0; stroke-opacity:0.85; fill:none" points="2050.13,1435.39 2050.13,1453.43 2248.93,1453.43 2248.93,1435.39 2050.13,1435.39 "/>
<path clip-path="url(#clip412)" d="M2248.93 1445.7 L2248.93 1453.43 L2447.73 1453.43 L2447.73 1445.7 L2248.93 1445.7 L2248.93 1445.7  Z" fill="#4682b4" fill-rule="evenodd" fill-opacity="0.85"/>
<polyline clip-path="url(#clip412)" style="stroke:#ffffff; stroke-linecap:round; stroke-linejoin:round; stroke-width:0; stroke-opacity:0.85; fill:none" points="2248.93,1445.7 2248.93,1453.43 2447.73,1453.43 2447.73,1445.7 2248.93,1445.7 "/>
<path clip-path="url(#clip412)" d="M2447.73 1450.85 L2447.73 1453.43 L2646.53 1453.43 L2646.53 1450.85 L2447.73 1450.85 L2447.73 1450.85  Z" fill="#4682b4" fill-rule="evenodd" fill-opacity="0.85"/>
<polyline clip-path="url(#clip412)" style="stroke:#ffffff; stroke-linecap:round; stroke-linejoin:round; stroke-width:0; stroke-opacity:0.85; fill:none" points="2447.73,1450.85 2447.73,1453.43 2646.53,1453.43 2646.53,1450.85 2447.73,1450.85 "/>
<path clip-path="url(#clip412)" d="M2646.53 1450.85 L2646.53 1453.43 L2845.33 1453.43 L2845.33 1450.85 L2646.53 1450.85 L2646.53 1450.85  Z" fill="#4682b4" fill-rule="evenodd" fill-opacity="0.85"/>
<polyline clip-path="url(#clip412)" style="stroke:#ffffff; stroke-linecap:round; stroke-linejoin:round; stroke-width:0; stroke-opacity:0.85; fill:none" points="2646.53,1450.85 2646.53,1453.43 2845.33,1453.43 2845.33,1450.85 2646.53,1450.85 "/>
<circle clip-path="url(#clip412)" style="fill:#4682b4; stroke:none; fill-opacity:0" cx="559.125" cy="113.127" r="2"/>
<circle clip-path="url(#clip412)" style="fill:#4682b4; stroke:none; fill-opacity:0" cx="757.925" cy="1383.84" r="2"/>
<circle clip-path="url(#clip412)" style="fill:#4682b4; stroke:none; fill-opacity:0" cx="956.725" cy="1417.34" r="2"/>
<circle clip-path="url(#clip412)" style="fill:#4682b4; stroke:none; fill-opacity:0" cx="1155.53" cy="1417.34" r="2"/>
<circle clip-path="url(#clip412)" style="fill:#4682b4; stroke:none; fill-opacity:0" cx="1354.33" cy="925.04" r="2"/>
<circle clip-path="url(#clip412)" style="fill:#4682b4; stroke:none; fill-opacity:0" cx="1553.13" cy="1154.44" r="2"/>
<circle clip-path="url(#clip412)" style="fill:#4682b4; stroke:none; fill-opacity:0" cx="1751.93" cy="1301.36" r="2"/>
<circle clip-path="url(#clip412)" style="fill:#4682b4; stroke:none; fill-opacity:0" cx="1950.73" cy="1368.37" r="2"/>
<circle clip-path="url(#clip412)" style="fill:#4682b4; stroke:none; fill-opacity:0" cx="2149.53" cy="1435.39" r="2"/>
<circle clip-path="url(#clip412)" style="fill:#4682b4; stroke:none; fill-opacity:0" cx="2348.33" cy="1445.7" r="2"/>
<circle clip-path="url(#clip412)" style="fill:#4682b4; stroke:none; fill-opacity:0" cx="2547.13" cy="1450.85" r="2"/>
<circle clip-path="url(#clip412)" style="fill:#4682b4; stroke:none; fill-opacity:0" cx="2745.93" cy="1450.85" r="2"/>
</svg>
