<?xml version="1.0" encoding="utf-8"?>
<svg xmlns="http://www.w3.org/2000/svg" xmlns:xlink="http://www.w3.org/1999/xlink" width="760" height="420" viewBox="0 0 3040 1680">
<defs>
  <clipPath id="clip470">
    <rect x="0" y="0" width="3040" height="1680"/>
  </clipPath>
</defs>
<path clip-path="url(#clip470)" d="M0 1680 L3040 1680 L3040 9.14356e-14 L0 9.14356e-14  Z" fill="#ffffff" fill-rule="evenodd" fill-opacity="1"/>
<defs>
  <clipPath id="clip471">
    <rect x="282" y="113" width="2712" height="1341"/>
  </clipPath>
</defs>
<path clip-path="url(#clip470)" d="M252.457 1453.43 L2992.76 1453.43 L2992.76 113.127 L252.457 113.127  Z" fill="#ffffff" fill-rule="evenodd" fill-opacity="1"/>
<defs>
  <clipPath id="clip472">
    <rect x="252" y="113" width="2741" height="1341"/>
  </clipPath>
</defs>
<polyline clip-path="url(#clip472)" style="stroke:#000000; stroke-linecap:round; stroke-linejoin:round; stroke-width:2; stroke-opacity:0.1; fill:none" points="252.457,1453.43 2992.76,1453.43 "/>
<polyline clip-path="url(#clip472)" style="stroke:#000000; stroke-linecap:round; stroke-linejoin:round; stroke-width:2; stroke-opacity:0.1; fill:none" points="252.457,1261.96 2992.76,1261.96 "/>
<polyline clip-path="url(#clip472)" style="stroke:#000000; stroke-linecap:round; stroke-linejoin:round; stroke-width:2; stroke-opacity:0.1; fill:none" points="252.457,1070.48 2992.76,1070.48 "/>
<polyline clip-path="url(#clip472)" style="stroke:#000000; stroke-linecap:round; stroke-linejoin:round; stroke-width:2; stroke-opacity:0.1; fill:none" points="252.457,879.013 2992.76,879.013 "/>
<polyline clip-path="url(#clip472)" style="stroke:#000000; stroke-linecap:round; stroke-linejoin:round; stroke-width:2; stroke-opacity:0.1; fill:none" points="252.457,687.542 2992.76,687.542 "/>
<polyline clip-path="url(#clip472)" style="stroke:#000000; stroke-linecap:round; stroke-linejoin:round; stroke-width:2; stroke-opacity:0.1; fill:none" points="252.457,496.07 2992.76,496.07 "/>
<polyline clip-path="url(#clip472)" style="stroke:#000000; stroke-linecap:round; stroke-linejoin:round; stroke-width:2; stroke-opacity:0.1; fill:none" points="252.457,304.598 2992.76,304.598 "/>
<polyline clip-path="url(#clip472)" style="stroke:#000000; stroke-linecap:round; stroke-linejoin:round; stroke-width:2; stroke-opacity:0.1; fill:none" points="252.457,113.127 2992.76,113.127 "/>
<polyline clip-path="url(#clip472)" style="stroke:#000000; stroke-linecap:round; stroke-linejoin:round; stroke-width:2; stroke-opacity:0.1; fill:none" points="252.457,1453.43 2992.76,1453.43 "/>
<polyline clip-path="url(#clip472)" style="stroke:#000000; stroke-linecap:round; stroke-linejoin:round; stroke-width:2; stroke-opacity:0.1; fill:none" points="252.457,1261.96 2992.76,1261.96 "/>
<polyline clip-path="url(#clip472)" style="stroke:#000000; stroke-linecap:round; stroke-linejoin:round; stroke-width:2; stroke-opacity:0.1; fill:none" points="252.457,1070.48 2992.76,1070.48 "/>
<polyline clip-path="url(#clip472)" style="stroke:#000000; stroke-linecap:round; stroke-linejoin:round; stroke-width:2; stroke-opacity:0.1; fill:none" points="252.457,879.013 2992.76,879.013 "/>
<polyline clip-path="url(#clip472)" style="stroke:#000000; stroke-linecap:round; stroke-linejoin:round; stroke-width:2; stroke-opacity:0.1; fill:none" points="252.457,687.542 2992.76,687.542 "/>
<polyline clip-path="url(#clip472)" style="stroke:#000000; stroke-linecap:round; stroke-linejoin:round; stroke-width:2; stroke-opacity:0.1; fill:none" points="252.457,496.07 2992.76,496.07 "/>
<polyline clip-path="url(#clip472)" style="stroke:#000000; stroke-linecap:round; stroke-linejoin:round; stroke-width:2; stroke-opacity:0.1; fill:none" points="252.457,304.598 2992.76,304.598 "/>
<polyline clip-path="url(#clip472)" style="stroke:#000000; stroke-linecap:round; stroke-linejoin:round; stroke-width:2; stroke-opacity:0.1; fill:none" points="252.457,113.127 2992.76,113.127 "/>
<polyline clip-path="url(#clip470)" style="stroke:#000000; stroke-linecap:round; stroke-linejoin:round; stroke-width:4; stroke-opacity:1; fill:none" points="252.457,1453.43 2992.76,1453.43 "/>
<polyline clip-path="url(#clip470)" style="stroke:#000000; stroke-linecap:round; stroke-linejoin:round; stroke-width:4; stroke-opacity:1; fill:none" points="252.457,113.127 2992.76,113.127 "/>
<polyline clip-path="url(#clip470)" style="stroke:#000000; stroke-linecap:round; stroke-linejoin:round; stroke-width:4; stroke-opacity:1; fill:none" points="403.178,1453.43 403.178,1434.53 "/>
<polyline clip-path="url(#clip470)" style="stroke:#000000; stroke-linecap:round; stroke-linejoin:round; stroke-width:4; stroke-opacity:1; fill:none" points="1080.64,1453.43 1080.64,1434.53 "/>
<polyline clip-path="url(#clip470)" style="stroke:#000000; stroke-linecap:round; stroke-linejoin:round; stroke-width:4; stroke-opacity:1; fill:none" points="1758.1,1453.43 1758.1,1434.53 "/>
<polyline clip-path="url(#clip470)" style="stroke:#000000; stroke-linecap:round; stroke-linejoin:round; stroke-width:4; stroke-opacity:1; fill:none" points="2435.56,1453.43 2435.56,1434.53 "/>
<polyline clip-path="url(#clip470)" style="stroke:#000000; stroke-linecap:round; stroke-linejoin:round; stroke-width:4; stroke-opacity:1; fill:none" points="403.178,113.127 403.178,132.025 "/>
<polyline clip-path="url(#clip470)" style="stroke:#000000; stroke-linecap:round; stroke-linejoin:round; stroke-width:4; stroke-opacity:1; fill:none" points="1080.64,113.127 1080.64,132.025 "/>
<polyline clip-path="url(#clip470)" style="stroke:#000000; stroke-linecap:round; stroke-linejoin:round; stroke-width:4; stroke-opacity:1; fill:none" points="1758.1,113.127 1758.1,132.025 "/>
<polyline clip-path="url(#clip470)" style="stroke:#000000; stroke-linecap:round; stroke-linejoin:round; stroke-width:4; stroke-opacity:1; fill:none" points="2435.56,113.127 2435.56,132.025 "/>
<path clip-path="url(#clip470)" d="M365.482 1489.47 Q361.871 1489.47 360.042 1493.03 Q358.236 1496.57 358.236 1503.7 Q358.236 1510.81 360.042 1514.37 Q361.871 1517.92 365.482 1517.92 Q369.116 1517.92 370.921 1514.37 Q372.75 1510.81 372.75 1503.7 Q372.75 1496.57 370.921 1493.03 Q369.116 1489.47 365.482 1489.47 M365.482 1485.76 Q371.292 1485.76 374.347 1490.37 Q377.426 1494.95 377.426 1503.7 Q377.426 1512.43 374.347 1517.04 Q371.292 1521.62 365.482 1521.62 Q359.672 1521.62 356.593 1517.04 Q353.537 1512.43 353.537 1503.7 Q353.537 1494.95 356.593 1490.37 Q359.672 1485.76 365.482 1485.76 Z" fill="#000000" fill-rule="nonzero" fill-opacity="1" /><path clip-path="url(#clip470)" d="M385.644 1515.07 L390.528 1515.07 L390.528 1520.95 L385.644 1520.95 L385.644 1515.07 Z" fill="#000000" fill-rule="nonzero" fill-opacity="1" /><path clip-path="url(#clip470)" d="M410.713 1489.47 Q407.102 1489.47 405.273 1493.03 Q403.468 1496.57 403.468 1503.7 Q403.468 1510.81 405.273 1514.37 Q407.102 1517.92 410.713 1517.92 Q414.347 1517.92 416.153 1514.37 Q417.981 1510.81 417.981 1503.7 Q417.981 1496.57 416.153 1493.03 Q414.347 1489.47 410.713 1489.47 M410.713 1485.76 Q416.523 1485.76 419.579 1490.37 Q422.657 1494.95 422.657 1503.7 Q422.657 1512.43 419.579 1517.04 Q416.523 1521.62 410.713 1521.62 Q404.903 1521.62 401.824 1517.04 Q398.769 1512.43 398.769 1503.7 Q398.769 1494.95 401.824 1490.37 Q404.903 1485.76 410.713 1485.76 Z" fill="#000000" fill-rule="nonzero" fill-opacity="1" /><path clip-path="url(#clip470)" d="M440.875 1489.47 Q437.264 1489.47 435.435 1493.03 Q433.629 1496.57 433.629 1503.7 Q433.629 1510.81 435.435 1514.37 Q437.264 1517.92 440.875 1517.92 Q444.509 1517.92 446.315 1514.37 Q448.143 1510.81 448.143 1503.7 Q448.143 1496.57 446.315 1493.03 Q444.509 1489.47 440.875 1489.47 M440.875 1485.76 Q446.685 1485.76 449.741 1490.37 Q452.819 1494.95 452.819 1503.7 Q452.819 1512.43 449.741 1517.04 Q446.685 1521.62 440.875 1521.62 Q435.065 1521.62 431.986 1517.04 Q428.93 1512.43 428.93 1503.7 Q428.93 1494.95 431.986 1490.37 Q435.065 1485.76 440.875 1485.76 Z" fill="#000000" fill-rule="nonzero" fill-opacity="1" /><path clip-path="url(#clip470)" d="M1043.56 1489.47 Q1039.94 1489.47 1038.12 1493.03 Q1036.31 1496.57 1036.31 1503.7 Q1036.31 1510.81 1038.12 1514.37 Q1039.94 1517.92 1043.56 1517.92 Q1047.19 1517.92 1049 1514.37 Q1050.82 1510.81 1050.82 1503.7 Q1050.82 1496.57 1049 1493.03 Q1047.19 1489.47 1043.56 1489.47 M1043.56 1485.76 Q1049.37 1485.76 1052.42 1490.37 Q1055.5 1494.95 1055.5 1503.7 Q1055.5 1512.43 1052.42 1517.04 Q1049.37 1521.62 1043.56 1521.62 Q1037.75 1521.62 1034.67 1517.04 Q1031.61 1512.43 1031.61 1503.7 Q1031.61 1494.95 1034.67 1490.37 Q1037.75 1485.76 1043.56 1485.76 Z" fill="#000000" fill-rule="nonzero" fill-opacity="1" /><path clip-path="url(#clip470)" d="M1063.72 1515.07 L1068.6 1515.07 L1068.6 1520.95 L1063.72 1520.95 L1063.72 1515.07 Z" fill="#000000" fill-rule="nonzero" fill-opacity="1" /><path clip-path="url(#clip470)" d="M1088.79 1489.47 Q1085.18 1489.47 1083.35 1493.03 Q1081.54 1496.57 1081.54 1503.7 Q1081.54 1510.81 1083.35 1514.37 Q1085.18 1517.92 1088.79 1517.92 Q1092.42 1517.92 1094.23 1514.37 Q1096.05 1510.81 1096.05 1503.7 Q1096.05 1496.57 1094.23 1493.03 Q1092.42 1489.47 1088.79 1489.47 M1088.79 1485.76 Q1094.6 1485.76 1097.65 1490.37 Q1100.73 1494.95 1100.73 1503.7 Q1100.73 1512.43 1097.65 1517.04 Q1094.6 1521.62 1088.79 1521.62 Q1082.98 1521.62 1079.9 1517.04 Q1076.84 1512.43 1076.84 1503.7 Q1076.84 1494.95 1079.9 1490.37 Q1082.98 1485.76 1088.79 1485.76 Z" fill="#000000" fill-rule="nonzero" fill-opacity="1" /><path clip-path="url(#clip470)" d="M1109.76 1517.01 L1117.4 1517.01 L1117.4 1490.65 L1109.09 1492.31 L1109.09 1488.05 L1117.35 1486.39 L1122.03 1486.39 L1122.03 1517.01 L1129.67 1517.01 L1129.67 1520.95 L1109.76 1520.95 L1109.76 1517.01 Z" fill="#000000" fill-rule="nonzero" fill-opacity="1" /><path clip-path="url(#clip470)" d="M1721.2 1489.47 Q1717.59 1489.47 1715.76 1493.03 Q1713.96 1496.57 1713.96 1503.7 Q1713.96 1510.81 1715.76 1514.37 Q1717.59 1517.92 1721.2 1517.92 Q1724.83 1517.92 1726.64 1514.37 Q1728.47 1510.81 1728.47 1503.7 Q1728.47 1496.57 1726.64 1493.03 Q1724.83 1489.47 1721.2 1489.47 M1721.2 1485.76 Q1727.01 1485.76 1730.07 1490.37 Q1733.14 1494.95 1733.14 1503.7 Q1733.14 1512.43 1730.07 1517.04 Q1727.01 1521.62 1721.2 1521.62 Q1715.39 1521.62 1712.31 1517.04 Q1709.26 1512.43 1709.26 1503.7 Q1709.26 1494.95 1712.31 1490.37 Q1715.39 1485.76 1721.2 1485.76 Z" fill="#000000" fill-rule="nonzero" fill-opacity="1" /><path clip-path="url(#clip470)" d="M1741.36 1515.07 L1746.25 1515.07 L1746.25 1520.95 L1741.36 1520.95 L1741.36 1515.07 Z" fill="#000000" fill-rule="nonzero" fill-opacity="1" /><path clip-path="url(#clip470)" d="M1766.43 1489.47 Q1762.82 1489.47 1760.99 1493.03 Q1759.19 1496.57 1759.19 1503.7 Q1759.19 1510.81 1760.99 1514.37 Q1762.82 1517.92 1766.43 1517.92 Q1770.07 1517.92 1771.87 1514.37 Q1773.7 1510.81 1773.7 1503.7 Q1773.7 1496.57 1771.87 1493.03 Q1770.07 1489.47 1766.43 1489.47 M1766.43 1485.76 Q1772.24 1485.76 1775.3 1490.37 Q1778.38 1494.95 1778.38 1503.7 Q1778.38 1512.43 1775.3 1517.04 Q1772.24 1521.62 1766.43 1521.62 Q1760.62 1521.62 1757.54 1517.04 Q1754.49 1512.43 1754.49 1503.7 Q1754.49 1494.95 1757.54 1490.37 Q1760.62 1485.76 1766.43 1485.76 Z" fill="#000000" fill-rule="nonzero" fill-opacity="1" /><path clip-path="url(#clip470)" d="M1790.62 1517.01 L1806.94 1517.01 L1806.94 1520.95 L1785 1520.95 L1785 1517.01 Q1787.66 1514.26 1792.24 1509.63 Q1796.85 1504.98 1798.03 1503.63 Q1800.27 1501.11 1801.15 1499.37 Q1802.06 1497.61 1802.06 1495.92 Q1802.06 1493.17 1800.11 1491.43 Q1798.19 1489.7 1795.09 1489.7 Q1792.89 1489.7 1790.44 1490.46 Q1788.01 1491.23 1785.23 1492.78 L1785.23 1488.05 Q1788.05 1486.92 1790.51 1486.34 Q1792.96 1485.76 1795 1485.76 Q1800.37 1485.76 1803.56 1488.45 Q1806.76 1491.13 1806.76 1495.62 Q1806.76 1497.75 1805.95 1499.67 Q1805.16 1501.57 1803.05 1504.17 Q1802.47 1504.84 1799.37 1508.05 Q1796.27 1511.25 1790.62 1517.01 Z" fill="#000000" fill-rule="nonzero" fill-opacity="1" /><path clip-path="url(#clip470)" d="M2398.19 1489.47 Q2394.57 1489.47 2392.75 1493.03 Q2390.94 1496.57 2390.94 1503.7 Q2390.94 1510.81 2392.75 1514.37 Q2394.57 1517.92 2398.19 1517.92 Q2401.82 1517.92 2403.63 1514.37 Q2405.45 1510.81 2405.45 1503.7 Q2405.45 1496.57 2403.63 1493.03 Q2401.82 1489.47 2398.19 1489.47 M2398.19 1485.76 Q2404 1485.76 2407.05 1490.37 Q2410.13 1494.95 2410.13 1503.7 Q2410.13 1512.43 2407.05 1517.04 Q2404 1521.62 2398.19 1521.62 Q2392.38 1521.62 2389.3 1517.04 Q2386.24 1512.43 2386.24 1503.7 Q2386.24 1494.95 2389.3 1490.37 Q2392.38 1485.76 2398.19 1485.76 Z" fill="#000000" fill-rule="nonzero" fill-opacity="1" /><path clip-path="url(#clip470)" d="M2418.35 1515.07 L2423.23 1515.07 L2423.23 1520.95 L2418.35 1520.95 L2418.35 1515.07 Z" fill="#000000" fill-rule="nonzero" fill-opacity="1" /><path clip-path="url(#clip470)" d="M2443.42 1489.47 Q2439.81 1489.47 2437.98 1493.03 Q2436.17 1496.57 2436.17 1503.7 Q2436.17 1510.81 2437.98 1514.37 Q2439.81 1517.92 2443.42 1517.92 Q2447.05 1517.92 2448.86 1514.37 Q2450.69 1510.81 2450.69 1503.7 Q2450.69 1496.57 2448.86 1493.03 Q2447.05 1489.47 2443.42 1489.47 M2443.42 1485.76 Q2449.23 1485.76 2452.28 1490.37 Q2455.36 1494.95 2455.36 1503.7 Q2455.36 1512.43 2452.28 1517.04 Q2449.23 1521.62 2443.42 1521.62 Q2437.61 1521.62 2434.53 1517.04 Q2431.47 1512.43 2431.47 1503.7 Q2431.47 1494.95 2434.53 1490.37 Q2437.61 1485.76 2443.42 1485.76 Z" fill="#000000" fill-rule="nonzero" fill-opacity="1" /><path clip-path="url(#clip470)" d="M2477.75 1502.31 Q2481.1 1503.03 2482.98 1505.3 Q2484.88 1507.57 2484.88 1510.9 Q2484.88 1516.02 2481.36 1518.82 Q2477.84 1521.62 2471.36 1521.62 Q2469.18 1521.62 2466.87 1521.18 Q2464.57 1520.76 2462.12 1519.91 L2462.12 1515.39 Q2464.07 1516.53 2466.38 1517.11 Q2468.69 1517.68 2471.22 1517.68 Q2475.62 1517.68 2477.91 1515.95 Q2480.22 1514.21 2480.22 1510.9 Q2480.22 1507.85 2478.07 1506.13 Q2475.94 1504.4 2472.12 1504.4 L2468.09 1504.4 L2468.09 1500.55 L2472.31 1500.55 Q2475.76 1500.55 2477.58 1499.19 Q2479.41 1497.8 2479.41 1495.21 Q2479.41 1492.55 2477.51 1491.13 Q2475.64 1489.7 2472.12 1489.7 Q2470.2 1489.7 2468 1490.11 Q2465.8 1490.53 2463.16 1491.41 L2463.16 1487.24 Q2465.82 1486.5 2468.14 1486.13 Q2470.48 1485.76 2472.54 1485.76 Q2477.86 1485.76 2480.96 1488.19 Q2484.07 1490.6 2484.07 1494.72 Q2484.07 1497.59 2482.42 1499.58 Q2480.78 1501.55 2477.75 1502.31 Z" fill="#000000" fill-rule="nonzero" fill-opacity="1" /><path clip-path="url(#clip470)" d="M1456.06 1560.37 L1486.11 1560.37 L1486.11 1565.78 L1462.49 1565.78 L1462.49 1579.85 L1485.12 1579.85 L1485.12 1585.26 L1462.49 1585.26 L1462.49 1602.48 L1486.68 1602.48 L1486.68 1607.89 L1456.06 1607.89 L1456.06 1560.37 Z" fill="#000000" fill-rule="nonzero" fill-opacity="1" /><path clip-path="url(#clip470)" d="M1525.74 1561.93 L1525.74 1568.2 Q1522.08 1566.45 1518.83 1565.59 Q1515.58 1564.73 1512.56 1564.73 Q1507.31 1564.73 1504.44 1566.77 Q1501.61 1568.81 1501.61 1572.56 Q1501.61 1575.71 1503.49 1577.34 Q1505.4 1578.93 1510.68 1579.91 L1514.56 1580.71 Q1521.76 1582.08 1525.16 1585.55 Q1528.6 1588.99 1528.6 1594.78 Q1528.6 1601.69 1523.95 1605.25 Q1519.34 1608.81 1510.39 1608.81 Q1507.02 1608.81 1503.2 1608.05 Q1499.41 1607.29 1495.34 1605.79 L1495.34 1599.17 Q1499.25 1601.37 1503.01 1602.48 Q1506.77 1603.59 1510.39 1603.59 Q1515.9 1603.59 1518.89 1601.43 Q1521.89 1599.27 1521.89 1595.26 Q1521.89 1591.75 1519.72 1589.78 Q1517.59 1587.81 1512.69 1586.82 L1508.77 1586.06 Q1501.58 1584.63 1498.36 1581.57 Q1495.15 1578.51 1495.15 1573.07 Q1495.15 1566.77 1499.57 1563.14 Q1504.03 1559.51 1511.83 1559.51 Q1515.17 1559.51 1518.64 1560.12 Q1522.11 1560.72 1525.74 1561.93 Z" fill="#000000" fill-rule="nonzero" fill-opacity="1" /><path clip-path="url(#clip470)" d="M1561.16 1585.61 Q1563.23 1586.31 1565.17 1588.6 Q1567.15 1590.9 1569.12 1594.91 L1575.64 1607.89 L1568.74 1607.89 L1562.66 1595.7 Q1560.3 1590.93 1558.07 1589.37 Q1555.88 1587.81 1552.06 1587.81 L1545.06 1587.81 L1545.06 1607.89 L1538.63 1607.89 L1538.63 1560.37 L1553.14 1560.37 Q1561.29 1560.37 1565.3 1563.78 Q1569.31 1567.18 1569.31 1574.06 Q1569.31 1578.55 1567.21 1581.51 Q1565.14 1584.47 1561.16 1585.61 M1545.06 1565.66 L1545.06 1582.52 L1553.14 1582.52 Q1557.79 1582.52 1560.14 1580.39 Q1562.53 1578.23 1562.53 1574.06 Q1562.53 1569.89 1560.14 1567.79 Q1557.79 1565.66 1553.14 1565.66 L1545.06 1565.66 Z" fill="#000000" fill-rule="nonzero" fill-opacity="1" /><path clip-path="url(#clip470)" d="M1583.92 1560.37 L1590.35 1560.37 L1590.35 1607.89 L1583.92 1607.89 L1583.92 1560.37 Z" fill="#000000" fill-rule="nonzero" fill-opacity="1" /><path clip-path="url(#clip470)" d="M1646.33 1573.29 L1646.33 1578.83 Q1643.85 1577.56 1641.18 1576.92 Q1638.5 1576.29 1635.64 1576.29 Q1631.28 1576.29 1629.08 1577.62 Q1626.92 1578.96 1626.92 1581.63 Q1626.92 1583.67 1628.48 1584.85 Q1630.04 1585.99 1634.75 1587.04 L1636.75 1587.49 Q1642.99 1588.83 1645.6 1591.28 Q1648.24 1593.7 1648.24 1598.06 Q1648.24 1603.02 1644.3 1605.92 Q1640.38 1608.81 1633.51 1608.81 Q1630.64 1608.81 1627.52 1608.24 Q1624.44 1607.7 1621 1606.59 L1621 1600.54 Q1624.25 1602.23 1627.4 1603.09 Q1630.55 1603.91 1633.64 1603.91 Q1637.77 1603.91 1640 1602.51 Q1642.23 1601.08 1642.23 1598.5 Q1642.23 1596.12 1640.61 1594.84 Q1639.01 1593.57 1633.57 1592.39 L1631.53 1591.91 Q1626.09 1590.77 1623.67 1588.41 Q1621.25 1586.03 1621.25 1581.89 Q1621.25 1576.86 1624.82 1574.12 Q1628.38 1571.38 1634.94 1571.38 Q1638.19 1571.38 1641.05 1571.86 Q1643.92 1572.34 1646.33 1573.29 Z" fill="#000000" fill-rule="nonzero" fill-opacity="1" /><path clip-path="url(#clip470)" d="M1683.22 1573.61 L1683.22 1579.09 Q1680.74 1577.72 1678.23 1577.05 Q1675.74 1576.35 1673.2 1576.35 Q1667.5 1576.35 1664.35 1579.98 Q1661.2 1583.57 1661.2 1590.1 Q1661.2 1596.62 1664.35 1600.25 Q1667.5 1603.85 1673.2 1603.85 Q1675.74 1603.85 1678.23 1603.18 Q1680.74 1602.48 1683.22 1601.11 L1683.22 1606.52 Q1680.77 1607.67 1678.13 1608.24 Q1675.52 1608.81 1672.56 1608.81 Q1664.51 1608.81 1659.77 1603.75 Q1655.02 1598.69 1655.02 1590.1 Q1655.02 1581.38 1659.8 1576.38 Q1664.6 1571.38 1672.94 1571.38 Q1675.65 1571.38 1678.23 1571.96 Q1680.8 1572.5 1683.22 1573.61 Z" fill="#000000" fill-rule="nonzero" fill-opacity="1" /><path clip-path="url(#clip470)" d="M1707.22 1576.35 Q1702.51 1576.35 1699.77 1580.04 Q1697.04 1583.7 1697.04 1590.1 Q1697.04 1596.5 1699.74 1600.19 Q1702.48 1603.85 1707.22 1603.85 Q1711.9 1603.85 1714.64 1600.16 Q1717.38 1596.47 1717.38 1590.1 Q1717.38 1583.77 1714.64 1580.07 Q1711.9 1576.35 1707.22 1576.35 M1707.22 1571.38 Q1714.86 1571.38 1719.22 1576.35 Q1723.58 1581.31 1723.58 1590.1 Q1723.58 1598.85 1719.22 1603.85 Q1714.86 1608.81 1707.22 1608.81 Q1699.55 1608.81 1695.19 1603.85 Q1690.86 1598.85 1690.86 1590.1 Q1690.86 1581.31 1695.19 1576.35 Q1699.55 1571.38 1707.22 1571.38 Z" fill="#000000" fill-rule="nonzero" fill-opacity="1" /><path clip-path="url(#clip470)" d="M1753.95 1577.72 Q1752.96 1577.15 1751.78 1576.89 Q1750.64 1576.6 1749.24 1576.6 Q1744.27 1576.6 1741.6 1579.85 Q1738.96 1583.07 1738.96 1589.11 L1738.96 1607.89 L1733.07 1607.89 L1733.07 1572.24 L1738.96 1572.24 L1738.96 1577.78 Q1740.8 1574.54 1743.76 1572.98 Q1746.72 1571.38 1750.95 1571.38 Q1751.56 1571.38 1752.29 1571.48 Q1753.02 1571.54 1753.92 1571.7 L1753.95 1577.72 Z" fill="#000000" fill-rule="nonzero" fill-opacity="1" /><path clip-path="url(#clip470)" d="M1789.15 1588.6 L1789.15 1591.47 L1762.22 1591.47 Q1762.6 1597.52 1765.85 1600.7 Q1769.13 1603.85 1774.95 1603.85 Q1778.33 1603.85 1781.48 1603.02 Q1784.66 1602.19 1787.78 1600.54 L1787.78 1606.08 Q1784.63 1607.41 1781.32 1608.11 Q1778.01 1608.81 1774.6 1608.81 Q1766.07 1608.81 1761.08 1603.85 Q1756.11 1598.88 1756.11 1590.42 Q1756.11 1581.67 1760.82 1576.54 Q1765.56 1571.38 1773.59 1571.38 Q1780.78 1571.38 1784.95 1576.03 Q1789.15 1580.65 1789.15 1588.6 M1783.29 1586.88 Q1783.23 1582.08 1780.59 1579.21 Q1777.98 1576.35 1773.65 1576.35 Q1768.75 1576.35 1765.79 1579.12 Q1762.86 1581.89 1762.41 1586.92 L1783.29 1586.88 Z" fill="#000000" fill-rule="nonzero" fill-opacity="1" /><polyline clip-path="url(#clip470)" style="stroke:#000000; stroke-linecap:round; stroke-linejoin:round; stroke-width:4; stroke-opacity:1; fill:none" points="252.457,1453.43 252.457,113.127 "/>
<polyline clip-path="url(#clip470)" style="stroke:#000000; stroke-linecap:round; stroke-linejoin:round; stroke-width:4; stroke-opacity:1; fill:none" points="2992.76,1453.43 2992.76,113.127 "/>
<polyline clip-path="url(#clip470)" style="stroke:#000000; stroke-linecap:round; stroke-linejoin:round; stroke-width:4; stroke-opacity:1; fill:none" points="252.457,1453.43 271.355,1453.43 "/>
<polyline clip-path="url(#clip470)" style="stroke:#000000; stroke-linecap:round; stroke-linejoin:round; stroke-width:4; stroke-opacity:1; fill:none" points="252.457,1261.96 271.355,1261.96 "/>
<polyline clip-path="url(#clip470)" style="stroke:#000000; stroke-linecap:round; stroke-linejoin:round; stroke-width:4; stroke-opacity:1; fill:none" points="252.457,1070.48 271.355,1070.48 "/>
<polyline clip-path="url(#clip470)" style="stroke:#000000; stroke-linecap:round; stroke-linejoin:round; stroke-width:4; stroke-opacity:1; fill:none" points="252.457,879.013 271.355,879.013 "/>
<polyline clip-path="url(#clip470)" style="stroke:#000000; stroke-linecap:round; stroke-linejoin:round; stroke-width:4; stroke-opacity:1; fill:none" points="252.457,687.542 271.355,687.542 "/>
<polyline clip-path="url(#clip470)" style="stroke:#000000; stroke-linecap:round; stroke-linejoin:round; stroke-width:4; stroke-opacity:1; fill:none" points="252.457,496.07 271.355,496.07 "/>
<polyline clip-path="url(#clip470)" style="stroke:#000000; stroke-linecap:round; stroke-linejoin:round; stroke-width:4; stroke-opacity:1; fill:none" points="252.457,304.598 271.355,304.598 "/>
<polyline clip-path="url(#clip470)" style="stroke:#000000; stroke-linecap:round; stroke-linejoin:round; stroke-width:4; stroke-opacity:1; fill:none" points="252.457,113.127 271.355,113.127 "/>
<polyline clip-path="url(#clip470)" style="stroke:#000000; stroke-linecap:round; stroke-linejoin:round; stroke-width:4; stroke-opacity:1; fill:none" points="2992.76,1453.43 2973.86,1453.43 "/>
<polyline clip-path="url(#clip470)" style="stroke:#000000; stroke-linecap:round; stroke-linejoin:round; stroke-width:4; stroke-opacity:1; fill:none" points="2992.76,1261.96 2973.86,1261.96 "/>
<polyline clip-path="url(#clip470)" style="stroke:#000000; stroke-linecap:round; stroke-linejoin:round; stroke-width:4; stroke-opacity:1; fill:none" points="2992.76,1070.48 2973.86,1070.48 "/>
<polyline clip-path="url(#clip470)" style="stroke:#000000; stroke-linecap:round; stroke-linejoin:round; stroke-width:4; stroke-opacity:1; fill:none" points="2992.76,879.013 2973.86,879.013 "/>
<polyline clip-path="url(#clip470)" style="stroke:#000000; stroke-linecap:round; stroke-linejoin:round; stroke-width:4; stroke-opacity:1; fill:none" points="2992.76,687.542 2973.86,687.542 "/>
<polyline clip-path="url(#clip470)" style="stroke:#000000; stroke-linecap:round; stroke-linejoin:round; stroke-width:4; stroke-opacity:1; fill:none" points="2992.76,496.07 2973.86,496.07 "/>
<polyline clip-path="url(#clip470)" style="stroke:#000000; stroke-linecap:round; stroke-linejoin:round; stroke-width:4; stroke-opacity:1; fill:none" points="2992.76,304.598 2973.86,304.598 "/>
<polyline clip-path="url(#clip470)" style="stroke:#000000; stroke-linecap:round; stroke-linejoin:round; stroke-width:4; stroke-opacity:1; fill:none" points="2992.76,113.127 2973.86,113.127 "/>
<path clip-path="url(#clip470)" d="M194.913 1439.23 Q191.301 1439.23 189.473 1442.79 Q187.667 1446.33 187.667 1453.46 Q187.667 1460.57 189.473 1464.13 Q191.301 1467.68 194.913 1467.68 Q198.547 1467.68 200.352 1464.13 Q202.181 1460.57 202.181 1453.46 Q202.181 1446.33 200.352 1442.79 Q198.547 1439.23 194.913 1439.23 M194.913 1435.52 Q200.723 1435.52 203.778 1440.13 Q206.857 1444.71 206.857 1453.46 Q206.857 1462.19 203.778 1466.8 Q200.723 1471.38 194.913 1471.38 Q189.102 1471.38 186.024 1466.8 Q182.968 1462.19 182.968 1453.46 Q182.968 1444.71 186.024 1440.13 Q189.102 1435.52 194.913 1435.52 Z" fill="#000000" fill-rule="nonzero" fill-opacity="1" /><path clip-path="url(#clip470)" d="M186.95 1275.3 L194.588 1275.3 L194.588 1248.94 L186.278 1250.6 L186.278 1246.34 L194.542 1244.68 L199.218 1244.68 L199.218 1275.3 L206.857 1275.3 L206.857 1279.24 L186.95 1279.24 L186.95 1275.3 Z" fill="#000000" fill-rule="nonzero" fill-opacity="1" /><path clip-path="url(#clip470)" d="M190.538 1083.83 L206.857 1083.83 L206.857 1087.76 L184.913 1087.76 L184.913 1083.83 Q187.575 1081.07 192.158 1076.45 Q196.764 1071.79 197.945 1070.45 Q200.19 1067.93 201.07 1066.19 Q201.973 1064.43 201.973 1062.74 Q201.973 1059.99 200.028 1058.25 Q198.107 1056.51 195.005 1056.51 Q192.806 1056.51 190.352 1057.28 Q187.922 1058.04 185.144 1059.59 L185.144 1054.87 Q187.968 1053.74 190.422 1053.16 Q192.876 1052.58 194.913 1052.58 Q200.283 1052.58 203.477 1055.26 Q206.672 1057.95 206.672 1062.44 Q206.672 1064.57 205.862 1066.49 Q205.075 1068.39 202.968 1070.98 Q202.389 1071.65 199.288 1074.87 Q196.186 1078.07 190.538 1083.83 Z" fill="#000000" fill-rule="nonzero" fill-opacity="1" /><path clip-path="url(#clip470)" d="M199.727 877.659 Q203.084 878.376 204.959 880.645 Q206.857 882.914 206.857 886.247 Q206.857 891.363 203.338 894.163 Q199.82 896.964 193.338 896.964 Q191.163 896.964 188.848 896.525 Q186.556 896.108 184.102 895.251 L184.102 890.738 Q186.047 891.872 188.362 892.45 Q190.676 893.029 193.2 893.029 Q197.598 893.029 199.889 891.293 Q202.204 889.557 202.204 886.247 Q202.204 883.191 200.051 881.478 Q197.922 879.742 194.102 879.742 L190.075 879.742 L190.075 875.9 L194.288 875.9 Q197.737 875.9 199.565 874.534 Q201.394 873.145 201.394 870.552 Q201.394 867.89 199.496 866.478 Q197.621 865.043 194.102 865.043 Q192.181 865.043 189.982 865.46 Q187.783 865.877 185.144 866.756 L185.144 862.59 Q187.806 861.849 190.121 861.478 Q192.459 861.108 194.519 861.108 Q199.843 861.108 202.945 863.539 Q206.047 865.946 206.047 870.066 Q206.047 872.937 204.403 874.927 Q202.76 876.895 199.727 877.659 Z" fill="#000000" fill-rule="nonzero" fill-opacity="1" /><path clip-path="url(#clip470)" d="M197.274 674.336 L185.468 692.785 L197.274 692.785 L197.274 674.336 M196.047 670.262 L201.926 670.262 L201.926 692.785 L206.857 692.785 L206.857 696.673 L201.926 696.673 L201.926 704.822 L197.274 704.822 L197.274 696.673 L181.672 696.673 L181.672 692.16 L196.047 670.262 Z" fill="#000000" fill-rule="nonzero" fill-opacity="1" /><path clip-path="url(#clip470)" d="M185.954 478.79 L204.311 478.79 L204.311 482.725 L190.237 482.725 L190.237 491.197 Q191.255 490.85 192.274 490.688 Q193.292 490.503 194.311 490.503 Q200.098 490.503 203.477 493.674 Q206.857 496.845 206.857 502.262 Q206.857 507.841 203.385 510.943 Q199.913 514.021 193.593 514.021 Q191.417 514.021 189.149 513.651 Q186.903 513.281 184.496 512.54 L184.496 507.841 Q186.579 508.975 188.801 509.531 Q191.024 510.086 193.501 510.086 Q197.505 510.086 199.843 507.98 Q202.181 505.873 202.181 502.262 Q202.181 498.651 199.843 496.544 Q197.505 494.438 193.501 494.438 Q191.626 494.438 189.751 494.855 Q187.899 495.271 185.954 496.151 L185.954 478.79 Z" fill="#000000" fill-rule="nonzero" fill-opacity="1" /><path clip-path="url(#clip470)" d="M195.329 302.735 Q192.181 302.735 190.329 304.888 Q188.501 307.041 188.501 310.791 Q188.501 314.517 190.329 316.693 Q192.181 318.846 195.329 318.846 Q198.477 318.846 200.306 316.693 Q202.158 314.517 202.158 310.791 Q202.158 307.041 200.306 304.888 Q198.477 302.735 195.329 302.735 M204.612 288.082 L204.612 292.342 Q202.852 291.508 201.047 291.068 Q199.264 290.629 197.505 290.629 Q192.876 290.629 190.422 293.754 Q187.991 296.879 187.644 303.198 Q189.01 301.184 191.07 300.119 Q193.13 299.031 195.607 299.031 Q200.815 299.031 203.825 302.203 Q206.857 305.351 206.857 310.791 Q206.857 316.115 203.709 319.332 Q200.561 322.55 195.329 322.55 Q189.334 322.55 186.163 317.966 Q182.991 313.36 182.991 304.633 Q182.991 296.439 186.88 291.578 Q190.769 286.693 197.32 286.693 Q199.079 286.693 200.862 287.041 Q202.667 287.388 204.612 288.082 Z" fill="#000000" fill-rule="nonzero" fill-opacity="1" /><path clip-path="url(#clip470)" d="M184.635 95.8469 L206.857 95.8469 L206.857 97.8376 L194.311 130.407 L189.426 130.407 L201.232 99.782 L184.635 99.782 L184.635 95.8469 Z" fill="#000000" fill-rule="nonzero" fill-opacity="1" /><path clip-path="url(#clip470)" d="M74.2959 1043.63 L74.2959 1034.98 L114.05 1013.91 L74.2959 1013.91 L74.2959 1007.67 L121.816 1007.67 L121.816 1016.33 L82.0621 1037.4 L121.816 1037.4 L121.816 1043.63 L74.2959 1043.63 Z" fill="#000000" fill-rule="nonzero" fill-opacity="1" /><path clip-path="url(#clip470)" d="M107.748 995.733 L86.1679 995.733 L86.1679 989.876 L107.525 989.876 Q112.586 989.876 115.132 987.903 Q117.646 985.93 117.646 981.983 Q117.646 977.24 114.623 974.503 Q111.599 971.734 106.379 971.734 L86.1679 971.734 L86.1679 965.878 L121.816 965.878 L121.816 971.734 L116.341 971.734 Q119.588 973.867 121.179 976.699 Q122.739 979.5 122.739 983.224 Q122.739 989.367 118.919 992.55 Q115.1 995.733 107.748 995.733 M85.3086 980.996 L85.3086 980.996 Z" fill="#000000" fill-rule="nonzero" fill-opacity="1" /><path clip-path="url(#clip470)" d="M93.0111 926.06 Q89.0643 923.864 87.1864 920.808 Q85.3086 917.753 85.3086 913.615 Q85.3086 908.045 89.2235 905.021 Q93.1066 901.998 100.3 901.998 L121.816 901.998 L121.816 907.886 L100.491 907.886 Q95.3664 907.886 92.8838 909.7 Q90.4011 911.514 90.4011 915.238 Q90.4011 919.79 93.4248 922.432 Q96.4486 925.073 101.668 925.073 L121.816 925.073 L121.816 930.962 L100.491 930.962 Q95.3346 930.962 92.8838 932.776 Q90.4011 934.59 90.4011 938.378 Q90.4011 942.866 93.4567 945.507 Q96.4804 948.149 101.668 948.149 L121.816 948.149 L121.816 954.037 L86.1679 954.037 L86.1679 948.149 L91.7061 948.149 Q88.4278 946.144 86.8682 943.343 Q85.3086 940.542 85.3086 936.691 Q85.3086 932.808 87.2819 930.102 Q89.2553 927.365 93.0111 926.06 Z" fill="#000000" fill-rule="nonzero" fill-opacity="1" /><path clip-path="url(#clip470)" d="M104.024 864.727 Q97.5626 864.727 93.9023 867.4 Q90.2102 870.042 90.2102 874.689 Q90.2102 879.336 93.9023 882.009 Q97.5626 884.651 104.024 884.651 Q110.485 884.651 114.177 882.009 Q117.837 879.336 117.837 874.689 Q117.837 870.042 114.177 867.4 Q110.485 864.727 104.024 864.727 M91.5788 884.651 Q88.3959 882.805 86.8682 880.004 Q85.3086 877.171 85.3086 873.257 Q85.3086 866.764 90.4648 862.721 Q95.621 858.647 104.024 858.647 Q112.426 858.647 117.583 862.721 Q122.739 866.764 122.739 873.257 Q122.739 877.171 121.211 880.004 Q119.652 882.805 116.469 884.651 L121.816 884.651 L121.816 890.539 L72.2907 890.539 L72.2907 884.651 L91.5788 884.651 Z" fill="#000000" fill-rule="nonzero" fill-opacity="1" /><path clip-path="url(#clip470)" d="M102.528 818.448 L105.392 818.448 L105.392 845.375 Q111.44 844.993 114.623 841.746 Q117.774 838.468 117.774 832.643 Q117.774 829.27 116.946 826.118 Q116.119 822.936 114.464 819.816 L120.002 819.816 Q121.338 822.967 122.039 826.278 Q122.739 829.588 122.739 832.993 Q122.739 841.524 117.774 846.521 Q112.808 851.486 104.342 851.486 Q95.5892 851.486 90.4648 846.775 Q85.3086 842.033 85.3086 834.012 Q85.3086 826.819 89.9555 822.649 Q94.5707 818.448 102.528 818.448 M100.809 824.304 Q96.003 824.368 93.1384 827.01 Q90.2738 829.62 90.2738 833.948 Q90.2738 838.85 93.0429 841.81 Q95.812 844.738 100.841 845.184 L100.809 824.304 Z" fill="#000000" fill-rule="nonzero" fill-opacity="1" /><path clip-path="url(#clip470)" d="M91.6424 788.179 Q91.0695 789.166 90.8149 790.343 Q90.5284 791.489 90.5284 792.89 Q90.5284 797.855 93.775 800.528 Q96.9896 803.17 103.037 803.17 L121.816 803.17 L121.816 809.058 L86.1679 809.058 L86.1679 803.17 L91.7061 803.17 Q88.4596 801.324 86.9 798.364 Q85.3086 795.404 85.3086 791.171 Q85.3086 790.566 85.4041 789.834 Q85.4677 789.102 85.6269 788.211 L91.6424 788.179 Z" fill="#000000" fill-rule="nonzero" fill-opacity="1" /><path clip-path="url(#clip470)" d="M90.2738 747.502 Q90.2738 752.213 93.9659 754.95 Q97.6262 757.687 104.024 757.687 Q110.421 757.687 114.113 754.982 Q117.774 752.244 117.774 747.502 Q117.774 742.823 114.082 740.086 Q110.389 737.349 104.024 737.349 Q97.6899 737.349 93.9978 740.086 Q90.2738 742.823 90.2738 747.502 M85.3086 747.502 Q85.3086 739.863 90.2738 735.503 Q95.2391 731.142 104.024 731.142 Q112.777 731.142 117.774 735.503 Q122.739 739.863 122.739 747.502 Q122.739 755.173 117.774 759.533 Q112.777 763.862 104.024 763.862 Q95.2391 763.862 90.2738 759.533 Q85.3086 755.173 85.3086 747.502 Z" fill="#000000" fill-rule="nonzero" fill-opacity="1" /><path clip-path="url(#clip470)" d="M72.2907 703.388 L77.1605 703.388 L77.1605 708.989 Q77.1605 712.141 78.4336 713.382 Q79.7067 714.591 83.0169 714.591 L86.1679 714.591 L86.1679 704.947 L90.7194 704.947 L90.7194 714.591 L121.816 714.591 L121.816 720.48 L90.7194 720.48 L90.7194 726.081 L86.1679 726.081 L86.1679 720.48 L83.6853 720.48 Q77.7334 720.48 75.028 717.711 Q72.2907 714.941 72.2907 708.926 L72.2907 703.388 Z" fill="#000000" fill-rule="nonzero" fill-opacity="1" /><path clip-path="url(#clip470)" d="M72.2907 659.719 L77.1605 659.719 L77.1605 665.321 Q77.1605 668.472 78.4336 669.713 Q79.7067 670.923 83.0169 670.923 L86.1679 670.923 L86.1679 661.279 L90.7194 661.279 L90.7194 670.923 L121.816 670.923 L121.816 676.811 L90.7194 676.811 L90.7194 682.413 L86.1679 682.413 L86.1679 676.811 L83.6853 676.811 Q77.7334 676.811 75.028 674.042 Q72.2907 671.273 72.2907 665.257 L72.2907 659.719 Z" fill="#000000" fill-rule="nonzero" fill-opacity="1" /><path clip-path="url(#clip470)" d="M86.1679 654.817 L86.1679 648.961 L121.816 648.961 L121.816 654.817 L86.1679 654.817 M72.2907 654.817 L72.2907 648.961 L79.7067 648.961 L79.7067 654.817 L72.2907 654.817 Z" fill="#000000" fill-rule="nonzero" fill-opacity="1" /><path clip-path="url(#clip470)" d="M91.6424 616.05 Q91.0695 617.037 90.8149 618.215 Q90.5284 619.36 90.5284 620.761 Q90.5284 625.726 93.775 628.4 Q96.9896 631.041 103.037 631.041 L121.816 631.041 L121.816 636.93 L86.1679 636.93 L86.1679 631.041 L91.7061 631.041 Q88.4596 629.195 86.9 626.235 Q85.3086 623.275 85.3086 619.042 Q85.3086 618.437 85.4041 617.705 Q85.4677 616.973 85.6269 616.082 L91.6424 616.05 Z" fill="#000000" fill-rule="nonzero" fill-opacity="1" /><path clip-path="url(#clip470)" d="M93.0111 583.299 Q89.0643 581.102 87.1864 578.047 Q85.3086 574.991 85.3086 570.854 Q85.3086 565.284 89.2235 562.26 Q93.1066 559.236 100.3 559.236 L121.816 559.236 L121.816 565.125 L100.491 565.125 Q95.3664 565.125 92.8838 566.939 Q90.4011 568.753 90.4011 572.477 Q90.4011 577.028 93.4248 579.67 Q96.4486 582.312 101.668 582.312 L121.816 582.312 L121.816 588.2 L100.491 588.2 Q95.3346 588.2 92.8838 590.014 Q90.4011 591.829 90.4011 595.616 Q90.4011 600.104 93.4567 602.746 Q96.4804 605.388 101.668 605.388 L121.816 605.388 L121.816 611.276 L86.1679 611.276 L86.1679 605.388 L91.7061 605.388 Q88.4278 603.382 86.8682 600.582 Q85.3086 597.781 85.3086 593.929 Q85.3086 590.046 87.2819 587.341 Q89.2553 584.604 93.0111 583.299 Z" fill="#000000" fill-rule="nonzero" fill-opacity="1" /><path clip-path="url(#clip470)" d="M87.2183 524.83 L92.7564 524.83 Q91.4833 527.312 90.8467 529.986 Q90.2102 532.659 90.2102 535.524 Q90.2102 539.884 91.547 542.081 Q92.8838 544.245 95.5574 544.245 Q97.5944 544.245 98.772 542.685 Q99.9179 541.126 100.968 536.415 L101.414 534.41 Q102.751 528.172 105.201 525.562 Q107.62 522.92 111.981 522.92 Q116.946 522.92 119.843 526.867 Q122.739 530.782 122.739 537.656 Q122.739 540.521 122.166 543.64 Q121.625 546.728 120.511 550.165 L114.464 550.165 Q116.15 546.919 117.01 543.768 Q117.837 540.617 117.837 537.529 Q117.837 533.391 116.437 531.163 Q115.005 528.935 112.426 528.935 Q110.039 528.935 108.766 530.559 Q107.493 532.15 106.315 537.593 L105.838 539.63 Q104.692 545.073 102.337 547.492 Q99.9497 549.91 95.812 549.91 Q90.7831 549.91 88.0458 546.346 Q85.3086 542.781 85.3086 536.224 Q85.3086 532.978 85.786 530.113 Q86.2634 527.249 87.2183 524.83 Z" fill="#000000" fill-rule="nonzero" fill-opacity="1" /><path clip-path="url(#clip470)" d="M526.493 18.8205 L526.493 65.8515 L536.377 65.8515 Q548.894 65.8515 554.687 60.1802 Q560.52 54.509 560.52 42.2752 Q560.52 30.1225 554.687 24.4918 Q548.894 18.8205 536.377 18.8205 L526.493 18.8205 M518.31 12.096 L535.121 12.096 Q552.702 12.096 560.925 19.4281 Q569.149 26.7198 569.149 42.2752 Q569.149 57.9117 560.885 65.2439 Q552.621 72.576 535.121 72.576 L518.31 72.576 L518.31 12.096 Z" fill="#000000" fill-rule="nonzero" fill-opacity="1" /><path clip-path="url(#clip470)" d="M581.868 27.2059 L589.322 27.2059 L589.322 72.576 L581.868 72.576 L581.868 27.2059 M581.868 9.54393 L589.322 9.54393 L589.322 18.9825 L581.868 18.9825 L581.868 9.54393 Z" fill="#000000" fill-rule="nonzero" fill-opacity="1" /><path clip-path="url(#clip470)" d="M633.841 28.5427 L633.841 35.5912 Q630.682 33.9709 627.279 33.1607 Q623.876 32.3505 620.23 32.3505 Q614.681 32.3505 611.886 34.0519 Q609.131 35.7533 609.131 39.156 Q609.131 41.7486 611.116 43.2475 Q613.101 44.7058 619.096 46.0426 L621.648 46.6097 Q629.588 48.3111 632.91 51.4303 Q636.272 54.509 636.272 60.0587 Q636.272 66.3781 631.249 70.0644 Q626.266 73.7508 617.516 73.7508 Q613.871 73.7508 609.901 73.0216 Q605.971 72.3329 601.596 70.9151 L601.596 63.2184 Q605.728 65.3654 609.739 66.4591 Q613.749 67.5124 617.678 67.5124 Q622.945 67.5124 625.78 65.73 Q628.616 63.9071 628.616 60.6258 Q628.616 57.5877 626.55 55.9673 Q624.524 54.3469 617.597 52.8481 L615.005 52.2405 Q608.078 50.7821 604.999 47.7845 Q601.92 44.7463 601.92 39.4801 Q601.92 33.0797 606.457 29.5959 Q610.994 26.1121 619.339 26.1121 Q623.471 26.1121 627.117 26.7198 Q630.763 27.3274 633.841 28.5427 Z" fill="#000000" fill-rule="nonzero" fill-opacity="1" /><path clip-path="url(#clip470)" d="M655.514 14.324 L655.514 27.2059 L670.867 27.2059 L670.867 32.9987 L655.514 32.9987 L655.514 57.6282 Q655.514 63.1779 657.013 64.7578 Q658.552 66.3376 663.211 66.3376 L670.867 66.3376 L670.867 72.576 L663.211 72.576 Q654.582 72.576 651.301 69.3758 Q648.02 66.1351 648.02 57.6282 L648.02 32.9987 L642.551 32.9987 L642.551 27.2059 L648.02 27.2059 L648.02 14.324 L655.514 14.324 Z" fill="#000000" fill-rule="nonzero" fill-opacity="1" /><path clip-path="url(#clip470)" d="M706.96 34.1734 Q705.705 33.4443 704.206 33.1202 Q702.747 32.7556 700.965 32.7556 Q694.646 32.7556 691.243 36.8875 Q687.881 40.9789 687.881 48.6757 L687.881 72.576 L680.386 72.576 L680.386 27.2059 L687.881 27.2059 L687.881 34.2544 Q690.23 30.1225 693.997 28.1376 Q697.765 26.1121 703.152 26.1121 Q703.922 26.1121 704.854 26.2337 Q705.786 26.3147 706.92 26.5172 L706.96 34.1734 Z" fill="#000000" fill-rule="nonzero" fill-opacity="1" /><path clip-path="url(#clip470)" d="M714.779 27.2059 L722.232 27.2059 L722.232 72.576 L714.779 72.576 L714.779 27.2059 M714.779 9.54393 L722.232 9.54393 L722.232 18.9825 L714.779 18.9825 L714.779 9.54393 Z" fill="#000000" fill-rule="nonzero" fill-opacity="1" /><path clip-path="url(#clip470)" d="M770.397 49.9314 Q770.397 41.7081 766.995 37.0496 Q763.632 32.3505 757.718 32.3505 Q751.804 32.3505 748.401 37.0496 Q745.039 41.7081 745.039 49.9314 Q745.039 58.1548 748.401 62.8538 Q751.804 67.5124 757.718 67.5124 Q763.632 67.5124 766.995 62.8538 Q770.397 58.1548 770.397 49.9314 M745.039 34.0924 Q747.388 30.0415 750.953 28.0971 Q754.558 26.1121 759.541 26.1121 Q767.805 26.1121 772.95 32.6746 Q778.135 39.2371 778.135 49.9314 Q778.135 60.6258 772.95 67.1883 Q767.805 73.7508 759.541 73.7508 Q754.558 73.7508 750.953 71.8063 Q747.388 69.8214 745.039 65.7705 L745.039 72.576 L737.545 72.576 L737.545 9.54393 L745.039 9.54393 L745.039 34.0924 Z" fill="#000000" fill-rule="nonzero" fill-opacity="1" /><path clip-path="url(#clip470)" d="M789.72 54.671 L789.72 27.2059 L797.174 27.2059 L797.174 54.3874 Q797.174 60.8284 799.685 64.0691 Q802.197 67.2693 807.22 67.2693 Q813.256 67.2693 816.74 63.421 Q820.264 59.5726 820.264 52.9291 L820.264 27.2059 L827.718 27.2059 L827.718 72.576 L820.264 72.576 L820.264 65.6084 Q817.55 69.7404 813.945 71.7658 Q810.38 73.7508 805.64 73.7508 Q797.822 73.7508 793.771 68.8897 Q789.72 64.0286 789.72 54.671 M808.476 26.1121 L808.476 26.1121 Z" fill="#000000" fill-rule="nonzero" fill-opacity="1" /><path clip-path="url(#clip470)" d="M850.443 14.324 L850.443 27.2059 L865.796 27.2059 L865.796 32.9987 L850.443 32.9987 L850.443 57.6282 Q850.443 63.1779 851.942 64.7578 Q853.481 66.3376 858.14 66.3376 L865.796 66.3376 L865.796 72.576 L858.14 72.576 Q849.512 72.576 846.23 69.3758 Q842.949 66.1351 842.949 57.6282 L842.949 32.9987 L837.48 32.9987 L837.48 27.2059 L842.949 27.2059 L842.949 14.324 L850.443 14.324 Z" fill="#000000" fill-rule="nonzero" fill-opacity="1" /><path clip-path="url(#clip470)" d="M875.599 27.2059 L883.053 27.2059 L883.053 72.576 L875.599 72.576 L875.599 27.2059 M875.599 9.54393 L883.053 9.54393 L883.053 18.9825 L875.599 18.9825 L875.599 9.54393 Z" fill="#000000" fill-rule="nonzero" fill-opacity="1" /><path clip-path="url(#clip470)" d="M916.23 32.4315 Q910.235 32.4315 906.751 37.1306 Q903.267 41.7891 903.267 49.9314 Q903.267 58.0738 906.71 62.7728 Q910.194 67.4314 916.23 67.4314 Q922.185 67.4314 925.669 62.7323 Q929.152 58.0333 929.152 49.9314 Q929.152 41.8701 925.669 37.1711 Q922.185 32.4315 916.23 32.4315 M916.23 26.1121 Q925.952 26.1121 931.502 32.4315 Q937.052 38.7509 937.052 49.9314 Q937.052 61.0714 931.502 67.4314 Q925.952 73.7508 916.23 73.7508 Q906.467 73.7508 900.918 67.4314 Q895.408 61.0714 895.408 49.9314 Q895.408 38.7509 900.918 32.4315 Q906.467 26.1121 916.23 26.1121 Z" fill="#000000" fill-rule="nonzero" fill-opacity="1" /><path clip-path="url(#clip470)" d="M987.121 45.1919 L987.121 72.576 L979.667 72.576 L979.667 45.4349 Q979.667 38.994 977.156 35.7938 Q974.644 32.5936 969.621 32.5936 Q963.585 32.5936 960.101 36.4419 Q956.618 40.2903 956.618 46.9338 L956.618 72.576 L949.123 72.576 L949.123 27.2059 L956.618 27.2059 L956.618 34.2544 Q959.291 30.163 962.896 28.1376 Q966.542 26.1121 971.282 26.1121 Q979.1 26.1121 983.11 30.9732 Q987.121 35.7938 987.121 45.1919 Z" fill="#000000" fill-rule="nonzero" fill-opacity="1" /><path clip-path="url(#clip470)" d="M1051.33 9.54393 L1051.33 15.7418 L1044.2 15.7418 Q1040.19 15.7418 1038.61 17.3622 Q1037.07 18.9825 1037.07 23.1955 L1037.07 27.2059 L1049.34 27.2059 L1049.34 32.9987 L1037.07 32.9987 L1037.07 72.576 L1029.57 72.576 L1029.57 32.9987 L1022.44 32.9987 L1022.44 27.2059 L1029.57 27.2059 L1029.57 24.0462 Q1029.57 16.471 1033.1 13.0277 Q1036.62 9.54393 1044.28 9.54393 L1051.33 9.54393 Z" fill="#000000" fill-rule="nonzero" fill-opacity="1" /><path clip-path="url(#clip470)" d="M1075.15 32.4315 Q1069.15 32.4315 1065.67 37.1306 Q1062.18 41.7891 1062.18 49.9314 Q1062.18 58.0738 1065.63 62.7728 Q1069.11 67.4314 1075.15 67.4314 Q1081.1 67.4314 1084.59 62.7323 Q1088.07 58.0333 1088.07 49.9314 Q1088.07 41.8701 1084.59 37.1711 Q1081.1 32.4315 1075.15 32.4315 M1075.15 26.1121 Q1084.87 26.1121 1090.42 32.4315 Q1095.97 38.7509 1095.97 49.9314 Q1095.97 61.0714 1090.42 67.4314 Q1084.87 73.7508 1075.15 73.7508 Q1065.38 73.7508 1059.83 67.4314 Q1054.33 61.0714 1054.33 49.9314 Q1054.33 38.7509 1059.83 32.4315 Q1065.38 26.1121 1075.15 26.1121 Z" fill="#000000" fill-rule="nonzero" fill-opacity="1" /><path clip-path="url(#clip470)" d="M1134.61 34.1734 Q1133.36 33.4443 1131.86 33.1202 Q1130.4 32.7556 1128.62 32.7556 Q1122.3 32.7556 1118.9 36.8875 Q1115.53 40.9789 1115.53 48.6757 L1115.53 72.576 L1108.04 72.576 L1108.04 27.2059 L1115.53 27.2059 L1115.53 34.2544 Q1117.88 30.1225 1121.65 28.1376 Q1125.42 26.1121 1130.81 26.1121 Q1131.58 26.1121 1132.51 26.2337 Q1133.44 26.3147 1134.57 26.5172 L1134.61 34.1734 Z" fill="#000000" fill-rule="nonzero" fill-opacity="1" /><path clip-path="url(#clip470)" d="M1189.42 49.7694 Q1180.39 49.7694 1176.91 51.8354 Q1173.42 53.9013 1173.42 58.8839 Q1173.42 62.8538 1176.01 65.2034 Q1178.65 67.5124 1183.14 67.5124 Q1189.34 67.5124 1193.07 63.1374 Q1196.84 58.7219 1196.84 51.4303 L1196.84 49.7694 L1189.42 49.7694 M1204.29 46.6907 L1204.29 72.576 L1196.84 72.576 L1196.84 65.6895 Q1194.28 69.8214 1190.48 71.8063 Q1186.67 73.7508 1181.16 73.7508 Q1174.19 73.7508 1170.06 69.8619 Q1165.97 65.9325 1165.97 59.3701 Q1165.97 51.7138 1171.07 47.825 Q1176.22 43.9361 1186.38 43.9361 L1196.84 43.9361 L1196.84 43.2069 Q1196.84 38.0623 1193.43 35.2672 Q1190.07 32.4315 1183.95 32.4315 Q1180.07 32.4315 1176.38 33.3632 Q1172.69 34.295 1169.29 36.1584 L1169.29 29.2718 Q1173.38 27.692 1177.23 26.9223 Q1181.08 26.1121 1184.72 26.1121 Q1194.57 26.1121 1199.43 31.2163 Q1204.29 36.3204 1204.29 46.6907 Z" fill="#000000" fill-rule="nonzero" fill-opacity="1" /><path clip-path="url(#clip470)" d="M1274.94 28.5427 L1274.94 35.5912 Q1271.78 33.9709 1268.38 33.1607 Q1264.97 32.3505 1261.33 32.3505 Q1255.78 32.3505 1252.98 34.0519 Q1250.23 35.7533 1250.23 39.156 Q1250.23 41.7486 1252.21 43.2475 Q1254.2 44.7058 1260.19 46.0426 L1262.74 46.6097 Q1270.68 48.3111 1274.01 51.4303 Q1277.37 54.509 1277.37 60.0587 Q1277.37 66.3781 1272.34 70.0644 Q1267.36 73.7508 1258.61 73.7508 Q1254.97 73.7508 1251 73.0216 Q1247.07 72.3329 1242.69 70.9151 L1242.69 63.2184 Q1246.82 65.3654 1250.83 66.4591 Q1254.85 67.5124 1258.77 67.5124 Q1264.04 67.5124 1266.88 65.73 Q1269.71 63.9071 1269.71 60.6258 Q1269.71 57.5877 1267.65 55.9673 Q1265.62 54.3469 1258.69 52.8481 L1256.1 52.2405 Q1249.17 50.7821 1246.1 47.7845 Q1243.02 44.7463 1243.02 39.4801 Q1243.02 33.0797 1247.55 29.5959 Q1252.09 26.1121 1260.44 26.1121 Q1264.57 26.1121 1268.21 26.7198 Q1271.86 27.3274 1274.94 28.5427 Z" fill="#000000" fill-rule="nonzero" fill-opacity="1" /><path clip-path="url(#clip470)" d="M1328.04 48.0275 L1328.04 51.6733 L1293.77 51.6733 Q1294.26 59.3701 1298.39 63.421 Q1302.56 67.4314 1309.98 67.4314 Q1314.27 67.4314 1318.28 66.3781 Q1322.33 65.3249 1326.3 63.2184 L1326.3 70.267 Q1322.29 71.9684 1318.08 72.8596 Q1313.87 73.7508 1309.53 73.7508 Q1298.68 73.7508 1292.32 67.4314 Q1286 61.1119 1286 50.3365 Q1286 39.1965 1291.99 32.6746 Q1298.03 26.1121 1308.24 26.1121 Q1317.39 26.1121 1322.7 32.0264 Q1328.04 37.9003 1328.04 48.0275 M1320.59 45.84 Q1320.51 39.7232 1317.15 36.0774 Q1313.83 32.4315 1308.32 32.4315 Q1302.08 32.4315 1298.31 35.9558 Q1294.58 39.4801 1294.02 45.8805 L1320.59 45.84 Z" fill="#000000" fill-rule="nonzero" fill-opacity="1" /><path clip-path="url(#clip470)" d="M1340.28 9.54393 L1347.73 9.54393 L1347.73 72.576 L1340.28 72.576 L1340.28 9.54393 Z" fill="#000000" fill-rule="nonzero" fill-opacity="1" /><path clip-path="url(#clip470)" d="M1402.14 48.0275 L1402.14 51.6733 L1367.87 51.6733 Q1368.35 59.3701 1372.48 63.421 Q1376.66 67.4314 1384.07 67.4314 Q1388.36 67.4314 1392.37 66.3781 Q1396.42 65.3249 1400.39 63.2184 L1400.39 70.267 Q1396.38 71.9684 1392.17 72.8596 Q1387.96 73.7508 1383.62 73.7508 Q1372.77 73.7508 1366.41 67.4314 Q1360.09 61.1119 1360.09 50.3365 Q1360.09 39.1965 1366.08 32.6746 Q1372.12 26.1121 1382.33 26.1121 Q1391.48 26.1121 1396.79 32.0264 Q1402.14 37.9003 1402.14 48.0275 M1394.68 45.84 Q1394.6 39.7232 1391.24 36.0774 Q1387.92 32.4315 1382.41 32.4315 Q1376.17 32.4315 1372.4 35.9558 Q1368.68 39.4801 1368.11 45.8805 L1394.68 45.84 Z" fill="#000000" fill-rule="nonzero" fill-opacity="1" /><path clip-path="url(#clip470)" d="M1447.02 28.9478 L1447.02 35.9153 Q1443.86 34.1734 1440.66 33.3227 Q1437.5 32.4315 1434.26 32.4315 Q1427.01 32.4315 1423 37.0496 Q1418.99 41.6271 1418.99 49.9314 Q1418.99 58.2358 1423 62.8538 Q1427.01 67.4314 1434.26 67.4314 Q1437.5 67.4314 1440.66 66.5807 Q1443.86 65.6895 1447.02 63.9476 L1447.02 70.8341 Q1443.9 72.2924 1440.54 73.0216 Q1437.22 73.7508 1433.45 73.7508 Q1423.2 73.7508 1417.16 67.3098 Q1411.13 60.8689 1411.13 49.9314 Q1411.13 38.832 1417.21 32.472 Q1423.32 26.1121 1433.94 26.1121 Q1437.38 26.1121 1440.66 26.8413 Q1443.94 27.5299 1447.02 28.9478 Z" fill="#000000" fill-rule="nonzero" fill-opacity="1" /><path clip-path="url(#clip470)" d="M1467.36 14.324 L1467.36 27.2059 L1482.71 27.2059 L1482.71 32.9987 L1467.36 32.9987 L1467.36 57.6282 Q1467.36 63.1779 1468.85 64.7578 Q1470.39 66.3376 1475.05 66.3376 L1482.71 66.3376 L1482.71 72.576 L1475.05 72.576 Q1466.42 72.576 1463.14 69.3758 Q1459.86 66.1351 1459.86 57.6282 L1459.86 32.9987 L1454.39 32.9987 L1454.39 27.2059 L1459.86 27.2059 L1459.86 14.324 L1467.36 14.324 Z" fill="#000000" fill-rule="nonzero" fill-opacity="1" /><path clip-path="url(#clip470)" d="M1531.32 48.0275 L1531.32 51.6733 L1497.05 51.6733 Q1497.53 59.3701 1501.67 63.421 Q1505.84 67.4314 1513.25 67.4314 Q1517.55 67.4314 1521.56 66.3781 Q1525.61 65.3249 1529.58 63.2184 L1529.58 70.267 Q1525.57 71.9684 1521.35 72.8596 Q1517.14 73.7508 1512.81 73.7508 Q1501.95 73.7508 1495.59 67.4314 Q1489.27 61.1119 1489.27 50.3365 Q1489.27 39.1965 1495.27 32.6746 Q1501.3 26.1121 1511.51 26.1121 Q1520.67 26.1121 1525.97 32.0264 Q1531.32 37.9003 1531.32 48.0275 M1523.87 45.84 Q1523.78 39.7232 1520.42 36.0774 Q1517.1 32.4315 1511.59 32.4315 Q1505.35 32.4315 1501.59 35.9558 Q1497.86 39.4801 1497.29 45.8805 L1523.87 45.84 Z" fill="#000000" fill-rule="nonzero" fill-opacity="1" /><path clip-path="url(#clip470)" d="M1573.41 34.0924 L1573.41 9.54393 L1580.86 9.54393 L1580.86 72.576 L1573.41 72.576 L1573.41 65.7705 Q1571.06 69.8214 1567.45 71.8063 Q1563.89 73.7508 1558.87 73.7508 Q1550.64 73.7508 1545.46 67.1883 Q1540.31 60.6258 1540.31 49.9314 Q1540.31 39.2371 1545.46 32.6746 Q1550.64 26.1121 1558.87 26.1121 Q1563.89 26.1121 1567.45 28.0971 Q1571.06 30.0415 1573.41 34.0924 M1548.01 49.9314 Q1548.01 58.1548 1551.37 62.8538 Q1554.77 67.5124 1560.69 67.5124 Q1566.6 67.5124 1570.01 62.8538 Q1573.41 58.1548 1573.41 49.9314 Q1573.41 41.7081 1570.01 37.0496 Q1566.6 32.3505 1560.69 32.3505 Q1554.77 32.3505 1551.37 37.0496 Q1548.01 41.7081 1548.01 49.9314 Z" fill="#000000" fill-rule="nonzero" fill-opacity="1" /><path clip-path="url(#clip470)" d="M1651.51 28.5427 L1651.51 35.5912 Q1648.35 33.9709 1644.95 33.1607 Q1641.54 32.3505 1637.9 32.3505 Q1632.35 32.3505 1629.55 34.0519 Q1626.8 35.7533 1626.8 39.156 Q1626.8 41.7486 1628.78 43.2475 Q1630.77 44.7058 1636.76 46.0426 L1639.32 46.6097 Q1647.26 48.3111 1650.58 51.4303 Q1653.94 54.509 1653.94 60.0587 Q1653.94 66.3781 1648.92 70.0644 Q1643.93 73.7508 1635.18 73.7508 Q1631.54 73.7508 1627.57 73.0216 Q1623.64 72.3329 1619.26 70.9151 L1619.26 63.2184 Q1623.4 65.3654 1627.41 66.4591 Q1631.42 67.5124 1635.35 67.5124 Q1640.61 67.5124 1643.45 65.73 Q1646.28 63.9071 1646.28 60.6258 Q1646.28 57.5877 1644.22 55.9673 Q1642.19 54.3469 1635.27 52.8481 L1632.67 52.2405 Q1625.75 50.7821 1622.67 47.7845 Q1619.59 44.7463 1619.59 39.4801 Q1619.59 33.0797 1624.13 29.5959 Q1628.66 26.1121 1637.01 26.1121 Q1641.14 26.1121 1644.79 26.7198 Q1648.43 27.3274 1651.51 28.5427 Z" fill="#000000" fill-rule="nonzero" fill-opacity="1" /><path clip-path="url(#clip470)" d="M1665.04 54.671 L1665.04 27.2059 L1672.49 27.2059 L1672.49 54.3874 Q1672.49 60.8284 1675 64.0691 Q1677.52 67.2693 1682.54 67.2693 Q1688.58 67.2693 1692.06 63.421 Q1695.58 59.5726 1695.58 52.9291 L1695.58 27.2059 L1703.04 27.2059 L1703.04 72.576 L1695.58 72.576 L1695.58 65.6084 Q1692.87 69.7404 1689.26 71.7658 Q1685.7 73.7508 1680.96 73.7508 Q1673.14 73.7508 1669.09 68.8897 Q1665.04 64.0286 1665.04 54.671 M1683.8 26.1121 L1683.8 26.1121 Z" fill="#000000" fill-rule="nonzero" fill-opacity="1" /><path clip-path="url(#clip470)" d="M1750.96 49.9314 Q1750.96 41.7081 1747.56 37.0496 Q1744.19 32.3505 1738.28 32.3505 Q1732.37 32.3505 1728.96 37.0496 Q1725.6 41.7081 1725.6 49.9314 Q1725.6 58.1548 1728.96 62.8538 Q1732.37 67.5124 1738.28 67.5124 Q1744.19 67.5124 1747.56 62.8538 Q1750.96 58.1548 1750.96 49.9314 M1725.6 34.0924 Q1727.95 30.0415 1731.51 28.0971 Q1735.12 26.1121 1740.1 26.1121 Q1748.37 26.1121 1753.51 32.6746 Q1758.7 39.2371 1758.7 49.9314 Q1758.7 60.6258 1753.51 67.1883 Q1748.37 73.7508 1740.1 73.7508 Q1735.12 73.7508 1731.51 71.8063 Q1727.95 69.8214 1725.6 65.7705 L1725.6 72.576 L1718.11 72.576 L1718.11 9.54393 L1725.6 9.54393 L1725.6 34.0924 Z" fill="#000000" fill-rule="nonzero" fill-opacity="1" /><path clip-path="url(#clip470)" d="M1799.98 28.5427 L1799.98 35.5912 Q1796.82 33.9709 1793.41 33.1607 Q1790.01 32.3505 1786.36 32.3505 Q1780.81 32.3505 1778.02 34.0519 Q1775.26 35.7533 1775.26 39.156 Q1775.26 41.7486 1777.25 43.2475 Q1779.23 44.7058 1785.23 46.0426 L1787.78 46.6097 Q1795.72 48.3111 1799.04 51.4303 Q1802.41 54.509 1802.41 60.0587 Q1802.41 66.3781 1797.38 70.0644 Q1792.4 73.7508 1783.65 73.7508 Q1780 73.7508 1776.03 73.0216 Q1772.11 72.3329 1767.73 70.9151 L1767.73 63.2184 Q1771.86 65.3654 1775.87 66.4591 Q1779.88 67.5124 1783.81 67.5124 Q1789.08 67.5124 1791.91 65.73 Q1794.75 63.9071 1794.75 60.6258 Q1794.75 57.5877 1792.68 55.9673 Q1790.66 54.3469 1783.73 52.8481 L1781.14 52.2405 Q1774.21 50.7821 1771.13 47.7845 Q1768.05 44.7463 1768.05 39.4801 Q1768.05 33.0797 1772.59 29.5959 Q1777.13 26.1121 1785.47 26.1121 Q1789.6 26.1121 1793.25 26.7198 Q1796.9 27.3274 1799.98 28.5427 Z" fill="#000000" fill-rule="nonzero" fill-opacity="1" /><path clip-path="url(#clip470)" d="M1853.08 48.0275 L1853.08 51.6733 L1818.81 51.6733 Q1819.3 59.3701 1823.43 63.421 Q1827.6 67.4314 1835.02 67.4314 Q1839.31 67.4314 1843.32 66.3781 Q1847.37 65.3249 1851.34 63.2184 L1851.34 70.267 Q1847.33 71.9684 1843.12 72.8596 Q1838.9 73.7508 1834.57 73.7508 Q1823.71 73.7508 1817.35 67.4314 Q1811.03 61.1119 1811.03 50.3365 Q1811.03 39.1965 1817.03 32.6746 Q1823.07 26.1121 1833.27 26.1121 Q1842.43 26.1121 1847.74 32.0264 Q1853.08 37.9003 1853.08 48.0275 M1845.63 45.84 Q1845.55 39.7232 1842.19 36.0774 Q1838.86 32.4315 1833.35 32.4315 Q1827.12 32.4315 1823.35 35.9558 Q1819.62 39.4801 1819.06 45.8805 L1845.63 45.84 Z" fill="#000000" fill-rule="nonzero" fill-opacity="1" /><path clip-path="url(#clip470)" d="M1872.69 14.324 L1872.69 27.2059 L1888.04 27.2059 L1888.04 32.9987 L1872.69 32.9987 L1872.69 57.6282 Q1872.69 63.1779 1874.19 64.7578 Q1875.73 66.3376 1880.39 66.3376 L1888.04 66.3376 L1888.04 72.576 L1880.39 72.576 Q1871.76 72.576 1868.48 69.3758 Q1865.19 66.1351 1865.19 57.6282 L1865.19 32.9987 L1859.73 32.9987 L1859.73 27.2059 L1865.19 27.2059 L1865.19 14.324 L1872.69 14.324 Z" fill="#000000" fill-rule="nonzero" fill-opacity="1" /><path clip-path="url(#clip470)" d="M1941.8 32.4315 Q1935.8 32.4315 1932.32 37.1306 Q1928.83 41.7891 1928.83 49.9314 Q1928.83 58.0738 1932.28 62.7728 Q1935.76 67.4314 1941.8 67.4314 Q1947.75 67.4314 1951.24 62.7323 Q1954.72 58.0333 1954.72 49.9314 Q1954.72 41.8701 1951.24 37.1711 Q1947.75 32.4315 1941.8 32.4315 M1941.8 26.1121 Q1951.52 26.1121 1957.07 32.4315 Q1962.62 38.7509 1962.62 49.9314 Q1962.62 61.0714 1957.07 67.4314 Q1951.52 73.7508 1941.8 73.7508 Q1932.03 73.7508 1926.49 67.4314 Q1920.98 61.0714 1920.98 49.9314 Q1920.98 38.7509 1926.49 32.4315 Q1932.03 26.1121 1941.8 26.1121 Z" fill="#000000" fill-rule="nonzero" fill-opacity="1" /><path clip-path="url(#clip470)" d="M1997.94 9.54393 L1997.94 15.7418 L1990.81 15.7418 Q1986.8 15.7418 1985.22 17.3622 Q1983.68 18.9825 1983.68 23.1955 L1983.68 27.2059 L1995.96 27.2059 L1995.96 32.9987 L1983.68 32.9987 L1983.68 72.576 L1976.19 72.576 L1976.19 32.9987 L1969.06 32.9987 L1969.06 27.2059 L1976.19 27.2059 L1976.19 24.0462 Q1976.19 16.471 1979.71 13.0277 Q1983.24 9.54393 1990.89 9.54393 L1997.94 9.54393 Z" fill="#000000" fill-rule="nonzero" fill-opacity="1" /><path clip-path="url(#clip470)" d="M2054.09 19.2256 L2033.43 51.5113 L2054.09 51.5113 L2054.09 19.2256 M2051.94 12.096 L2062.23 12.096 L2062.23 51.5113 L2070.86 51.5113 L2070.86 58.3168 L2062.23 58.3168 L2062.23 72.576 L2054.09 72.576 L2054.09 58.3168 L2026.79 58.3168 L2026.79 50.4176 L2051.94 12.096 Z" fill="#000000" fill-rule="nonzero" fill-opacity="1" /><path clip-path="url(#clip470)" d="M2101.89 17.4837 Q2095.57 17.4837 2092.37 23.7221 Q2089.21 29.92 2089.21 42.3968 Q2089.21 54.833 2092.37 61.0714 Q2095.57 67.2693 2101.89 67.2693 Q2108.25 67.2693 2111.41 61.0714 Q2114.61 54.833 2114.61 42.3968 Q2114.61 29.92 2111.41 23.7221 Q2108.25 17.4837 2101.89 17.4837 M2101.89 11.0023 Q2112.06 11.0023 2117.4 19.0636 Q2122.79 27.0843 2122.79 42.3968 Q2122.79 57.6687 2117.4 65.73 Q2112.06 73.7508 2101.89 73.7508 Q2091.72 73.7508 2086.33 65.73 Q2080.99 57.6687 2080.99 42.3968 Q2080.99 27.0843 2086.33 19.0636 Q2091.72 11.0023 2101.89 11.0023 Z" fill="#000000" fill-rule="nonzero" fill-opacity="1" /><path clip-path="url(#clip470)" d="M2191.41 28.5427 L2191.41 35.5912 Q2188.25 33.9709 2184.85 33.1607 Q2181.45 32.3505 2177.8 32.3505 Q2172.25 32.3505 2169.46 34.0519 Q2166.7 35.7533 2166.7 39.156 Q2166.7 41.7486 2168.69 43.2475 Q2170.67 44.7058 2176.67 46.0426 L2179.22 46.6097 Q2187.16 48.3111 2190.48 51.4303 Q2193.84 54.509 2193.84 60.0587 Q2193.84 66.3781 2188.82 70.0644 Q2183.84 73.7508 2175.09 73.7508 Q2171.44 73.7508 2167.47 73.0216 Q2163.54 72.3329 2159.17 70.9151 L2159.17 63.2184 Q2163.3 65.3654 2167.31 66.4591 Q2171.32 67.5124 2175.25 67.5124 Q2180.52 67.5124 2183.35 65.73 Q2186.19 63.9071 2186.19 60.6258 Q2186.19 57.5877 2184.12 55.9673 Q2182.1 54.3469 2175.17 52.8481 L2172.58 52.2405 Q2165.65 50.7821 2162.57 47.7845 Q2159.49 44.7463 2159.49 39.4801 Q2159.49 33.0797 2164.03 29.5959 Q2168.57 26.1121 2176.91 26.1121 Q2181.04 26.1121 2184.69 26.7198 Q2188.34 27.3274 2191.41 28.5427 Z" fill="#000000" fill-rule="nonzero" fill-opacity="1" /><path clip-path="url(#clip470)" d="M2243.43 45.1919 L2243.43 72.576 L2235.97 72.576 L2235.97 45.4349 Q2235.97 38.994 2233.46 35.7938 Q2230.95 32.5936 2225.93 32.5936 Q2219.89 32.5936 2216.41 36.4419 Q2212.92 40.2903 2212.92 46.9338 L2212.92 72.576 L2205.43 72.576 L2205.43 9.54393 L2212.92 9.54393 L2212.92 34.2544 Q2215.6 30.163 2219.2 28.1376 Q2222.85 26.1121 2227.59 26.1121 Q2235.41 26.1121 2239.42 30.9732 Q2243.43 35.7938 2243.43 45.1919 Z" fill="#000000" fill-rule="nonzero" fill-opacity="1" /><path clip-path="url(#clip470)" d="M2275.88 32.4315 Q2269.88 32.4315 2266.4 37.1306 Q2262.91 41.7891 2262.91 49.9314 Q2262.91 58.0738 2266.36 62.7728 Q2269.84 67.4314 2275.88 67.4314 Q2281.83 67.4314 2285.31 62.7323 Q2288.8 58.0333 2288.8 49.9314 Q2288.8 41.8701 2285.31 37.1711 Q2281.83 32.4315 2275.88 32.4315 M2275.88 26.1121 Q2285.6 26.1121 2291.15 32.4315 Q2296.7 38.7509 2296.7 49.9314 Q2296.7 61.0714 2291.15 67.4314 Q2285.6 73.7508 2275.88 73.7508 Q2266.11 73.7508 2260.56 67.4314 Q2255.05 61.0714 2255.05 49.9314 Q2255.05 38.7509 2260.56 32.4315 Q2266.11 26.1121 2275.88 26.1121 Z" fill="#000000" fill-rule="nonzero" fill-opacity="1" /><path clip-path="url(#clip470)" d="M2341.7 28.9478 L2341.7 35.9153 Q2338.54 34.1734 2335.34 33.3227 Q2332.18 32.4315 2328.94 32.4315 Q2321.69 32.4315 2317.68 37.0496 Q2313.67 41.6271 2313.67 49.9314 Q2313.67 58.2358 2317.68 62.8538 Q2321.69 67.4314 2328.94 67.4314 Q2332.18 67.4314 2335.34 66.5807 Q2338.54 65.6895 2341.7 63.9476 L2341.7 70.8341 Q2338.58 72.2924 2335.22 73.0216 Q2331.9 73.7508 2328.13 73.7508 Q2317.88 73.7508 2311.85 67.3098 Q2305.81 60.8689 2305.81 49.9314 Q2305.81 38.832 2311.89 32.472 Q2318 26.1121 2328.62 26.1121 Q2332.06 26.1121 2335.34 26.8413 Q2338.62 27.5299 2341.7 28.9478 Z" fill="#000000" fill-rule="nonzero" fill-opacity="1" /><path clip-path="url(#clip470)" d="M2354.38 9.54393 L2361.88 9.54393 L2361.88 46.7717 L2384.12 27.2059 L2393.64 27.2059 L2369.57 48.4326 L2394.65 72.576 L2384.93 72.576 L2361.88 50.4176 L2361.88 72.576 L2354.38 72.576 L2354.38 9.54393 Z" fill="#000000" fill-rule="nonzero" fill-opacity="1" /><path clip-path="url(#clip470)" d="M2438.56 48.0275 L2438.56 51.6733 L2404.29 51.6733 Q2404.78 59.3701 2408.91 63.421 Q2413.08 67.4314 2420.49 67.4314 Q2424.79 67.4314 2428.8 66.3781 Q2432.85 65.3249 2436.82 63.2184 L2436.82 70.267 Q2432.81 71.9684 2428.59 72.8596 Q2424.38 73.7508 2420.05 73.7508 Q2409.19 73.7508 2402.83 67.4314 Q2396.51 61.1119 2396.51 50.3365 Q2396.51 39.1965 2402.51 32.6746 Q2408.54 26.1121 2418.75 26.1121 Q2427.91 26.1121 2433.21 32.0264 Q2438.56 37.9003 2438.56 48.0275 M2431.11 45.84 Q2431.03 39.7232 2427.66 36.0774 Q2424.34 32.4315 2418.83 32.4315 Q2412.59 32.4315 2408.83 35.9558 Q2405.1 39.4801 2404.53 45.8805 L2431.11 45.84 Z" fill="#000000" fill-rule="nonzero" fill-opacity="1" /><path clip-path="url(#clip470)" d="M2480.65 34.0924 L2480.65 9.54393 L2488.1 9.54393 L2488.1 72.576 L2480.65 72.576 L2480.65 65.7705 Q2478.3 69.8214 2474.69 71.8063 Q2471.13 73.7508 2466.11 73.7508 Q2457.88 73.7508 2452.7 67.1883 Q2447.55 60.6258 2447.55 49.9314 Q2447.55 39.2371 2452.7 32.6746 Q2457.88 26.1121 2466.11 26.1121 Q2471.13 26.1121 2474.69 28.0971 Q2478.3 30.0415 2480.65 34.0924 M2455.25 49.9314 Q2455.25 58.1548 2458.61 62.8538 Q2462.01 67.5124 2467.93 67.5124 Q2473.84 67.5124 2477.25 62.8538 Q2480.65 58.1548 2480.65 49.9314 Q2480.65 41.7081 2477.25 37.0496 Q2473.84 32.3505 2467.93 32.3505 Q2462.01 32.3505 2458.61 37.0496 Q2455.25 41.7081 2455.25 49.9314 Z" fill="#000000" fill-rule="nonzero" fill-opacity="1" /><path clip-path="url(#clip470)" d="M2552.8 9.54393 L2552.8 15.7418 L2545.67 15.7418 Q2541.66 15.7418 2540.08 17.3622 Q2538.54 18.9825 2538.54 23.1955 L2538.54 27.2059 L2550.81 27.2059 L2550.81 32.9987 L2538.54 32.9987 L2538.54 72.576 L2531.04 72.576 L2531.04 32.9987 L2523.91 32.9987 L2523.91 27.2059 L2531.04 27.2059 L2531.04 24.0462 Q2531.04 16.471 2534.57 13.0277 Q2538.09 9.54393 2545.75 9.54393 L2552.8 9.54393 Z" fill="#000000" fill-rule="nonzero" fill-opacity="1" /><path clip-path="url(#clip470)" d="M2559.03 27.2059 L2566.49 27.2059 L2566.49 72.576 L2559.03 72.576 L2559.03 27.2059 M2559.03 9.54393 L2566.49 9.54393 L2566.49 18.9825 L2559.03 18.9825 L2559.03 9.54393 Z" fill="#000000" fill-rule="nonzero" fill-opacity="1" /><path clip-path="url(#clip470)" d="M2608.37 34.1734 Q2607.12 33.4443 2605.62 33.1202 Q2604.16 32.7556 2602.38 32.7556 Q2596.06 32.7556 2592.66 36.8875 Q2589.29 40.9789 2589.29 48.6757 L2589.29 72.576 L2581.8 72.576 L2581.8 27.2059 L2589.29 27.2059 L2589.29 34.2544 Q2591.64 30.1225 2595.41 28.1376 Q2599.18 26.1121 2604.57 26.1121 Q2605.34 26.1121 2606.27 26.2337 Q2607.2 26.3147 2608.33 26.5172 L2608.37 34.1734 Z" fill="#000000" fill-rule="nonzero" fill-opacity="1" /><path clip-path="url(#clip470)" d="M2650.06 35.9153 Q2652.85 30.8922 2656.74 28.5022 Q2660.63 26.1121 2665.9 26.1121 Q2672.99 26.1121 2676.83 31.0947 Q2680.68 36.0368 2680.68 45.1919 L2680.68 72.576 L2673.19 72.576 L2673.19 45.4349 Q2673.19 38.913 2670.88 35.7533 Q2668.57 32.5936 2663.83 32.5936 Q2658.04 32.5936 2654.68 36.4419 Q2651.31 40.2903 2651.31 46.9338 L2651.31 72.576 L2643.82 72.576 L2643.82 45.4349 Q2643.82 38.8725 2641.51 35.7533 Q2639.2 32.5936 2634.38 32.5936 Q2628.67 32.5936 2625.31 36.4824 Q2621.94 40.3308 2621.94 46.9338 L2621.94 72.576 L2614.45 72.576 L2614.45 27.2059 L2621.94 27.2059 L2621.94 34.2544 Q2624.5 30.082 2628.06 28.0971 Q2631.63 26.1121 2636.53 26.1121 Q2641.47 26.1121 2644.91 28.6237 Q2648.4 31.1352 2650.06 35.9153 Z" fill="#000000" fill-rule="nonzero" fill-opacity="1" /><path clip-path="url(#clip470)" d="M2724.47 28.5427 L2724.47 35.5912 Q2721.31 33.9709 2717.91 33.1607 Q2714.51 32.3505 2710.86 32.3505 Q2705.31 32.3505 2702.52 34.0519 Q2699.76 35.7533 2699.76 39.156 Q2699.76 41.7486 2701.75 43.2475 Q2703.73 44.7058 2709.73 46.0426 L2712.28 46.6097 Q2720.22 48.3111 2723.54 51.4303 Q2726.9 54.509 2726.9 60.0587 Q2726.9 66.3781 2721.88 70.0644 Q2716.9 73.7508 2708.15 73.7508 Q2704.5 73.7508 2700.53 73.0216 Q2696.6 72.3329 2692.23 70.9151 L2692.23 63.2184 Q2696.36 65.3654 2700.37 66.4591 Q2704.38 67.5124 2708.31 67.5124 Q2713.58 67.5124 2716.41 65.73 Q2719.25 63.9071 2719.25 60.6258 Q2719.25 57.5877 2717.18 55.9673 Q2715.16 54.3469 2708.23 52.8481 L2705.64 52.2405 Q2698.71 50.7821 2695.63 47.7845 Q2692.55 44.7463 2692.55 39.4801 Q2692.55 33.0797 2697.09 29.5959 Q2701.63 26.1121 2709.97 26.1121 Q2714.1 26.1121 2717.75 26.7198 Q2721.39 27.3274 2724.47 28.5427 Z" fill="#000000" fill-rule="nonzero" fill-opacity="1" /><path clip-path="url(#clip472)" d="M403.178 1261.96 L403.178 1453.43 L538.67 1453.43 L538.67 1261.96 L403.178 1261.96 L403.178 1261.96  Z" fill="#ff8c00" fill-rule="evenodd" fill-opacity="0.85"/>
<polyline clip-path="url(#clip472)" style="stroke:#ffffff; stroke-linecap:round; stroke-linejoin:round; stroke-width:0; stroke-opacity:0.85; fill:none" points="403.178,1261.96 403.178,1453.43 538.67,1453.43 538.67,1261.96 403.178,1261.96 "/>
<path clip-path="url(#clip472)" d="M538.67 1070.48 L538.67 1453.43 L674.162 1453.43 L674.162 1070.48 L538.67 1070.48 L538.67 1070.48  Z" fill="#ff8c00" fill-rule="evenodd" fill-opacity="0.85"/>
<polyline clip-path="url(#clip472)" style="stroke:#ffffff; stroke-linecap:round; stroke-linejoin:round; stroke-width:0; stroke-opacity:0.85; fill:none" points="538.67,1070.48 538.67,1453.43 674.162,1453.43 674.162,1070.48 538.67,1070.48 "/>
<path clip-path="url(#clip472)" d="M674.162 1070.48 L674.162 1453.43 L809.654 1453.43 L809.654 1070.48 L674.162 1070.48 L674.162 1070.48  Z" fill="#ff8c00" fill-rule="evenodd" fill-opacity="0.85"/>
<polyline clip-path="url(#clip472)" style="stroke:#ffffff; stroke-linecap:round; stroke-linejoin:round; stroke-width:0; stroke-opacity:0.85; fill:none" points="674.162,1070.48 674.162,1453.43 809.654,1453.43 809.654,1070.48 674.162,1070.48 "/>
<path clip-path="url(#clip472)" d="M809.654 113.127 L809.654 1453.43 L945.146 1453.43 L945.146 113.127 L809.654 113.127 L809.654 113.127  Z" fill="#ff8c00" fill-rule="evenodd" fill-opacity="0.85"/>
<polyline clip-path="url(#clip472)" style="stroke:#ffffff; stroke-linecap:round; stroke-linejoin:round; stroke-width:0; stroke-opacity:0.85; fill:none" points="809.654,113.127 809.654,1453.43 945.146,1453.43 945.146,113.127 809.654,113.127 "/>
<path clip-path="url(#clip472)" d="M945.146 687.542 L945.146 1453.43 L1080.64 1453.43 L1080.64 687.542 L945.146 687.542 L945.146 687.542  Z" fill="#ff8c00" fill-rule="evenodd" fill-opacity="0.85"/>
<polyline clip-path="url(#clip472)" style="stroke:#ffffff; stroke-linecap:round; stroke-linejoin:round; stroke-width:0; stroke-opacity:0.85; fill:none" points="945.146,687.542 945.146,1453.43 1080.64,1453.43 1080.64,687.542 945.146,687.542 "/>
<path clip-path="url(#clip472)" d="M1080.64 1261.96 L1080.64 1453.43 L1216.13 1453.43 L1216.13 1261.96 L1080.64 1261.96 L1080.64 1261.96  Z" fill="#ff8c00" fill-rule="evenodd" fill-opacity="0.85"/>
<polyline clip-path="url(#clip472)" style="stroke:#ffffff; stroke-linecap:round; stroke-linejoin:round; stroke-width:0; stroke-opacity:0.85; fill:none" points="1080.64,1261.96 1080.64,1453.43 1216.13,1453.43 1216.13,1261.96 1080.64,1261.96 "/>
<path clip-path="url(#clip472)" d="M1216.13 1453.43 L1216.13 1453.43 L1351.62 1453.43 L1351.62 1453.43 L1216.13 1453.43 L1216.13 1453.43  Z" fill="#ff8c00" fill-rule="evenodd" fill-opacity="0.85"/>
<polyline clip-path="url(#clip472)" style="stroke:#ffffff; stroke-linecap:round; stroke-linejoin:round; stroke-width:0; stroke-opacity:0.85; fill:none" points="1216.13,1453.43 1216.13,1453.43 1351.62,1453.43 1216.13,1453.43 "/>
<path clip-path="url(#clip472)" d="M1351.62 1453.43 L1351.62 1453.43 L1487.11 1453.43 L1487.11 1453.43 L1351.62 1453.43 L1351.62 1453.43  Z" fill="#ff8c00" fill-rule="evenodd" fill-opacity="0.85"/>
<polyline clip-path="url(#clip472)" style="stroke:#ffffff; stroke-linecap:round; stroke-linejoin:round; stroke-width:0; stroke-opacity:0.85; fill:none" points="1351.62,1453.43 1351.62,1453.43 1487.11,1453.43 1351.62,1453.43 "/>
<path clip-path="url(#clip472)" d="M1487.11 1453.43 L1487.11 1453.43 L1622.61 1453.43 L1622.61 1453.43 L1487.11 1453.43 L1487.11 1453.43  Z" fill="#ff8c00" fill-rule="evenodd" fill-opacity="0.85"/>
<polyline clip-path="url(#clip472)" style="stroke:#ffffff; stroke-linecap:round; stroke-linejoin:round; stroke-width:0; stroke-opacity:0.85; fill:none" points="1487.11,1453.43 1487.11,1453.43 1622.61,1453.43 1487.11,1453.43 "/>
<path clip-path="url(#clip472)" d="M1622.61 1453.43 L1622.61 1453.43 L1758.1 1453.43 L1758.1 1453.43 L1622.61 1453.43 L1622.61 1453.43  Z" fill="#ff8c00" fill-rule="evenodd" fill-opacity="0.85"/>
<polyline clip-path="url(#clip472)" style="stroke:#ffffff; stroke-linecap:round; stroke-linejoin:round; stroke-width:0; stroke-opacity:0.85; fill:none" points="1622.61,1453.43 1622.61,1453.43 1758.1,1453.43 1622.61,1453.43 "/>
<path clip-path="url(#clip472)" d="M1758.1 496.07 L1758.1 1453.43 L1893.59 1453.43 L1893.59 496.07 L1758.1 496.07 L1758.1 496.07  Z" fill="#ff8c00" fill-rule="evenodd" fill-opacity="0.85"/>
<polyline clip-path="url(#clip472)" style="stroke:#ffffff; stroke-linecap:round; stroke-linejoin:round; stroke-width:0; stroke-opacity:0.85; fill:none" points="1758.1,496.07 1758.1,1453.43 1893.59,1453.43 1893.59,496.07 1758.1,496.07 "/>
<path clip-path="url(#clip472)" d="M1893.59 496.07 L1893.59 1453.43 L2029.08 1453.43 L2029.08 496.07 L1893.59 496.07 L1893.59 496.07  Z" fill="#ff8c00" fill-rule="evenodd" fill-opacity="0.85"/>
<polyline clip-path="url(#clip472)" style="stroke:#ffffff; stroke-linecap:round; stroke-linejoin:round; stroke-width:0; stroke-opacity:0.85; fill:none" points="1893.59,496.07 1893.59,1453.43 2029.08,1453.43 2029.08,496.07 1893.59,496.07 "/>
<path clip-path="url(#clip472)" d="M2029.08 687.542 L2029.08 1453.43 L2164.57 1453.43 L2164.57 687.542 L2029.08 687.542 L2029.08 687.542  Z" fill="#ff8c00" fill-rule="evenodd" fill-opacity="0.85"/>
<polyline clip-path="url(#clip472)" style="stroke:#ffffff; stroke-linecap:round; stroke-linejoin:round; stroke-width:0; stroke-opacity:0.85; fill:none" points="2029.08,687.542 2029.08,1453.43 2164.57,1453.43 2164.57,687.542 2029.08,687.542 "/>
<path clip-path="url(#clip472)" d="M2164.57 879.013 L2164.57 1453.43 L2300.07 1453.43 L2300.07 879.013 L2164.57 879.013 L2164.57 879.013  Z" fill="#ff8c00" fill-rule="evenodd" fill-opacity="0.85"/>
<polyline clip-path="url(#clip472)" style="stroke:#ffffff; stroke-linecap:round; stroke-linejoin:round; stroke-width:0; stroke-opacity:0.85; fill:none" points="2164.57,879.013 2164.57,1453.43 2300.07,1453.43 2300.07,879.013 2164.57,879.013 "/>
<path clip-path="url(#clip472)" d="M2300.07 1070.48 L2300.07 1453.43 L2435.56 1453.43 L2435.56 1070.48 L2300.07 1070.48 L2300.07 1070.48  Z" fill="#ff8c00" fill-rule="evenodd" fill-opacity="0.85"/>
<polyline clip-path="url(#clip472)" style="stroke:#ffffff; stroke-linecap:round; stroke-linejoin:round; stroke-width:0; stroke-opacity:0.85; fill:none" points="2300.07,1070.48 2300.07,1453.43 2435.56,1453.43 2435.56,1070.48 2300.07,1070.48 "/>
<path clip-path="url(#clip472)" d="M2435.56 879.013 L2435.56 1453.43 L2571.05 1453.43 L2571.05 879.013 L2435.56 879.013 L2435.56 879.013  Z" fill="#ff8c00" fill-rule="evenodd" fill-opacity="0.85"/>
<polyline clip-path="url(#clip472)" style="stroke:#ffffff; stroke-linecap:round; stroke-linejoin:round; stroke-width:0; stroke-opacity:0.85; fill:none" points="2435.56,879.013 2435.56,1453.43 2571.05,1453.43 2571.05,879.013 2435.56,879.013 "/>
<path clip-path="url(#clip472)" d="M2571.05 1453.43 L2571.05 1453.43 L2706.54 1453.43 L2706.54 1453.43 L2571.05 1453.43 L2571.05 1453.43  Z" fill="#ff8c00" fill-rule="evenodd" fill-opacity="0.85"/>
<polyline clip-path="url(#clip472)" style="stroke:#ffffff; stroke-linecap:round; stroke-linejoin:round; stroke-width:0; stroke-opacity:0.85; fill:none" points="2571.05,1453.43 2571.05,1453.43 2706.54,1453.43 2571.05,1453.43 "/>
<path clip-path="url(#clip472)" d="M2706.54 1261.96 L2706.54 1453.43 L2842.03 1453.43 L2842.03 1261.96 L2706.54 1261.96 L2706.54 1261.96  Z" fill="#ff8c00" fill-rule="evenodd" fill-opacity="0.85"/>
<polyline clip-path="url(#clip472)" style="stroke:#ffffff; stroke-linecap:round; stroke-linejoin:round; stroke-width:0; stroke-opacity:0.85; fill:none" points="2706.54,1261.96 2706.54,1453.43 2842.03,1453.43 2842.03,1261.96 2706.54,1261.96 "/>
<circle clip-path="url(#clip472)" style="fill:#ff8c00; stroke:none; fill-opacity:0" cx="470.924" cy="1261.96" r="2"/>
<circle clip-path="url(#clip472)" style="fill:#ff8c00; stroke:none; fill-opacity:0" cx="606.416" cy="1070.48" r="2"/>
<circle clip-path="url(#clip472)" style="fill:#ff8c00; stroke:none; fill-opacity:0" cx="741.908" cy="1070.48" r="2"/>
<circle clip-path="url(#clip472)" style="fill:#ff8c00; stroke:none; fill-opacity:0" cx="877.4" cy="113.127" r="2"/>
<circle clip-path="url(#clip472)" style="fill:#ff8c00; stroke:none; fill-opacity:0" cx="1012.89" cy="687.542" r="2"/>
<circle clip-path="url(#clip472)" style="fill:#ff8c00; stroke:none; fill-opacity:0" cx="1148.38" cy="1261.96" r="2"/>
<circle clip-path="url(#clip472)" style="fill:#ff8c00; stroke:none; fill-opacity:0" cx="1283.88" cy="1453.43" r="2"/>
<circle clip-path="url(#clip472)" style="fill:#ff8c00; stroke:none; fill-opacity:0" cx="1419.37" cy="1453.43" r="2"/>
<circle clip-path="url(#clip472)" style="fill:#ff8c00; stroke:none; fill-opacity:0" cx="1554.86" cy="1453.43" r="2"/>
<circle clip-path="url(#clip472)" style="fill:#ff8c00; stroke:none; fill-opacity:0" cx="1690.35" cy="1453.43" r="2"/>
<circle clip-path="url(#clip472)" style="fill:#ff8c00; stroke:none; fill-opacity:0" cx="1825.84" cy="496.07" r="2"/>
<circle clip-path="url(#clip472)" style="fill:#ff8c00; stroke:none; fill-opacity:0" cx="1961.34" cy="496.07" r="2"/>
<circle clip-path="url(#clip472)" style="fill:#ff8c00; stroke:none; fill-opacity:0" cx="2096.83" cy="687.542" r="2"/>
<circle clip-path="url(#clip472)" style="fill:#ff8c00; stroke:none; fill-opacity:0" cx="2232.32" cy="879.013" r="2"/>
<circle clip-path="url(#clip472)" style="fill:#ff8c00; stroke:none; fill-opacity:0" cx="2367.81" cy="1070.48" r="2"/>
<circle clip-path="url(#clip472)" style="fill:#ff8c00; stroke:none; fill-opacity:0" cx="2503.3" cy="879.013" r="2"/>
<circle clip-path="url(#clip472)" style="fill:#ff8c00; stroke:none; fill-opacity:0" cx="2638.8" cy="1453.43" r="2"/>
<circle clip-path="url(#clip472)" style="fill:#ff8c00; stroke:none; fill-opacity:0" cx="2774.29" cy="1261.96" r="2"/>
</svg>
